{"glyphs":{" ":{"ha":347,"x_min":0,"x_max":0,"o":""},"":{"ha":1290,"x_min":0,"x_max":0,"o":"m 1149 377 l 942 496 l 1149 615 b 1185 751 1196 643 1212 704 l 1135 836 b 1000 873 1108 884 1047 900 l 794 754 l 794 992 b 694 1091 794 1046 749 1091 l 595 1091 b 496 992 541 1091 496 1046 l 496 754 l 290 873 b 154 836 243 900 181 884 l 105 751 b 141 615 78 704 94 643 l 347 496 l 141 377 b 105 241 94 350 78 288 l 154 156 b 290 119 181 109 243 92 l 496 238 l 496 0 b 595 -99 496 -54 541 -99 l 694 -99 b 794 0 749 -99 794 -54 l 794 238 l 1000 119 b 1135 156 1047 92 1108 109 l 1185 241 b 1149 377 1212 288 1196 350 z "},"":{"ha":1091,"x_min":0,"x_max":0,"o":"m 1091 620 b 1017 694 1091 661 1058 694 l 694 694 l 694 1017 b 620 1091 694 1058 661 1091 l 471 1091 b 397 1017 430 1091 397 1058 l 397 694 l 74 694 b 0 620 33 694 0 661 l 0 471 b 74 397 0 430 33 397 l 397 397 l 397 74 b 471 0 397 33 430 0 l 620 0 b 694 74 661 0 694 33 l 694 397 l 1017 397 b 1091 471 1058 397 1091 430 z "},"":{"ha":794,"x_min":0,"x_max":0,"o":"m 546 217 b 515 248 546 234 532 248 l 329 248 b 298 217 312 248 298 234 l 298 31 b 329 0 298 14 312 0 l 515 0 b 546 31 532 0 546 14 z m 791 682 b 439 992 791 860 605 992 b 79 786 281 992 163 925 b 87 745 71 772 74 755 l 214 648 b 233 642 220 644 226 642 b 257 654 242 642 251 646 b 340 743 303 711 322 730 b 424 766 357 755 389 766 b 543 684 487 766 543 727 b 459 581 543 634 519 608 b 298 376 391 550 298 470 l 298 341 b 326 298 298 324 308 298 l 512 298 b 543 335 529 298 543 318 l 543 335 b 617 437 543 357 571 411 b 791 682 691 478 791 535 z "},"´":{"ha":1389,"x_min":0,"x_max":0,"o":""},"¨":{"ha":1389,"x_min":0,"x_max":0,"o":""},"Æ":{"ha":1389,"x_min":0,"x_max":0,"o":""},"Ø":{"ha":1389,"x_min":0,"x_max":0,"o":""},"™":{"ha":1389,"x_min":0,"x_max":0,"o":""},"®":{"ha":1389,"x_min":0,"x_max":0,"o":""},"":{"ha":1091,"x_min":0,"x_max":0,"o":"m 1091 620 b 1017 694 1091 661 1058 694 l 74 694 b 0 620 33 694 0 661 l 0 471 b 74 397 0 430 33 397 l 1017 397 b 1091 471 1058 397 1091 430 z "},"©":{"ha":1389,"x_min":0,"x_max":0,"o":""},"":{"ha":1389,"x_min":0,"x_max":0,"o":"m 1317 1046 b 1240 1091 1317 1084 1269 1091 l 149 1091 b 72 1046 120 1091 72 1084 b 105 986 72 1024 90 1001 l 595 496 l 595 -99 l 347 -99 b 298 -149 320 -99 298 -122 b 347 -198 298 -176 320 -198 l 1042 -198 b 1091 -149 1069 -198 1091 -176 b 1042 -99 1091 -122 1069 -99 l 794 -99 l 794 496 l 1283 986 b 1317 1046 1299 1001 1317 1024 z "},"":{"ha":1190,"x_min":0,"x_max":0,"o":"m 1190 1017 b 1116 1091 1190 1058 1157 1091 b 1094 1088 1108 1091 1101 1090 l 450 890 b 397 818 419 880 397 851 l 397 69 b 248 99 350 90 299 99 b 0 -50 164 99 0 60 b 248 -198 0 -159 164 -198 b 496 -50 332 -198 496 -159 l 496 500 l 1091 684 l 1091 267 b 942 298 1045 288 994 298 b 694 149 858 298 694 258 b 942 0 694 40 858 0 b 1190 149 1027 0 1190 40 z "},"":{"ha":1290,"x_min":0,"x_max":0,"o":"m 893 546 b 546 198 893 354 737 198 b 198 546 354 198 198 354 b 546 893 198 737 354 893 b 893 546 737 893 893 737 z m 1290 -99 b 1261 -29 1290 -73 1279 -47 l 995 236 b 1091 546 1058 327 1091 436 b 546 1091 1091 847 847 1091 b 0 546 244 1091 0 847 b 546 0 0 244 244 0 b 855 96 656 0 764 33 l 1121 -169 b 1190 -198 1139 -188 1164 -198 b 1290 -99 1245 -198 1290 -153 z "},"":{"ha":1389,"x_min":0,"x_max":0,"o":"m 1290 25 b 1265 0 1290 12 1278 0 l 124 0 b 99 25 111 0 99 12 l 99 620 b 153 569 115 601 133 584 b 483 307 264 484 375 397 b 694 198 541 258 613 198 l 694 198 l 695 198 b 906 307 776 198 848 258 b 1236 569 1014 397 1125 484 b 1290 620 1256 584 1273 601 l 1290 25 z m 1290 839 b 1176 648 1290 773 1226 687 b 865 402 1072 567 968 484 b 695 298 824 369 749 298 l 694 298 l 694 298 b 524 402 639 298 565 369 b 213 648 421 484 317 567 b 99 868 143 703 99 780 b 124 893 99 881 111 893 l 1265 893 b 1290 839 1294 893 1290 859 z m 1389 868 b 1265 992 1389 936 1333 992 l 124 992 b 0 868 56 992 0 936 l 0 25 b 124 -99 0 -43 56 -99 l 1265 -99 b 1389 25 1333 -99 1389 -43 z "},"":{"ha":1389,"x_min":0,"x_max":0,"o":"m 694 -99 b 729 -85 707 -99 719 -95 l 1211 380 b 1389 729 1218 387 1389 543 b 1018 1091 1389 956 1250 1091 b 694 924 883 1091 756 984 b 370 1091 633 984 506 1091 b 0 729 139 1091 0 956 b 177 381 0 543 171 387 l 660 -85 b 694 -99 670 -95 682 -99 z "},"":{"ha":1290,"x_min":0,"x_max":0,"o":"m 1290 689 b 1246 725 1290 712 1265 722 l 857 781 l 683 1134 b 645 1166 676 1149 663 1166 b 607 1134 627 1166 614 1149 l 432 781 l 43 725 b 0 689 24 722 0 712 b 19 652 0 675 10 662 l 301 377 l 235 -10 b 233 -26 234 -16 233 -20 b 266 -64 233 -46 243 -64 b 297 -55 277 -64 287 -60 l 645 128 l 993 -55 b 1024 -64 1002 -60 1013 -64 b 1056 -26 1046 -64 1056 -46 b 1055 -10 1056 -20 1056 -16 l 988 377 l 1270 652 b 1290 689 1280 662 1290 675 z "},"":{"ha":1290,"x_min":0,"x_max":0,"o":"m 881 412 l 937 86 l 645 240 l 352 86 l 408 412 l 171 643 l 498 691 l 645 987 l 791 691 l 1118 643 z m 1290 689 b 1246 725 1290 712 1265 722 l 857 781 l 683 1134 b 645 1166 676 1149 663 1166 b 607 1134 627 1166 614 1149 l 432 781 l 43 725 b 0 689 24 722 0 712 b 19 652 0 675 10 662 l 301 377 l 235 -10 b 233 -26 234 -16 233 -20 b 266 -64 233 -46 243 -64 b 297 -55 277 -64 287 -60 l 645 128 l 993 -55 b 1024 -64 1002 -60 1013 -64 b 1056 -26 1046 -64 1056 -47 b 1055 -10 1056 -20 1056 -16 l 988 377 l 1270 652 b 1290 689 1280 662 1290 675 z "},"":{"ha":992,"x_min":0,"x_max":0,"o":"m 992 106 b 739 546 992 310 942 546 b 496 446 676 484 591 446 b 253 546 401 446 316 484 b 0 106 50 546 0 310 b 165 -99 0 -7 74 -99 l 827 -99 b 992 106 918 -99 992 -7 z m 794 794 b 496 1091 794 958 660 1091 b 198 794 332 1091 198 958 b 496 496 198 629 332 496 b 794 794 660 496 794 629 z "},"":{"ha":1488,"x_min":0,"x_max":0,"o":"m 298 -50 b 248 -99 298 -77 275 -99 l 149 -99 b 99 -50 122 -99 99 -77 l 99 50 b 149 99 99 77 122 99 l 248 99 b 298 50 275 99 298 77 l 298 -50 z m 298 248 b 248 198 298 221 275 198 l 149 198 b 99 248 122 198 99 221 l 99 347 b 149 397 99 374 122 397 l 248 397 b 298 347 275 397 298 374 l 298 248 z m 298 546 b 248 496 298 519 275 496 l 149 496 b 99 546 122 496 99 519 l 99 645 b 149 694 99 672 122 694 l 248 694 b 298 645 275 694 298 672 l 298 546 z m 1091 -50 b 1042 -99 1091 -77 1069 -99 l 446 -99 b 397 -50 419 -99 397 -77 l 397 347 b 446 397 397 374 419 397 l 1042 397 b 1091 347 1069 397 1091 374 l 1091 -50 z m 298 843 b 248 794 298 816 275 794 l 149 794 b 99 843 122 794 99 816 l 99 942 b 149 992 99 970 122 992 l 248 992 b 298 942 275 992 298 970 l 298 843 z m 1389 -50 b 1339 -99 1389 -77 1366 -99 l 1240 -99 b 1190 -50 1213 -99 1190 -77 l 1190 50 b 1240 99 1190 77 1213 99 l 1339 99 b 1389 50 1366 99 1389 77 l 1389 -50 z m 1091 546 b 1042 496 1091 519 1069 496 l 446 496 b 397 546 419 496 397 519 l 397 942 b 446 992 397 970 419 992 l 1042 992 b 1091 942 1069 992 1091 970 l 1091 546 z m 1389 248 b 1339 198 1389 221 1366 198 l 1240 198 b 1190 248 1213 198 1190 221 l 1190 347 b 1240 397 1190 374 1213 397 l 1339 397 b 1389 347 1366 397 1389 374 l 1389 248 z m 1389 546 b 1339 496 1389 519 1366 496 l 1240 496 b 1190 546 1213 496 1190 519 l 1190 645 b 1240 694 1190 672 1213 694 l 1339 694 b 1389 645 1366 694 1389 672 l 1389 546 z m 1389 843 b 1339 794 1389 816 1366 794 l 1240 794 b 1190 843 1213 794 1190 816 l 1190 942 b 1240 992 1190 970 1213 992 l 1339 992 b 1389 942 1366 992 1389 970 l 1389 843 z m 1488 967 b 1364 1091 1488 1035 1432 1091 l 124 1091 b 0 967 56 1091 0 1035 l 0 -74 b 124 -198 0 -143 56 -198 l 1364 -198 b 1488 -74 1432 -198 1488 -143 z "},"":{"ha":1290,"x_min":0,"x_max":0,"o":"m 595 397 b 496 496 595 451 550 496 l 99 496 b 0 397 45 496 0 451 l 0 99 b 99 0 0 45 45 0 l 496 0 b 595 99 550 0 595 45 z m 595 992 b 496 1091 595 1046 550 1091 l 99 1091 b 0 992 45 1091 0 1046 l 0 694 b 99 595 0 640 45 595 l 496 595 b 595 694 550 595 595 640 z m 1290 397 b 1190 496 1290 451 1245 496 l 794 496 b 694 397 739 496 694 451 l 694 99 b 794 0 694 45 739 0 l 1190 0 b 1290 99 1245 0 1290 45 z m 1290 992 b 1190 1091 1290 1046 1245 1091 l 794 1091 b 694 992 739 1091 694 1046 l 694 694 b 794 595 694 640 739 595 l 1190 595 b 1290 694 1245 595 1290 640 z "},"":{"ha":1389,"x_min":0,"x_max":0,"o":"m 397 223 b 322 298 397 264 363 298 l 74 298 b 0 223 33 298 0 264 l 0 74 b 74 0 0 33 33 0 l 322 0 b 397 74 363 0 397 33 z m 397 620 b 322 694 397 661 363 694 l 74 694 b 0 620 33 694 0 661 l 0 471 b 74 397 0 430 33 397 l 322 397 b 397 471 363 397 397 430 z m 893 223 b 818 298 893 264 860 298 l 570 298 b 496 223 529 298 496 264 l 496 74 b 570 0 496 33 529 0 l 818 0 b 893 74 860 0 893 33 z m 397 1017 b 322 1091 397 1058 363 1091 l 74 1091 b 0 1017 33 1091 0 1058 l 0 868 b 74 794 0 827 33 794 l 322 794 b 397 868 363 794 397 827 z m 893 620 b 818 694 893 661 860 694 l 570 694 b 496 620 529 694 496 661 l 496 471 b 570 397 496 430 529 397 l 818 397 b 893 471 860 397 893 430 z m 1389 223 b 1314 298 1389 264 1356 298 l 1066 298 b 992 223 1025 298 992 264 l 992 74 b 1066 0 992 33 1025 0 l 1314 0 b 1389 74 1356 0 1389 33 z m 893 1017 b 818 1091 893 1058 860 1091 l 570 1091 b 496 1017 529 1091 496 1058 l 496 868 b 570 794 496 827 529 794 l 818 794 b 893 868 860 794 893 827 z m 1389 620 b 1314 694 1389 661 1356 694 l 1066 694 b 992 620 1025 694 992 661 l 992 471 b 1066 397 992 430 1025 397 l 1314 397 b 1389 471 1356 397 1389 430 z m 1389 1017 b 1314 1091 1389 1058 1356 1091 l 1066 1091 b 992 1017 1025 1091 992 1058 l 992 868 b 1066 794 992 827 1025 794 l 1314 794 b 1389 868 1356 794 1389 827 z "},"":{"ha":1389,"x_min":0,"x_max":0,"o":"m 397 223 b 322 298 397 264 363 298 l 74 298 b 0 223 33 298 0 264 l 0 74 b 74 0 0 33 33 0 l 322 0 b 397 74 363 0 397 33 z m 397 620 b 322 694 397 661 363 694 l 74 694 b 0 620 33 694 0 661 l 0 471 b 74 397 0 430 33 397 l 322 397 b 397 471 363 397 397 430 z m 1389 223 b 1314 298 1389 264 1356 298 l 570 298 b 496 223 529 298 496 264 l 496 74 b 570 0 496 33 529 0 l 1314 0 b 1389 74 1356 0 1389 33 z m 397 1017 b 322 1091 397 1058 363 1091 l 74 1091 b 0 1017 33 1091 0 1058 l 0 868 b 74 794 0 827 33 794 l 322 794 b 397 868 363 794 397 827 z m 1389 620 b 1314 694 1389 661 1356 694 l 570 694 b 496 620 529 694 496 661 l 496 471 b 570 397 496 430 529 397 l 1314 397 b 1389 471 1356 397 1389 430 z m 1389 1017 b 1314 1091 1389 1058 1356 1091 l 570 1091 b 496 1017 529 1091 496 1058 l 496 868 b 570 794 496 827 529 794 l 1314 794 b 1389 868 1356 794 1389 827 z "},"":{"ha":1389,"x_min":0,"x_max":0,"o":"m 1295 752 b 1273 805 1295 771 1287 791 l 1168 910 b 1115 932 1154 924 1135 932 b 1063 910 1096 932 1077 924 l 554 401 l 326 629 b 274 651 312 643 293 651 b 221 629 254 651 235 643 l 115 524 b 94 471 102 510 94 491 b 115 419 94 452 102 432 l 396 138 l 501 33 b 554 11 515 19 535 11 b 607 33 574 11 593 19 l 712 138 l 1273 699 b 1295 752 1287 713 1295 732 z "},"":{"ha":1091,"x_min":0,"x_max":0,"o":"m 1006 166 b 984 219 1006 185 998 205 l 756 446 l 984 674 b 1006 727 998 688 1006 708 b 984 780 1006 746 998 766 l 879 885 b 826 907 865 899 846 907 b 773 885 807 907 787 899 l 546 657 l 318 885 b 265 907 304 899 284 907 b 212 885 246 907 226 899 l 107 780 b 85 727 93 766 85 746 b 107 674 85 708 93 688 l 335 446 l 107 219 b 85 166 93 205 85 185 b 107 113 85 146 93 127 l 212 8 b 265 -14 226 -6 246 -14 b 318 8 284 -14 304 -6 l 546 236 l 773 8 b 826 -14 787 -6 807 -14 b 879 8 846 -14 865 -6 l 984 113 b 1006 166 998 127 1006 146 z "},"":{"ha":1290,"x_min":0,"x_max":0,"o":"m 794 570 b 769 595 794 584 782 595 l 595 595 l 595 769 b 570 794 595 782 584 794 l 521 794 b 496 769 508 794 496 782 l 496 595 l 322 595 b 298 570 309 595 298 584 l 298 521 b 322 496 298 508 309 496 l 496 496 l 496 322 b 521 298 496 309 508 298 l 570 298 b 595 322 584 298 595 309 l 595 496 l 769 496 b 794 521 782 496 794 508 z m 893 546 b 546 198 893 354 737 198 b 198 546 354 198 198 354 b 546 893 198 737 354 893 b 893 546 737 893 893 737 z m 1290 -99 b 1261 -29 1290 -73 1279 -47 l 995 236 b 1091 546 1058 327 1091 436 b 546 1091 1091 847 847 1091 b 0 546 244 1091 0 847 b 546 0 0 244 244 0 b 855 96 656 0 764 33 l 1121 -169 b 1190 -198 1139 -188 1164 -198 b 1290 -99 1246 -198 1290 -154 z "},"":{"ha":1290,"x_min":0,"x_max":0,"o":"m 794 570 b 769 595 794 584 782 595 l 322 595 b 298 570 309 595 298 584 l 298 521 b 322 496 298 508 309 496 l 769 496 b 794 521 782 496 794 508 z m 893 546 b 546 198 893 354 737 198 b 198 546 354 198 198 354 b 546 893 198 737 354 893 b 893 546 737 893 893 737 z m 1290 -99 b 1261 -29 1290 -73 1279 -47 l 995 236 b 1091 546 1058 327 1091 436 b 546 1091 1091 847 847 1091 b 0 546 244 1091 0 847 b 546 0 0 244 244 0 b 855 96 656 0 764 33 l 1121 -169 b 1190 -198 1139 -188 1164 -198 b 1290 -99 1246 -198 1290 -154 z "},"":{"ha":1190,"x_min":0,"x_max":0,"o":"m 1190 496 b 953 971 1190 684 1104 858 b 814 952 909 1004 846 996 b 833 813 780 908 790 846 b 992 496 934 737 992 622 b 595 99 992 277 814 99 b 198 496 377 99 198 277 b 357 813 198 622 257 737 b 377 952 401 846 410 908 b 238 971 344 996 282 1004 b 0 496 87 858 0 684 b 595 -99 0 168 267 -99 b 1190 496 923 -99 1190 168 z m 694 1091 b 595 1190 694 1146 649 1190 b 496 1091 541 1190 496 1146 l 496 595 b 595 496 496 541 541 496 b 694 595 649 496 694 541 z "},"":{"ha":1389,"x_min":0,"x_max":0,"o":"m 198 74 b 174 99 198 88 188 99 l 25 99 b 0 74 11 99 0 88 l 0 -74 b 25 -99 0 -88 11 -99 l 174 -99 b 198 -74 188 -99 198 -88 z m 496 174 b 471 198 496 188 485 198 l 322 198 b 298 174 308 198 298 188 l 298 -74 b 322 -99 298 -88 308 -99 l 471 -99 b 496 -74 485 -99 496 -88 z m 794 372 b 769 397 794 386 783 397 l 620 397 b 595 372 606 397 595 386 l 595 -74 b 620 -99 595 -88 606 -99 l 769 -99 b 794 -74 783 -99 794 -88 z m 1091 670 b 1066 694 1091 684 1080 694 l 918 694 b 893 670 904 694 893 684 l 893 -74 b 918 -99 893 -88 904 -99 l 1066 -99 b 1091 -74 1080 -99 1091 -88 z m 1389 1066 b 1364 1091 1389 1080 1378 1091 l 1215 1091 b 1190 1066 1201 1091 1190 1080 l 1190 -74 b 1215 -99 1190 -88 1201 -99 l 1364 -99 b 1389 -74 1378 -99 1389 -88 z "},"":{"ha":1190,"x_min":0,"x_max":0,"o":"m 794 496 b 595 298 794 387 705 298 b 397 496 486 298 397 387 b 595 694 397 605 486 694 b 794 496 705 694 794 605 z m 1190 581 b 1168 608 1190 594 1181 606 l 1026 630 b 994 706 1018 656 1008 681 b 1076 812 1021 742 1049 777 b 1082 830 1080 818 1082 823 b 1077 847 1082 836 1080 842 b 949 979 1044 893 990 941 b 929 987 943 984 936 987 b 911 980 922 987 915 984 l 801 897 b 731 925 778 908 755 918 l 709 1068 b 681 1091 708 1081 695 1091 l 509 1091 b 481 1070 495 1091 484 1082 b 459 925 469 1023 464 973 b 388 896 435 918 411 908 l 281 979 b 261 987 275 984 268 987 b 112 848 235 987 130 873 b 105 830 108 842 105 837 b 112 811 105 823 108 817 b 195 705 141 777 169 742 b 165 633 183 681 173 658 l 21 612 b 0 584 9 609 0 595 l 0 412 b 22 384 0 398 9 386 l 164 363 b 196 286 172 336 183 311 b 115 180 170 250 141 215 b 109 162 111 174 109 169 b 114 144 109 156 110 150 b 242 14 146 99 201 51 b 261 5 247 9 254 5 b 281 12 268 5 275 8 l 390 95 b 460 67 412 84 436 74 l 481 -76 b 509 -99 483 -89 495 -99 l 681 -99 b 709 -78 695 -99 706 -90 b 732 67 722 -31 726 19 b 802 96 756 74 780 84 l 909 12 b 929 5 915 9 922 5 b 1079 144 956 5 1060 119 b 1086 162 1084 150 1086 155 b 1078 181 1086 169 1083 176 b 995 288 1049 216 1022 250 b 1025 359 1008 311 1017 334 l 1169 381 b 1190 408 1181 383 1190 397 z "},"":{"ha":1091,"x_min":0,"x_max":0,"o":"m 397 620 b 372 645 397 634 386 645 l 322 645 b 298 620 308 645 298 634 l 298 174 b 322 149 298 160 308 149 l 372 149 b 397 174 386 149 397 160 z m 595 620 b 570 645 595 634 584 645 l 521 645 b 496 620 507 645 496 634 l 496 174 b 521 149 496 160 507 149 l 570 149 b 595 174 584 149 595 160 z m 794 620 b 769 645 794 634 783 645 l 719 645 b 694 620 705 645 694 634 l 694 174 b 719 149 694 160 705 149 l 769 149 b 794 174 783 149 794 160 z m 893 59 b 868 0 893 22 872 0 l 223 0 b 198 59 219 0 198 22 l 198 794 l 893 794 l 893 59 z m 372 893 l 410 984 b 423 992 412 987 419 991 l 669 992 b 682 984 673 991 680 987 l 719 893 z m 1091 868 b 1066 893 1091 882 1080 893 l 827 893 l 773 1022 b 670 1091 757 1060 711 1091 l 422 1091 b 319 1022 381 1091 334 1060 l 264 893 l 25 893 b 0 868 11 893 0 882 l 0 818 b 25 794 0 805 11 794 l 99 794 l 99 56 b 223 -99 99 -29 155 -99 l 868 -99 b 992 59 936 -99 992 -26 l 992 794 l 1066 794 b 1091 818 1080 794 1091 805 z "},"":{"ha":1290,"x_min":0,"x_max":0,"o":"m 1091 422 b 1090 426 1091 423 1091 425 l 645 794 l 199 426 b 198 422 199 425 198 423 l 198 50 b 248 0 198 22 221 0 l 546 0 l 546 298 l 744 298 l 744 0 l 1042 0 b 1091 50 1069 0 1091 22 z m 1264 475 b 1261 510 1273 485 1271 501 l 1091 651 l 1091 967 b 1066 992 1091 981 1080 992 l 918 992 b 893 967 904 992 893 981 l 893 816 l 704 974 b 586 974 671 1001 618 1001 l 29 510 b 26 475 19 501 17 485 l 74 418 b 90 409 78 413 84 410 b 109 415 97 408 103 411 l 645 862 l 1181 415 b 1197 409 1186 411 1191 409 b 1200 409 1198 409 1199 409 b 1216 418 1206 410 1212 413 l 1264 475 z "},"":{"ha":1190,"x_min":0,"x_max":0,"o":"m 1138 896 l 896 1138 b 769 1190 867 1166 810 1190 l 74 1190 b 0 1116 33 1190 0 1157 l 0 -124 b 74 -198 0 -165 33 -198 l 1116 -198 b 1190 -124 1157 -198 1190 -165 l 1190 769 b 1138 896 1190 810 1166 867 z m 794 1085 b 825 1068 807 1080 820 1073 l 1068 825 b 1085 794 1073 820 1080 807 l 794 794 z m 1091 -99 l 99 -99 l 99 1091 l 694 1091 l 694 769 b 769 694 694 728 728 694 l 1091 694 z "},"":{"ha":1190,"x_min":0,"x_max":0,"o":"m 694 769 b 670 794 694 783 684 794 l 620 794 b 595 769 606 794 595 783 l 595 496 l 422 496 b 397 471 408 496 397 485 l 397 422 b 422 397 397 408 408 397 l 670 397 b 694 422 684 397 694 408 z m 1017 496 b 595 74 1017 264 828 74 b 174 496 363 74 174 264 b 595 918 174 729 363 918 b 1017 496 828 918 1017 729 z m 1190 496 b 595 1091 1190 825 924 1091 b 0 496 267 1091 0 825 b 595 -99 0 167 267 -99 b 1190 496 924 -99 1190 167 z "},"":{"ha":1488,"x_min":0,"x_max":0,"o":"m 861 419 b 839 397 862 406 850 397 l 649 397 b 627 419 638 397 626 406 l 627 422 l 646 670 b 672 694 646 684 659 694 l 816 694 b 842 670 829 694 842 684 l 861 422 l 861 419 z m 1449 57 b 1429 146 1449 88 1441 119 l 1106 956 b 1056 992 1098 975 1077 992 l 794 992 b 820 967 807 992 819 981 l 832 818 b 808 794 832 805 822 794 l 680 794 b 656 818 666 794 656 805 l 668 967 b 694 992 669 981 681 992 l 432 992 b 382 956 411 992 390 975 l 59 146 b 39 57 47 119 39 88 b 74 0 39 34 45 0 l 620 0 b 597 25 607 0 596 11 l 612 223 b 639 248 613 237 625 248 l 849 248 b 876 223 863 248 875 237 l 891 25 b 868 0 892 11 881 0 l 1414 0 b 1449 57 1443 0 1449 34 z "},"":{"ha":1290,"x_min":0,"x_max":0,"o":"m 992 149 b 942 99 992 122 970 99 b 893 149 915 99 893 122 b 942 198 893 176 915 198 b 992 149 970 198 992 176 z m 1190 149 b 1141 99 1190 122 1168 99 b 1091 149 1114 99 1091 122 b 1141 198 1091 176 1114 198 b 1190 149 1168 198 1190 176 z m 1290 322 b 1215 397 1290 363 1256 397 l 856 397 l 750 291 b 645 248 722 264 684 248 b 539 291 605 248 568 264 l 435 397 l 74 397 b 0 322 33 397 0 363 l 0 74 b 74 0 0 33 33 0 l 1215 0 b 1290 74 1256 0 1290 33 z m 1038 763 b 992 794 1030 781 1012 794 l 794 794 l 794 1141 b 744 1190 794 1168 771 1190 l 546 1190 b 496 1141 519 1190 496 1168 l 496 794 l 298 794 b 252 763 277 794 260 781 b 263 709 244 745 248 723 l 610 362 b 645 347 619 352 632 347 b 680 362 657 347 670 352 l 1027 709 b 1038 763 1042 723 1046 745 z "},"":{"ha":1190,"x_min":0,"x_max":0,"o":"m 868 471 b 843 496 868 485 857 496 l 843 496 l 694 496 l 694 769 b 670 794 694 783 684 794 l 521 794 b 496 769 507 794 496 783 l 496 496 l 347 496 b 324 481 337 496 328 490 b 329 453 320 471 322 461 l 577 205 b 595 198 583 201 589 198 b 613 205 601 198 608 201 l 860 453 b 868 471 865 458 868 464 z m 595 918 b 1017 496 828 918 1017 729 b 595 74 1017 264 828 74 b 174 496 363 74 174 264 b 595 918 174 729 363 918 z m 1190 496 b 595 1091 1190 825 924 1091 l 595 1091 b 0 496 267 1091 0 825 b 595 -99 0 167 267 -99 b 1190 496 924 -99 1190 167 z "},"":{"ha":1190,"x_min":0,"x_max":0,"o":"m 867 512 b 861 539 870 521 868 531 l 613 787 b 595 794 608 791 601 794 b 577 787 589 794 583 791 l 330 539 b 322 521 326 534 322 528 b 347 496 322 507 333 496 l 347 496 l 496 496 l 496 223 b 521 198 496 209 507 198 l 670 198 b 694 223 684 198 694 209 l 694 496 l 843 496 b 867 512 853 496 863 502 z m 595 918 b 1017 496 828 918 1017 729 b 595 74 1017 264 828 74 b 174 496 363 74 174 264 b 595 918 174 729 363 918 z m 1190 496 b 595 1091 1190 825 924 1091 l 595 1091 b 0 496 267 1091 0 825 b 595 -99 0 167 267 -99 b 1190 496 924 -99 1190 167 z "},"":{"ha":1190,"x_min":0,"x_max":0,"o":"m 793 446 l 719 298 l 471 298 l 398 446 l 153 446 b 157 459 154 450 155 455 l 321 843 l 870 843 l 1034 459 b 1038 446 1035 455 1036 450 z m 1190 423 b 1171 519 1190 451 1182 492 l 987 946 b 918 992 976 972 945 992 l 273 992 b 204 946 246 992 215 972 l 19 519 b 0 423 9 492 0 451 l 0 50 b 50 0 0 22 22 0 l 1141 0 b 1190 50 1168 0 1190 22 z "},"":{"ha":1190,"x_min":0,"x_max":0,"o":"m 918 496 b 893 539 918 514 908 530 l 471 787 b 422 787 457 796 437 796 b 397 744 406 778 397 762 l 397 248 b 422 205 397 230 406 214 b 446 198 429 201 438 198 b 471 205 455 198 463 201 l 893 453 b 918 496 908 462 918 478 z m 1017 496 b 595 74 1017 264 828 74 b 174 496 363 74 174 264 b 595 918 174 729 363 918 b 1017 496 828 918 1017 729 z m 1190 496 b 595 1091 1190 825 924 1091 b 0 496 267 1091 0 825 b 595 -99 0 167 267 -99 b 1190 496 924 -99 1190 167 z "},"":{"ha":1190,"x_min":0,"x_max":0,"o":"m 1190 992 b 1160 1038 1190 1012 1178 1030 b 1106 1027 1142 1046 1120 1042 l 1005 927 b 595 1091 896 1030 748 1091 b 0 496 267 1091 0 824 b 595 -99 0 168 267 -99 b 1053 115 773 -99 940 -21 b 1052 149 1061 126 1061 140 l 946 256 b 926 263 940 260 933 263 b 908 253 919 262 912 259 b 595 99 832 155 718 99 b 198 496 377 99 198 277 b 595 893 198 715 377 893 b 866 787 697 893 793 854 l 759 680 b 748 626 744 666 740 644 b 794 595 756 608 773 595 l 1141 595 b 1190 645 1168 595 1190 618 z "},"":{"ha":1190,"x_min":0,"x_max":0,"o":"m 1171 372 b 1146 397 1171 385 1160 397 l 997 397 b 974 379 986 397 978 390 b 933 288 961 348 952 319 b 595 99 861 171 733 99 b 326 206 495 99 398 138 l 432 312 b 446 347 441 322 446 334 b 397 397 446 374 424 397 l 50 397 b 0 347 22 397 0 374 l 0 0 b 50 -50 0 -27 22 -50 b 84 -35 63 -50 75 -44 l 184 65 b 592 -99 295 -40 441 -99 b 1170 367 878 -99 1104 92 b 1171 372 1171 368 1171 370 z m 1190 992 b 1141 1042 1190 1019 1168 1042 b 1106 1027 1128 1042 1115 1036 l 1005 927 b 595 1091 895 1031 747 1091 b 14 625 309 1091 81 901 b 14 620 14 624 14 622 b 39 595 14 607 25 595 l 193 595 b 216 613 205 595 212 602 b 257 704 229 644 239 674 b 595 893 329 822 457 893 b 866 787 695 893 792 855 l 759 680 b 744 645 749 670 744 658 b 794 595 744 618 767 595 l 1141 595 b 1190 645 1168 595 1190 618 z "},"":{"ha":1389,"x_min":0,"x_max":0,"o":"m 298 273 b 273 298 298 286 286 298 l 223 298 b 198 273 210 298 198 286 l 198 223 b 223 198 198 210 210 198 l 273 198 b 298 223 286 198 298 210 z m 298 471 b 273 496 298 484 286 496 l 223 496 b 198 471 210 496 198 484 l 198 422 b 223 397 198 408 210 397 l 273 397 b 298 422 286 397 298 408 z m 298 670 b 273 694 298 683 286 694 l 223 694 b 198 670 210 694 198 683 l 198 620 b 223 595 198 607 210 595 l 273 595 b 298 620 286 595 298 607 z m 1190 273 b 1166 298 1190 286 1179 298 l 422 298 b 397 273 408 298 397 286 l 397 223 b 422 198 397 210 408 198 l 1166 198 b 1190 223 1179 198 1190 210 z m 1190 471 b 1166 496 1190 484 1179 496 l 422 496 b 397 471 408 496 397 484 l 397 422 b 422 397 397 408 408 397 l 1166 397 b 1190 422 1179 397 1190 408 z m 1190 670 b 1166 694 1190 683 1179 694 l 422 694 b 397 670 408 694 397 683 l 397 620 b 422 595 397 607 408 595 l 1166 595 b 1190 620 1179 595 1190 607 z m 1290 124 b 1265 99 1290 111 1278 99 l 124 99 b 99 124 111 99 99 111 l 99 769 b 124 794 99 782 111 794 l 1265 794 b 1290 769 1278 794 1290 782 l 1290 124 z m 1389 967 b 1265 1091 1389 1035 1333 1091 l 124 1091 b 0 967 56 1091 0 1035 l 0 124 b 124 0 0 56 56 0 l 1265 0 b 1389 124 1333 0 1389 56 z "},"":{"ha":893,"x_min":0,"x_max":0,"o":"m 248 595 l 248 744 b 446 942 248 853 337 942 b 645 744 556 942 645 853 l 645 595 z m 893 521 b 818 595 893 562 860 595 l 794 595 l 794 744 b 446 1091 794 935 637 1091 b 99 744 256 1091 99 935 l 99 595 l 74 595 b 0 521 33 595 0 562 l 0 74 b 74 0 0 33 33 0 l 818 0 b 893 74 860 0 893 33 z "},"":{"ha":1389,"x_min":0,"x_max":0,"o":"m 248 992 b 149 1091 248 1047 204 1091 b 50 992 94 1091 50 1047 b 99 907 50 956 69 925 l 99 -74 b 124 -99 99 -88 111 -99 l 174 -99 b 198 -74 187 -99 198 -88 l 198 907 b 248 992 229 925 248 956 z m 1389 942 b 1339 992 1389 970 1366 992 b 1053 887 1305 992 1174 887 b 984 901 1028 887 1006 891 b 660 992 877 952 781 992 b 333 899 550 992 431 949 b 272 866 313 889 291 878 b 248 823 257 855 248 842 l 248 248 b 298 198 248 221 270 198 b 323 205 307 198 315 201 b 683 319 430 263 560 319 b 1063 210 852 319 920 210 b 1349 300 1164 210 1261 253 b 1389 351 1371 312 1389 322 z "},"":{"ha":1290,"x_min":0,"x_max":0,"o":"m 1290 504 b 645 1091 1290 822 994 1091 b 0 504 295 1091 0 822 b 47 260 0 419 16 337 l 62 222 l 205 197 b 397 50 228 112 305 50 l 397 25 b 422 0 397 11 408 0 l 471 0 b 496 25 485 0 496 11 l 496 471 b 471 496 496 485 485 496 l 422 496 b 397 471 408 496 397 485 l 397 446 b 224 345 322 446 258 405 l 171 354 b 149 504 157 402 149 452 b 645 942 149 738 381 942 b 1141 504 909 942 1141 738 b 1118 354 1141 452 1133 402 l 1066 345 b 893 446 1032 405 967 446 l 893 471 b 868 496 893 485 882 496 l 818 496 b 794 471 805 496 794 485 l 794 25 b 818 0 794 11 805 0 l 868 0 b 893 25 882 0 893 11 l 893 50 b 1084 197 985 50 1062 112 l 1228 222 l 1243 260 b 1290 504 1274 337 1290 419 z "},"":{"ha":595,"x_min":0,"x_max":0,"o":"m 595 918 b 546 967 595 945 573 967 b 511 953 532 967 520 962 l 253 694 l 50 694 b 0 645 22 694 0 672 l 0 347 b 50 298 0 320 22 298 l 253 298 l 511 40 b 546 25 520 30 532 25 b 595 74 573 25 595 47 z "},"":{"ha":893,"x_min":0,"x_max":0,"o":"m 595 918 b 546 967 595 945 573 967 b 511 953 532 967 520 962 l 253 694 l 50 694 b 0 645 22 694 0 672 l 0 347 b 50 298 0 320 22 298 l 253 298 l 511 40 b 546 25 520 30 532 25 b 595 74 573 25 595 47 z m 893 496 b 773 678 893 574 846 649 b 753 682 767 681 760 682 b 704 632 726 682 704 660 b 794 496 704 574 794 590 b 704 360 794 402 704 419 b 753 310 704 332 726 310 b 773 314 760 310 767 311 b 893 496 846 343 893 419 z "},"":{"ha":1290,"x_min":0,"x_max":0,"o":"m 595 918 b 546 967 595 945 573 967 b 511 953 532 967 520 962 l 253 694 l 50 694 b 0 645 22 694 0 672 l 0 347 b 50 298 0 320 22 298 l 253 298 l 511 40 b 546 25 520 30 532 25 b 595 74 573 25 595 47 z m 893 496 b 773 678 893 574 846 649 b 753 682 767 681 760 682 b 704 632 726 682 704 660 b 794 496 704 574 794 590 b 704 360 794 402 704 419 b 753 310 704 332 726 310 b 773 314 760 310 767 311 b 893 496 846 343 893 419 z m 1091 496 b 851 861 1091 653 997 800 b 831 865 845 863 838 865 b 781 815 804 865 781 842 b 811 770 781 794 794 779 b 870 736 832 759 852 749 b 992 496 947 680 992 591 b 870 257 992 401 947 312 b 811 222 852 243 832 233 b 781 177 794 213 781 198 b 832 127 781 150 804 127 b 851 131 838 127 845 129 b 1091 496 997 192 1091 339 z m 1290 496 b 929 1043 1290 734 1148 949 b 909 1047 923 1046 916 1047 b 860 997 882 1047 860 1025 b 890 952 860 975 871 963 b 925 935 901 946 913 942 b 988 896 946 924 968 911 b 1190 496 1115 802 1190 654 b 988 96 1190 338 1115 190 b 925 57 968 81 946 68 b 890 40 913 50 901 47 b 860 -5 871 29 860 17 b 909 -55 860 -33 882 -55 b 929 -51 916 -55 923 -53 b 1290 496 1148 43 1290 258 z "},"":{"ha":1091,"x_min":0,"x_max":0,"o":"m 298 298 l 198 298 l 198 198 l 298 198 z m 298 893 l 198 893 l 198 794 l 298 794 z m 893 893 l 794 893 l 794 794 l 893 794 z m 99 100 l 99 397 l 397 397 l 397 100 z m 99 694 l 99 992 l 397 992 l 397 694 z m 694 694 l 694 992 l 992 992 l 992 694 z m 496 496 l 0 496 l 0 0 l 496 0 z m 893 99 l 794 99 l 794 0 l 893 0 z m 1091 99 l 992 99 l 992 0 l 1091 0 z m 1091 496 l 992 496 l 992 397 l 893 397 l 893 496 l 595 496 l 595 0 l 694 0 l 694 298 l 794 298 l 794 198 l 1091 198 z m 496 1091 l 0 1091 l 0 595 l 496 595 z m 1091 1091 l 595 1091 l 595 595 l 1091 595 z "},"":{"ha":1389,"x_min":0,"x_max":0,"o":"m 49 0 b 49 1091 49 365 49 729 b 0 1091 33 1091 16 1091 b 0 0 0 728 0 363 b 49 0 16 0 32 0 z m 98 1 b 98 1091 98 365 98 729 b 73 1091 89 1091 81 1091 b 73 1 73 728 73 364 b 98 1 82 1 89 1 z m 171 1 b 171 1091 171 365 171 729 b 146 1091 163 1091 154 1091 b 146 1 146 728 146 364 b 171 1 155 1 163 1 z m 292 1 b 292 1091 292 365 292 729 b 268 1091 284 1091 276 1091 b 268 1 268 728 268 364 b 292 1 277 1 284 1 z m 414 1 b 414 1091 414 365 414 729 b 366 1091 398 1091 382 1091 b 366 1 366 728 366 364 b 414 1 383 1 398 1 z m 512 1 b 512 1091 512 365 512 729 b 488 1091 504 1091 495 1091 b 488 1 488 728 488 364 b 512 1 496 1 504 1 z m 560 1 b 560 1091 560 365 560 729 b 536 1091 553 1091 544 1091 b 536 1 536 728 536 364 b 560 1 545 1 553 1 z m 609 1 b 609 1091 609 365 609 729 b 585 1091 601 1091 593 1091 b 585 1 585 728 585 364 b 609 1 594 1 601 1 z m 731 1 b 731 1091 731 365 731 729 b 682 1091 715 1091 698 1091 b 682 1 682 728 682 364 b 731 1 700 1 715 1 z m 853 1 b 853 1091 853 365 853 729 b 804 1091 836 1091 820 1091 b 804 1 804 728 804 364 b 853 1 822 1 837 1 z m 950 1 b 950 1091 950 365 950 729 b 901 1091 934 1091 918 1091 b 901 1 901 728 901 364 b 950 1 918 1 934 1 z m 1048 1 b 1048 1091 1048 365 1048 729 b 999 1091 1032 1091 1015 1091 b 999 1 999 728 999 364 b 1048 1 1016 1 1032 1 z m 1121 1 b 1121 1091 1121 365 1121 729 b 1072 1091 1104 1091 1088 1091 b 1072 1 1072 728 1072 364 b 1121 1 1090 1 1104 1 z m 1267 1 b 1267 1091 1267 365 1267 729 b 1194 1091 1242 1091 1218 1091 b 1194 1 1194 728 1194 364 b 1267 1 1219 1 1243 1 z m 1316 1 b 1316 1091 1316 365 1316 729 b 1291 1091 1308 1091 1300 1091 b 1291 1 1291 728 1291 364 b 1316 1 1301 1 1308 1 z m 1389 0 b 1389 1091 1389 363 1389 728 b 1340 1091 1373 1091 1356 1091 b 1340 0 1340 728 1340 364 b 1389 0 1358 0 1373 0 z "},"":{"ha":1190,"x_min":0,"x_max":0,"o":"m 347 843 b 248 744 347 788 303 744 b 149 843 193 744 149 788 b 248 942 149 898 193 942 b 347 843 303 942 347 898 z m 1174 397 b 1146 467 1174 423 1163 449 l 591 1021 b 422 1091 552 1060 477 1091 l 99 1091 b 0 992 45 1091 0 1046 l 0 670 b 71 501 0 615 31 539 l 625 -54 b 694 -83 643 -72 668 -83 b 765 -54 721 -83 746 -72 l 1146 327 b 1174 397 1163 345 1174 370 z "},"":{"ha":1488,"x_min":0,"x_max":0,"o":"m 347 843 b 248 744 347 788 303 744 b 149 843 193 744 149 788 b 248 942 149 898 193 942 b 347 843 303 942 347 898 z m 1174 397 b 1146 467 1174 423 1163 449 l 591 1021 b 422 1091 552 1060 477 1091 l 99 1091 b 0 992 45 1091 0 1046 l 0 670 b 71 501 0 615 31 539 l 625 -54 b 694 -83 643 -72 668 -83 b 765 -54 721 -83 746 -72 l 1146 327 b 1174 397 1163 345 1174 370 z m 1472 397 b 1443 467 1472 423 1461 449 l 889 1021 b 719 1091 849 1060 774 1091 l 546 1091 b 715 1021 601 1091 676 1060 l 1270 467 b 1298 397 1287 449 1298 423 b 1270 327 1298 370 1287 345 l 905 -37 b 992 -83 932 -64 952 -83 b 1063 -54 1018 -83 1044 -72 l 1443 327 b 1472 397 1461 345 1472 370 z "},"":{"ha":1290,"x_min":0,"x_max":0,"o":"m 1270 820 b 1225 853 1259 836 1242 846 b 1221 809 1225 839 1225 824 l 988 44 b 918 0 980 16 946 0 l 202 0 b 91 54 160 0 106 9 b 91 88 84 71 85 78 b 121 99 98 97 111 99 l 794 99 b 949 245 893 99 913 126 l 1162 947 b 1148 1048 1173 984 1168 1020 b 1059 1091 1128 1075 1096 1091 l 470 1091 b 430 1084 457 1091 443 1087 l 431 1087 b 294 960 332 1115 326 1008 b 260 912 281 942 263 927 b 264 872 257 898 265 885 b 209 732 259 831 228 757 b 175 691 198 716 181 708 b 177 644 171 678 178 660 b 125 503 173 608 146 539 b 98 463 117 489 102 478 b 98 419 95 450 102 433 b 40 277 90 378 64 315 b 9 224 28 256 12 243 b 13 192 7 215 14 205 b 8 143 12 174 9 158 b 9 44 -3 113 -3 79 b 202 -99 38 -36 122 -99 l 917 -99 b 1071 18 984 -99 1052 -48 l 1284 720 b 1270 820 1295 756 1290 792 z m 446 818 l 462 868 b 494 893 467 882 481 893 l 966 893 b 983 868 980 893 987 882 l 966 818 b 934 794 962 805 947 794 l 463 794 b 446 818 449 794 441 805 z m 381 620 l 398 670 b 430 694 402 684 417 694 l 901 694 b 918 670 915 694 923 684 l 902 620 b 870 595 898 606 883 595 l 398 595 b 381 620 384 595 377 606 z "},"":{"ha":992,"x_min":0,"x_max":0,"o":"m 902 1091 b 90 1091 878 1091 114 1091 b 56 1084 78 1091 67 1089 b 0 1004 22 1071 0 1039 l 0 5 b 56 -74 0 -29 22 -61 b 90 -81 67 -79 78 -81 b 154 -56 114 -81 136 -72 l 496 273 l 838 -56 b 902 -81 856 -72 878 -81 b 936 -74 914 -81 925 -79 b 992 5 970 -61 992 -29 l 992 1004 b 936 1084 992 1039 970 1071 b 902 1091 925 1089 914 1091 z "},"":{"ha":1290,"x_min":0,"x_max":0,"o":"m 298 0 l 298 198 l 992 198 l 992 0 z m 298 496 l 298 992 l 794 992 l 794 868 b 868 794 794 827 827 794 l 992 794 l 992 496 z m 1190 446 b 1141 397 1190 419 1168 397 b 1091 446 1114 397 1091 419 b 1141 496 1091 474 1114 496 b 1190 446 1168 496 1190 474 z m 1290 446 b 1141 595 1290 528 1222 595 l 1091 595 l 1091 794 b 1039 921 1091 835 1068 891 l 921 1039 b 794 1091 891 1068 835 1091 l 273 1091 b 198 1017 232 1091 198 1058 l 198 595 l 149 595 b 0 446 67 595 0 528 l 0 124 b 25 99 0 111 12 99 l 198 99 l 198 -25 b 273 -99 198 -66 232 -99 l 1017 -99 b 1091 -25 1058 -99 1091 -66 l 1091 99 l 1265 99 b 1290 124 1278 99 1290 111 z "},"":{"ha":1488,"x_min":0,"x_max":0,"o":"m 744 670 b 521 446 621 670 521 570 b 744 223 521 323 621 223 b 967 446 867 223 967 323 b 744 670 967 570 867 670 z m 1290 992 l 1116 992 l 1077 1097 b 942 1190 1057 1149 997 1190 l 546 1190 b 412 1097 491 1190 431 1149 l 372 992 l 198 992 b 0 794 89 992 0 903 l 0 99 b 198 -99 0 -10 89 -99 l 1290 -99 b 1488 99 1399 -99 1488 -10 l 1488 794 b 1290 992 1488 903 1399 992 z m 744 99 b 397 446 553 99 397 255 b 744 794 397 638 553 794 b 1091 446 935 794 1091 638 b 744 99 1091 255 935 99 z "},"":{"ha":1290,"x_min":0,"x_max":0,"o":"m 562 757 b 705 407 617 645 664 525 b 660 405 690 406 675 405 b 430 408 584 405 507 408 z m 0 -99 b 146 -88 49 -99 97 -97 b 183 -82 157 -87 172 -82 b 453 -98 273 -82 363 -98 b 455 -77 454 -91 455 -84 b 454 -32 455 -61 455 -47 b 296 36 410 -26 296 -23 b 395 314 296 66 374 269 l 743 312 b 856 22 756 281 856 50 b 794 -16 856 -6 815 -12 l 692 -38 b 689 -98 690 -58 689 -78 b 994 -87 791 -95 892 -87 b 1289 -99 1092 -87 1190 -99 b 1290 -79 1289 -92 1290 -86 b 1285 -35 1290 -64 1287 -50 b 1152 4 1249 -21 1177 -16 b 1125 48 1141 12 1130 36 b 1024 291 1086 127 1059 210 b 853 703 965 427 911 566 l 694 1075 b 686 1091 692 1080 689 1086 l 645 1091 l 587 1091 l 370 530 l 186 53 b 2 -38 153 -31 74 -16 l 0 -99 z "},"":{"ha":1091,"x_min":0,"x_max":0,"o":"m 430 12 b 419 255 412 57 419 202 b 419 501 419 336 419 419 b 498 508 441 508 474 508 b 798 386 622 508 726 502 b 830 246 824 345 830 295 b 539 -13 830 57 715 -13 b 430 12 501 -13 464 -3 z m 419 590 b 419 643 419 608 419 625 b 419 767 419 684 419 725 b 413 1001 419 845 413 923 b 514 1011 446 1007 480 1011 b 777 808 643 1011 777 960 b 504 584 777 629 663 584 b 419 590 476 584 447 585 z m 0 -99 b 417 -81 138 -94 278 -81 b 622 -86 485 -81 553 -86 b 1091 269 849 -86 1091 2 b 813 565 1091 432 960 532 b 1028 805 922 615 1028 667 b 660 1090 1028 1007 835 1090 b 554 1091 625 1090 589 1091 b 2 1075 370 1091 186 1078 l 5 1011 b 156 980 30 1008 144 1002 b 173 185 174 943 173 202 b 150 7 173 133 177 53 b 2 -26 102 -13 51 -14 l 0 -99 z "},"":{"ha":794,"x_min":0,"x_max":0,"o":"m 0 -98 b 205 -82 68 -94 136 -82 b 364 -84 257 -82 311 -83 b 498 -99 408 -84 454 -99 b 549 -97 515 -99 532 -97 b 561 -20 555 -71 560 -46 b 418 4 513 -12 465 -7 l 417 18 b 460 242 414 50 452 205 b 587 842 501 441 550 642 b 616 974 595 887 599 932 b 779 1022 669 995 725 1004 b 794 1091 785 1045 791 1068 b 547 1079 711 1087 629 1079 b 245 1091 446 1079 345 1087 l 230 1011 b 371 987 277 1004 329 1010 l 371 967 b 195 92 374 905 205 145 b 163 14 189 65 181 36 b 13 -32 116 -10 63 -16 l 0 -98 z "},"":{"ha":1389,"x_min":0,"x_max":0,"o":"m 1352 99 l 1290 99 l 1290 893 l 1352 893 b 1376 942 1386 893 1397 915 l 1278 1067 b 1202 1067 1257 1094 1223 1094 l 1104 942 b 1128 893 1084 915 1094 893 l 1190 893 l 1190 99 l 1128 99 b 1104 50 1094 99 1084 78 l 1202 -75 b 1278 -75 1223 -102 1257 -102 l 1376 50 b 1352 99 1397 78 1386 99 z m 63 1090 l 0 1090 l 0 793 b 43 759 10 780 29 767 b 127 942 90 762 90 917 b 261 972 150 959 233 972 b 387 963 274 972 376 974 b 393 882 396 952 393 896 l 393 791 b 398 322 393 635 398 478 b 383 25 398 273 400 63 b 198 -52 334 -4 228 -5 l 198 -59 b 201 -99 198 -72 200 -86 b 436 -85 279 -99 357 -85 b 765 -99 546 -85 655 -102 l 791 -98 b 794 -76 793 -91 794 -83 b 790 -37 794 -63 791 -50 b 601 25 729 -10 660 -5 b 593 205 584 82 593 145 b 590 858 593 422 591 640 b 596 963 589 893 592 929 b 810 969 666 972 739 969 b 868 953 834 969 852 973 b 894 831 870 951 888 846 b 935 732 905 797 918 763 b 988 746 953 734 971 739 b 992 830 993 773 992 803 b 991 1090 992 917 992 1004 b 969 1091 984 1090 976 1091 l 936 1090 b 867 1068 915 1061 898 1068 l 639 1068 b 473 1069 584 1068 529 1069 b 268 1066 405 1069 336 1066 b 105 1070 252 1066 110 1067 z "},"":{"ha":1190,"x_min":0,"x_max":0,"o":"m 63 1090 l 0 1090 l 0 793 b 43 759 10 780 29 767 b 127 942 90 763 91 918 b 360 972 146 955 328 972 b 486 963 374 972 475 974 b 492 736 498 949 492 767 b 496 701 492 724 496 712 b 482 223 496 633 501 267 b 298 146 433 195 327 194 l 298 140 b 300 99 298 126 299 112 b 535 113 378 99 457 113 b 864 99 646 113 754 96 l 891 100 b 893 122 892 108 893 115 b 889 161 893 136 891 149 b 700 223 829 188 759 193 b 692 403 683 281 692 343 b 690 780 692 529 691 654 l 690 740 l 689 858 b 695 963 688 893 691 929 b 994 969 789 974 899 969 b 1046 967 1002 969 1039 970 b 1066 953 1054 964 1061 960 b 1092 831 1067 951 1087 846 b 1134 732 1104 797 1116 763 b 1187 746 1152 734 1170 739 b 1190 830 1191 773 1190 802 b 1189 1090 1190 917 1190 1004 b 1167 1091 1182 1090 1174 1091 l 1135 1090 b 1091 1066 1125 1077 1108 1066 b 473 1069 886 1073 678 1069 b 268 1066 405 1069 336 1066 b 105 1070 252 1066 110 1067 z m 1015 97 b 992 0 980 97 992 14 l 198 0 b 175 97 198 14 211 97 b 24 -12 148 97 45 5 b 4 -50 12 -21 4 -34 b 24 -88 4 -65 12 -78 b 175 -196 45 -104 148 -196 b 198 -99 211 -196 198 -113 l 992 -99 b 1015 -196 992 -113 980 -196 b 1166 -88 1042 -196 1146 -104 b 1187 -50 1178 -78 1187 -65 b 1166 -12 1187 -34 1178 -21 b 1015 97 1146 5 1042 97 z "},"":{"ha":1389,"x_min":0,"x_max":0,"o":"m 1389 149 b 1339 198 1389 176 1366 198 l 50 198 b 0 149 22 198 0 176 l 0 50 b 50 0 0 22 22 0 l 1339 0 b 1389 50 1366 0 1389 22 z m 1091 446 b 1042 496 1091 474 1069 496 l 50 496 b 0 446 22 496 0 474 l 0 347 b 50 298 0 320 22 298 l 1042 298 b 1091 347 1069 298 1091 320 z m 1290 744 b 1240 794 1290 771 1267 794 l 50 794 b 0 744 22 794 0 771 l 0 645 b 50 595 0 618 22 595 l 1240 595 b 1290 645 1267 595 1290 618 z m 992 1042 b 942 1091 992 1069 970 1091 l 50 1091 b 0 1042 22 1091 0 1069 l 0 942 b 50 893 0 915 22 893 l 942 893 b 992 942 970 893 992 915 z "},"":{"ha":1389,"x_min":0,"x_max":0,"o":"m 1389 149 b 1339 198 1389 176 1366 198 l 50 198 b 0 149 22 198 0 176 l 0 50 b 50 0 0 22 22 0 l 1339 0 b 1389 50 1366 0 1389 22 z m 1091 446 b 1042 496 1091 474 1069 496 l 347 496 b 298 446 320 496 298 474 l 298 347 b 347 298 298 320 320 298 l 1042 298 b 1091 347 1069 298 1091 320 z m 1290 744 b 1240 794 1290 771 1267 794 l 149 794 b 99 744 122 794 99 771 l 99 645 b 149 595 99 618 122 595 l 1240 595 b 1290 645 1267 595 1290 618 z m 992 1042 b 942 1091 992 1069 970 1091 l 446 1091 b 397 1042 419 1091 397 1069 l 397 942 b 446 893 397 915 419 893 l 942 893 b 992 942 970 893 992 915 z "},"":{"ha":1389,"x_min":0,"x_max":0,"o":"m 1389 149 b 1339 198 1389 176 1366 198 l 50 198 b 0 149 22 198 0 176 l 0 50 b 50 0 0 22 22 0 l 1339 0 b 1389 50 1366 0 1389 22 z m 1389 446 b 1339 496 1389 474 1366 496 l 347 496 b 298 446 320 496 298 474 l 298 347 b 347 298 298 320 320 298 l 1339 298 b 1389 347 1366 298 1389 320 z m 1389 744 b 1339 794 1389 771 1366 794 l 149 794 b 99 744 122 794 99 771 l 99 645 b 149 595 99 618 122 595 l 1339 595 b 1389 645 1366 595 1389 618 z m 1389 1042 b 1339 1091 1389 1069 1366 1091 l 446 1091 b 397 1042 419 1091 397 1069 l 397 942 b 446 893 397 915 419 893 l 1339 893 b 1389 942 1366 893 1389 915 z "},"":{"ha":1389,"x_min":0,"x_max":0,"o":"m 1389 149 b 1339 198 1389 176 1366 198 l 50 198 b 0 149 22 198 0 176 l 0 50 b 50 0 0 22 22 0 l 1339 0 b 1389 50 1366 0 1389 22 z m 1389 446 b 1339 496 1389 474 1366 496 l 50 496 b 0 446 22 496 0 474 l 0 347 b 50 298 0 320 22 298 l 1339 298 b 1389 347 1366 298 1389 320 z m 1389 744 b 1339 794 1389 771 1366 794 l 50 794 b 0 744 22 794 0 771 l 0 645 b 50 595 0 618 22 595 l 1339 595 b 1389 645 1366 595 1389 618 z m 1389 1042 b 1339 1091 1389 1069 1366 1091 l 50 1091 b 0 1042 22 1091 0 1069 l 0 942 b 50 893 0 915 22 893 l 1339 893 b 1389 942 1366 893 1389 915 z "},"":{"ha":1389,"x_min":0,"x_max":0,"o":"m 198 174 b 174 198 198 187 187 198 l 25 198 b 0 174 12 198 0 187 l 0 25 b 25 0 0 12 12 0 l 174 0 b 198 25 187 0 198 12 z m 198 471 b 174 496 198 484 187 496 l 25 496 b 0 471 12 496 0 484 l 0 322 b 25 298 0 309 12 298 l 174 298 b 198 322 187 298 198 309 z m 198 769 b 174 794 198 782 187 794 l 25 794 b 0 769 12 794 0 782 l 0 620 b 25 595 0 607 12 595 l 174 595 b 198 620 187 595 198 607 z m 1389 174 b 1364 198 1389 187 1377 198 l 322 198 b 298 174 309 198 298 187 l 298 25 b 322 0 298 12 309 0 l 1364 0 b 1389 25 1377 0 1389 12 z m 198 1066 b 174 1091 198 1080 187 1091 l 25 1091 b 0 1066 12 1091 0 1080 l 0 918 b 25 893 0 904 12 893 l 174 893 b 198 918 187 893 198 904 z m 1389 471 b 1364 496 1389 484 1377 496 l 322 496 b 298 471 309 496 298 484 l 298 322 b 322 298 298 309 309 298 l 1364 298 b 1389 322 1377 298 1389 309 z m 1389 769 b 1364 794 1389 782 1377 794 l 322 794 b 298 769 309 794 298 782 l 298 620 b 322 595 298 607 309 595 l 1364 595 b 1389 620 1377 595 1389 607 z m 1389 1066 b 1364 1091 1389 1080 1377 1091 l 322 1091 b 298 1066 309 1091 298 1080 l 298 918 b 322 893 298 904 309 893 l 1364 893 b 1389 918 1377 893 1389 904 z "},"":{"ha":1389,"x_min":0,"x_max":0,"o":"m 298 769 b 273 794 298 782 286 794 b 255 787 267 794 260 791 l 32 563 b 25 546 27 559 25 552 b 32 528 25 539 27 532 l 255 305 b 273 298 260 300 267 298 b 298 322 286 298 298 309 z m 1389 174 b 1364 198 1389 187 1377 198 l 25 198 b 0 174 12 198 0 187 l 0 25 b 25 0 0 12 12 0 l 1364 0 b 1389 25 1377 0 1389 12 z m 1389 471 b 1364 496 1389 484 1377 496 l 521 496 b 496 471 508 496 496 484 l 496 322 b 521 298 496 309 508 298 l 1364 298 b 1389 322 1377 298 1389 309 z m 1389 769 b 1364 794 1389 782 1377 794 l 521 794 b 496 769 508 794 496 782 l 496 620 b 521 595 496 607 508 595 l 1364 595 b 1389 620 1377 595 1389 607 z m 1389 1066 b 1364 1091 1389 1080 1377 1091 l 25 1091 b 0 1066 12 1091 0 1080 l 0 918 b 25 893 0 904 12 893 l 1364 893 b 1389 918 1377 893 1389 904 z "},"":{"ha":1389,"x_min":0,"x_max":0,"o":"m 273 546 b 266 563 273 552 270 559 l 43 787 b 25 794 38 791 31 794 b 0 769 12 794 0 782 l 0 322 b 25 298 0 309 12 298 b 43 305 31 298 38 300 l 266 528 b 273 546 270 532 273 539 z m 1389 174 b 1364 198 1389 187 1377 198 l 25 198 b 0 174 12 198 0 187 l 0 25 b 25 0 0 12 12 0 l 1364 0 b 1389 25 1377 0 1389 12 z m 1389 471 b 1364 496 1389 484 1377 496 l 521 496 b 496 471 508 496 496 484 l 496 322 b 521 298 496 309 508 298 l 1364 298 b 1389 322 1377 298 1389 309 z m 1389 769 b 1364 794 1389 782 1377 794 l 521 794 b 496 769 508 794 496 782 l 496 620 b 521 595 496 607 508 595 l 1364 595 b 1389 620 1377 595 1389 607 z m 1389 1066 b 1364 1091 1389 1080 1377 1091 l 25 1091 b 0 1066 12 1091 0 1080 l 0 918 b 25 893 0 904 12 893 l 1364 893 b 1389 918 1377 893 1389 904 z "},"":{"ha":1389,"x_min":0,"x_max":0,"o":"m 1389 918 b 1359 963 1389 938 1376 956 b 1339 967 1352 966 1345 967 b 1304 953 1326 967 1314 963 l 992 641 l 992 769 b 769 992 992 892 892 992 l 223 992 b 0 769 100 992 0 892 l 0 223 b 223 0 0 100 100 0 l 769 0 b 992 223 892 0 992 100 l 992 352 l 1304 40 b 1339 25 1314 29 1326 25 b 1359 29 1345 25 1352 26 b 1389 74 1376 36 1389 54 z "},"":{"ha":1488,"x_min":0,"x_max":0,"o":"m 496 744 b 347 893 496 826 429 893 b 198 744 265 893 198 826 b 347 595 198 662 265 595 b 496 744 429 595 496 662 z m 1290 446 l 967 769 l 570 372 l 446 496 l 198 248 l 198 99 l 1290 99 z m 1364 992 b 1389 967 1377 992 1389 980 l 1389 25 b 1364 0 1389 12 1377 0 l 124 0 b 99 25 111 0 99 12 l 99 967 b 124 992 99 980 111 992 l 1364 992 z m 1488 967 b 1364 1091 1488 1035 1432 1091 l 1364 1091 l 124 1091 b 0 967 56 1091 0 1035 l 0 25 b 124 -99 0 -43 56 -99 l 1364 -99 b 1488 25 1432 -99 1488 -43 z "},"":{"ha":1190,"x_min":0,"x_max":0,"o":"m 281 0 l 198 0 l 198 99 l 99 99 l 99 182 l 170 253 l 352 71 z m 687 719 b 681 706 687 715 685 710 l 261 286 b 248 281 257 282 253 281 b 231 298 238 281 231 288 b 236 311 231 302 233 307 l 656 731 b 670 736 660 735 665 736 b 687 719 680 736 687 729 z m 645 868 l 0 223 l 0 -99 l 322 -99 l 967 546 z m 1174 794 b 1146 864 1174 820 1163 846 l 963 1046 b 893 1075 945 1064 919 1075 b 823 1046 867 1075 841 1064 l 694 918 l 1017 595 l 1146 724 b 1174 794 1163 742 1174 767 z "},"":{"ha":794,"x_min":0,"x_max":0,"o":"m 595 694 b 397 496 595 585 506 496 b 198 694 288 496 198 585 b 397 893 198 804 288 893 b 595 694 506 893 595 804 z m 794 694 b 397 1091 794 914 616 1091 b 0 694 177 1091 0 914 b 26 556 0 647 5 598 l 308 -44 b 397 -99 324 -78 360 -99 b 486 -44 434 -99 470 -78 l 768 556 b 794 694 788 598 794 647 z "},"":{"ha":1190,"x_min":0,"x_max":0,"o":"m 595 74 b 174 496 363 74 174 264 b 595 918 174 729 363 918 l 595 74 z m 1190 496 b 595 1091 1190 825 924 1091 b 0 496 267 1091 0 825 b 595 -99 0 167 267 -99 b 1190 496 924 -99 1190 167 z "},"":{"ha":794,"x_min":0,"x_max":0,"o":"m 397 298 b 298 198 397 243 353 198 b 198 298 243 198 198 243 b 214 351 198 317 205 336 b 281 471 224 367 265 419 b 298 484 284 480 291 484 b 314 471 304 484 312 480 b 381 351 330 419 371 367 b 397 298 391 336 397 317 z m 794 397 b 731 610 794 475 770 548 b 463 1091 691 672 525 882 b 397 1141 453 1125 422 1141 b 331 1091 372 1141 341 1125 b 63 610 268 882 102 672 b 0 397 24 548 0 475 b 397 0 0 177 177 0 b 794 397 616 0 794 177 z "},"":{"ha":1389,"x_min":0,"x_max":0,"o":"m 688 273 l 645 273 l 645 347 l 570 347 l 570 391 l 660 481 l 778 363 z m 1029 831 b 1028 805 1036 824 1035 812 l 757 534 b 732 533 750 527 739 526 b 732 559 725 540 725 552 l 1004 830 b 1029 831 1011 837 1022 838 z m 1091 370 b 1076 393 1091 381 1085 389 b 1049 388 1066 397 1056 395 l 999 338 b 992 321 994 333 992 327 l 992 223 b 868 99 992 155 936 99 l 223 99 b 99 223 155 99 99 155 l 99 868 b 223 992 99 936 155 992 l 868 992 b 903 987 880 992 891 991 b 928 994 911 984 921 987 l 966 1032 b 973 1054 972 1038 974 1046 b 959 1072 971 1062 966 1069 b 868 1091 930 1085 899 1091 l 223 1091 b 0 868 100 1091 0 991 l 0 223 b 223 0 0 100 100 0 l 868 0 b 1091 223 991 0 1091 100 z m 1017 942 l 496 422 l 496 198 l 719 198 l 1240 719 z m 1361 840 b 1361 946 1390 869 1390 917 l 1243 1063 b 1138 1063 1215 1092 1166 1092 l 1066 992 l 1290 769 l 1361 840 z "},"":{"ha":1290,"x_min":0,"x_max":0,"o":"m 1091 424 b 1075 446 1091 434 1084 443 b 1048 440 1066 450 1055 447 b 1006 412 1035 429 1022 419 b 992 389 997 407 992 398 l 992 223 b 868 99 992 155 936 99 l 223 99 b 99 223 155 99 99 155 l 99 868 b 223 992 99 936 155 992 l 310 992 b 322 995 315 992 319 994 b 426 1042 352 1013 387 1028 b 446 1066 437 1044 446 1054 b 421 1091 446 1080 434 1091 b 421 1091 421 1091 421 1091 b 421 1091 421 1091 421 1091 l 223 1091 b 0 868 100 1091 0 991 l 0 223 b 223 0 0 100 100 0 l 868 0 b 1091 223 991 0 1091 100 z m 1275 808 b 1275 878 1294 828 1294 859 l 977 1176 b 942 1190 968 1185 956 1190 b 923 1187 936 1190 929 1189 b 893 1141 905 1179 893 1161 l 893 992 l 769 992 b 198 546 264 992 198 753 b 327 208 198 391 322 216 b 347 198 332 202 339 198 b 357 200 350 198 353 199 b 372 226 367 205 374 215 b 429 593 348 405 367 521 b 769 694 490 662 598 694 l 893 694 l 893 546 b 923 500 893 525 905 508 b 942 496 929 498 936 496 b 977 511 956 496 968 501 l 1275 808 z "},"":{"ha":1290,"x_min":0,"x_max":0,"o":"m 1091 470 b 1076 492 1091 480 1085 488 b 1066 494 1073 494 1070 494 b 1049 487 1060 494 1054 492 l 999 437 b 992 420 994 432 992 426 l 992 223 b 868 99 992 155 936 99 l 223 99 b 99 223 155 99 99 155 l 99 868 b 223 992 99 936 155 992 l 868 992 b 903 987 880 992 891 991 b 910 986 905 987 908 986 b 928 994 916 986 923 989 l 966 1032 b 973 1054 972 1038 974 1046 b 959 1072 971 1062 966 1069 b 868 1091 930 1085 899 1091 l 223 1091 b 0 868 100 1091 0 991 l 0 223 b 223 0 0 100 100 0 l 868 0 b 1091 223 991 0 1091 100 z m 1270 849 b 1270 937 1295 873 1295 912 l 1185 1022 b 1097 1022 1160 1047 1121 1047 l 595 521 l 391 725 b 303 725 367 749 328 749 l 218 639 b 218 551 193 615 193 576 l 551 218 b 639 218 576 193 615 193 l 1270 849 z "},"":{"ha":1389,"x_min":0,"x_max":0,"o":"m 1389 496 b 1374 531 1389 509 1383 522 l 1176 729 b 1141 744 1166 739 1154 744 b 1091 694 1114 744 1091 722 l 1091 595 l 794 595 l 794 893 l 893 893 b 942 942 920 893 942 915 b 928 977 942 956 937 968 l 729 1176 b 694 1190 720 1185 708 1190 b 660 1176 681 1190 669 1185 l 461 977 b 446 942 452 968 446 956 b 496 893 446 915 469 893 l 595 893 l 595 595 l 298 595 l 298 694 b 248 744 298 722 275 744 b 213 729 235 744 222 739 l 15 531 b 0 496 5 522 0 509 b 15 461 0 483 5 470 l 213 263 b 248 248 222 253 235 248 b 298 298 275 248 298 270 l 298 397 l 595 397 l 595 99 l 496 99 b 446 50 469 99 446 77 b 461 15 446 36 452 24 l 660 -184 b 694 -198 669 -193 681 -198 b 729 -184 708 -198 720 -193 l 928 15 b 942 50 937 24 942 36 b 893 99 942 77 920 99 l 794 99 l 794 397 l 1091 397 l 1091 298 b 1141 248 1091 270 1114 248 b 1176 263 1154 248 1166 253 l 1374 461 b 1389 496 1383 470 1389 483 z "},"":{"ha":794,"x_min":0,"x_max":0,"o":"m 759 1081 l 208 531 b 198 516 204 526 201 522 l 198 1042 b 149 1091 198 1069 176 1091 l 50 1091 b 0 1042 22 1091 0 1069 l 0 -50 b 50 -99 0 -77 22 -99 l 149 -99 b 198 -50 176 -99 198 -77 l 198 476 b 208 461 201 470 204 466 l 759 -89 b 794 -74 778 -109 794 -102 l 794 1066 b 759 1081 794 1094 778 1101 z "},"":{"ha":1389,"x_min":0,"x_max":0,"o":"m 1354 1081 l 804 531 b 794 516 799 526 796 522 l 794 1066 b 759 1081 794 1094 778 1101 l 208 531 b 198 516 204 526 201 522 l 198 1042 b 149 1091 198 1069 176 1091 l 50 1091 b 0 1042 22 1091 0 1069 l 0 -50 b 50 -99 0 -77 22 -99 l 149 -99 b 198 -50 176 -99 198 -77 l 198 476 b 208 461 201 470 204 466 l 759 -89 b 794 -74 778 -109 794 -102 l 794 476 b 804 461 796 470 799 466 l 1354 -89 b 1389 -74 1373 -109 1389 -102 l 1389 1066 b 1354 1081 1389 1094 1373 1101 z "},"":{"ha":1290,"x_min":0,"x_max":0,"o":"m 1255 1081 l 705 531 b 694 516 700 526 697 522 l 694 1066 b 660 1081 694 1094 679 1101 l 109 531 b 109 461 90 512 90 481 l 660 -89 b 694 -74 679 -109 694 -102 l 694 476 b 705 461 697 470 700 466 l 1255 -89 b 1290 -74 1274 -109 1290 -102 l 1290 1066 b 1255 1081 1290 1094 1274 1101 z "},"":{"ha":1091,"x_min":0,"x_max":0,"o":"m 1073 472 b 1073 520 1097 485 1097 507 l 43 1092 b 0 1066 19 1105 0 1094 l 0 -74 b 43 -100 0 -102 19 -113 z "},"":{"ha":1190,"x_min":0,"x_max":0,"o":"m 1190 1042 b 1141 1091 1190 1069 1168 1091 l 744 1091 b 694 1042 717 1091 694 1069 l 694 -50 b 744 -99 694 -77 717 -99 l 1141 -99 b 1190 -50 1168 -99 1190 -77 z m 496 1042 b 446 1091 496 1069 474 1091 l 50 1091 b 0 1042 22 1091 0 1069 l 0 -50 b 50 -99 0 -77 22 -99 l 446 -99 b 496 -50 474 -99 496 -77 z "},"":{"ha":1190,"x_min":0,"x_max":0,"o":"m 1190 1042 b 1141 1091 1190 1069 1168 1091 l 50 1091 b 0 1042 22 1091 0 1069 l 0 -50 b 50 -99 0 -77 22 -99 l 1141 -99 b 1190 -50 1168 -99 1190 -77 z "},"":{"ha":1290,"x_min":0,"x_max":0,"o":"m 35 -89 l 585 461 b 595 476 590 466 593 470 l 595 -74 b 630 -89 595 -102 611 -109 l 1180 461 b 1180 531 1200 481 1200 512 l 630 1081 b 595 1066 611 1101 595 1094 l 595 516 b 585 531 593 522 590 526 l 35 1081 b 0 1066 16 1101 0 1094 l 0 -74 b 35 -89 0 -102 16 -109 z "},"":{"ha":1389,"x_min":0,"x_max":0,"o":"m 35 -89 l 585 461 b 595 476 590 466 593 470 l 595 -74 b 630 -89 595 -102 611 -109 l 1180 461 b 1190 476 1185 466 1188 470 l 1190 -50 b 1240 -99 1190 -77 1213 -99 l 1339 -99 b 1389 -50 1366 -99 1389 -77 l 1389 1042 b 1339 1091 1389 1069 1366 1091 l 1240 1091 b 1190 1042 1213 1091 1190 1069 l 1190 516 b 1180 531 1188 522 1185 526 l 630 1081 b 595 1066 611 1101 595 1094 l 595 516 b 585 531 593 522 590 526 l 35 1081 b 0 1066 16 1101 0 1094 l 0 -74 b 35 -89 0 -102 16 -109 z "},"":{"ha":794,"x_min":0,"x_max":0,"o":"m 35 -89 l 585 461 b 595 476 590 466 593 470 l 595 -50 b 645 -99 595 -77 618 -99 l 744 -99 b 794 -50 771 -99 794 -77 l 794 1042 b 744 1091 794 1069 771 1091 l 645 1091 b 595 1042 618 1091 595 1069 l 595 516 b 585 531 593 522 590 526 l 35 1081 b 0 1066 16 1101 0 1094 l 0 -74 b 35 -89 0 -102 16 -109 z "},"":{"ha":1192,"x_min":0,"x_max":0,"o":"m 11 432 b 26 397 -9 412 -2 397 l 1166 397 b 1181 432 1194 397 1201 412 l 631 982 b 561 982 612 1001 581 1001 z m 1142 0 b 1191 50 1169 0 1191 22 l 1191 248 b 1142 298 1191 275 1169 298 l 50 298 b 1 248 23 298 1 275 l 1 50 b 50 0 1 22 23 0 z "},"":{"ha":992,"x_min":0,"x_max":0,"o":"m 908 957 b 908 1027 927 977 927 1008 l 779 1156 b 709 1156 760 1175 729 1175 l 134 581 b 134 511 115 561 115 530 l 709 -64 b 779 -64 729 -84 760 -84 l 908 64 b 908 134 927 84 927 115 l 496 546 l 908 957 z "},"":{"ha":992,"x_min":0,"x_max":0,"o":"m 858 511 b 858 581 877 530 877 561 l 283 1156 b 213 1156 264 1175 233 1175 l 84 1027 b 84 957 65 1008 65 977 l 496 546 l 84 134 b 84 64 65 115 65 84 l 213 -64 b 283 -64 233 -84 264 -84 l 858 511 z "},"":{"ha":1190,"x_min":0,"x_max":0,"o":"m 942 446 b 893 397 942 419 920 397 l 694 397 l 694 198 b 645 149 694 171 672 149 l 546 149 b 496 198 519 149 496 171 l 496 397 l 298 397 b 248 446 270 397 248 419 l 248 546 b 298 595 248 573 270 595 l 496 595 l 496 794 b 546 843 496 821 519 843 l 645 843 b 694 794 672 843 694 821 l 694 595 l 893 595 b 942 546 920 595 942 573 l 942 446 z m 1190 496 b 595 1091 1190 825 924 1091 b 0 496 267 1091 0 825 b 595 -99 0 167 267 -99 b 1190 496 924 -99 1190 167 z "},"":{"ha":1190,"x_min":0,"x_max":0,"o":"m 942 446 b 893 397 942 419 920 397 l 298 397 b 248 446 270 397 248 419 l 248 546 b 298 595 248 573 270 595 l 893 595 b 942 546 920 595 942 573 l 942 446 z m 1190 496 b 595 1091 1190 825 924 1091 b 0 496 267 1091 0 825 b 595 -99 0 167 267 -99 b 1190 496 924 -99 1190 167 z "},"":{"ha":1190,"x_min":0,"x_max":0,"o":"m 891 321 b 876 285 891 308 885 295 l 806 215 b 770 201 797 206 784 201 b 736 215 757 201 745 206 l 595 356 l 455 215 b 420 201 446 206 433 201 b 384 215 407 201 394 206 l 315 285 b 300 321 305 295 300 308 b 315 356 300 334 305 346 l 455 496 l 315 636 b 300 671 305 646 300 658 b 315 707 300 684 305 698 l 384 777 b 420 791 394 786 407 791 b 455 777 433 791 446 786 l 595 636 l 736 777 b 770 791 745 786 757 791 b 806 777 784 791 797 786 l 876 707 b 891 671 885 698 891 684 b 876 636 891 658 885 646 l 736 496 l 876 356 b 891 321 885 346 891 334 z m 1190 496 b 595 1091 1190 825 924 1091 b 0 496 267 1091 0 825 b 595 -99 0 167 267 -99 b 1190 496 924 -99 1190 167 z "},"":{"ha":1190,"x_min":0,"x_max":0,"o":"m 995 622 b 981 587 995 608 991 596 l 560 166 b 525 151 551 157 538 151 b 490 166 512 151 499 157 l 209 446 b 195 481 200 456 195 468 b 209 517 195 494 200 508 l 280 587 b 315 601 289 596 301 601 b 350 587 328 601 340 596 l 525 412 l 841 727 b 876 742 850 736 863 742 b 911 727 889 742 901 736 l 981 657 b 995 622 991 648 995 635 z m 1190 496 b 595 1091 1190 825 924 1091 b 0 496 267 1091 0 825 b 595 -99 0 167 267 -99 b 1190 496 924 -99 1190 167 z "},"":{"ha":1190,"x_min":0,"x_max":0,"o":"m 694 124 b 670 99 694 110 684 99 l 521 99 b 496 124 507 99 496 110 l 496 273 b 521 298 496 287 507 298 l 670 298 b 694 273 684 298 694 287 l 694 124 z m 893 645 b 753 449 893 527 812 482 b 694 372 717 428 694 390 l 694 372 b 670 347 694 358 684 347 l 521 347 b 496 372 507 347 496 358 l 496 400 b 626 564 496 475 571 539 b 694 646 674 586 694 606 b 599 712 694 680 649 712 b 532 694 571 712 546 703 b 466 622 518 683 502 669 b 446 613 461 616 453 613 b 432 618 441 613 436 615 l 329 695 b 323 728 319 703 316 717 b 611 893 390 839 484 893 b 893 645 744 893 893 787 z m 1190 496 b 595 1091 1190 825 924 1091 b 0 496 267 1091 0 825 b 595 -99 0 167 267 -99 b 1190 496 924 -99 1190 167 z "},"":{"ha":1190,"x_min":0,"x_max":0,"o":"m 794 124 b 769 99 794 110 783 99 l 422 99 b 397 124 408 99 397 110 l 397 248 b 422 273 397 262 408 273 l 496 273 l 496 521 l 422 521 b 397 546 408 521 397 532 l 397 670 b 422 694 397 684 408 694 l 670 694 b 694 670 684 694 694 684 l 694 273 l 769 273 b 794 248 783 273 794 262 l 794 124 z m 694 818 b 670 794 694 805 684 794 l 521 794 b 496 818 507 794 496 805 l 496 942 b 521 967 496 956 507 967 l 670 967 b 694 942 684 967 694 956 l 694 818 z m 1190 496 b 595 1091 1190 825 924 1091 b 0 496 267 1091 0 825 b 595 -99 0 167 267 -99 b 1190 496 924 -99 1190 167 z "},"":{"ha":1190,"x_min":0,"x_max":0,"o":"m 928 397 b 694 164 894 285 806 197 l 694 248 b 645 298 694 275 672 298 l 546 298 b 496 248 519 298 496 275 l 496 164 b 263 397 384 197 296 285 l 347 397 b 397 446 374 397 397 419 l 397 546 b 347 595 397 573 374 595 l 263 595 b 496 829 296 707 384 795 l 496 744 b 546 694 496 717 519 694 l 645 694 b 694 744 672 694 694 717 l 694 829 b 928 595 806 795 894 707 l 843 595 b 794 546 816 595 794 573 l 794 446 b 843 397 794 419 816 397 l 928 397 z m 1190 546 b 1141 595 1190 573 1168 595 l 1030 595 b 694 931 992 762 861 893 l 694 1042 b 645 1091 694 1069 672 1091 l 546 1091 b 496 1042 519 1091 496 1069 l 496 931 b 160 595 329 893 198 762 l 50 595 b 0 546 22 595 0 573 l 0 446 b 50 397 0 419 22 397 l 160 397 b 496 61 198 230 329 99 l 496 -50 b 546 -99 496 -77 519 -99 l 645 -99 b 694 -50 672 -99 694 -77 l 694 61 b 1030 397 861 99 992 230 l 1141 397 b 1190 446 1168 397 1190 419 z "},"":{"ha":1190,"x_min":0,"x_max":0,"o":"m 850 354 b 850 390 860 364 860 380 l 744 496 l 850 602 b 850 638 860 612 860 628 l 737 751 b 701 751 727 761 711 761 l 595 645 l 489 751 b 453 751 479 761 463 761 l 340 638 b 340 602 330 628 330 612 l 446 496 l 340 390 b 340 354 330 380 330 364 l 453 241 b 489 241 463 231 479 231 l 595 347 l 701 241 b 737 241 711 231 727 231 l 850 354 z m 1017 496 b 595 74 1017 264 828 74 b 174 496 363 74 174 264 b 595 918 174 729 363 918 b 1017 496 828 918 1017 729 z m 1190 496 b 595 1091 1190 825 924 1091 b 0 496 267 1091 0 825 b 595 -99 0 167 267 -99 b 1190 496 924 -99 1190 167 z "},"":{"ha":1190,"x_min":0,"x_max":0,"o":"m 908 560 b 908 630 927 580 927 611 l 829 709 b 759 709 809 729 778 729 l 546 496 l 432 610 b 362 610 412 629 381 629 l 283 531 b 283 461 264 512 264 481 l 511 233 b 581 233 530 214 561 214 l 908 560 z m 1017 496 b 595 74 1017 264 828 74 b 174 496 363 74 174 264 b 595 918 174 729 363 918 b 1017 496 828 918 1017 729 z m 1190 496 b 595 1091 1190 825 924 1091 b 0 496 267 1091 0 825 b 595 -99 0 167 267 -99 b 1190 496 924 -99 1190 167 z "},"":{"ha":1190,"x_min":0,"x_max":0,"o":"m 1017 498 b 595 74 1017 264 828 74 b 365 143 511 74 432 100 l 949 727 b 1017 498 992 661 1017 583 z m 243 267 b 174 498 199 333 174 412 b 595 922 174 732 363 922 b 828 851 681 922 761 896 z m 1190 498 b 595 1095 1190 828 924 1095 b 0 498 267 1095 0 828 b 595 -99 0 168 267 -99 b 1190 498 924 -99 1190 168 z "},"":{"ha":1190,"x_min":0,"x_max":0,"o":"m 1190 496 b 1100 595 1190 549 1156 595 l 554 595 l 781 822 b 811 893 800 841 811 867 b 781 963 811 919 800 945 l 723 1021 b 653 1050 705 1039 680 1050 b 583 1021 627 1050 601 1039 l 78 517 b 50 446 60 498 50 473 b 78 377 50 420 60 395 l 583 -129 b 653 -157 601 -146 627 -157 b 723 -129 680 -157 705 -146 l 781 -70 b 811 0 800 -52 811 -26 b 781 70 811 26 800 52 l 554 298 l 1100 298 b 1190 397 1156 298 1190 344 z "},"":{"ha":1190,"x_min":0,"x_max":0,"o":"m 1141 446 b 1112 516 1141 473 1131 498 l 608 1021 b 537 1050 589 1039 563 1050 b 467 1021 511 1050 486 1039 l 409 963 b 380 893 391 945 380 919 b 409 823 380 867 391 841 l 636 595 l 91 595 b 0 496 35 595 0 549 l 0 397 b 91 298 0 344 35 298 l 636 298 l 409 71 b 380 0 391 52 380 26 b 409 -71 380 -26 391 -52 l 467 -129 b 537 -157 486 -146 511 -157 b 608 -129 563 -157 589 -146 l 1112 376 b 1141 446 1131 395 1141 420 z "},"":{"ha":1290,"x_min":0,"x_max":0,"o":"m 1249 438 b 1220 508 1249 464 1238 490 l 715 1013 b 645 1042 697 1032 671 1042 b 575 1013 618 1042 593 1032 l 71 508 b 41 438 52 490 41 464 b 71 368 41 412 52 387 l 129 310 b 198 281 146 291 172 281 b 268 310 225 281 250 291 l 496 537 l 496 -9 b 595 -99 496 -64 543 -99 l 694 -99 b 794 -9 747 -99 794 -64 l 794 537 l 1022 310 b 1091 281 1039 291 1065 281 b 1162 310 1118 281 1143 291 l 1220 368 b 1249 438 1238 387 1249 412 z "},"":{"ha":1290,"x_min":0,"x_max":0,"o":"m 1249 546 b 1220 616 1249 572 1238 598 l 1162 674 b 1091 703 1143 692 1118 703 b 1022 674 1065 703 1039 692 l 794 446 l 794 992 b 694 1091 794 1046 749 1091 l 595 1091 b 496 992 541 1091 496 1046 l 496 446 l 268 674 b 198 703 250 692 225 703 b 128 674 172 703 146 692 l 71 616 b 41 546 52 598 41 572 b 71 476 41 519 52 494 l 575 -29 b 645 -58 593 -47 618 -58 b 715 -29 671 -58 697 -47 l 1220 476 b 1249 546 1238 494 1249 519 z "},"":{"ha":1389,"x_min":0,"x_max":0,"o":"m 1389 694 b 1374 729 1389 708 1383 720 l 977 1126 b 942 1141 968 1135 956 1141 b 893 1091 915 1141 893 1118 l 893 893 l 719 893 b 41 581 465 893 149 848 b 0 322 9 498 0 409 b 98 -27 0 214 54 72 b 127 -86 107 -45 115 -70 b 149 -99 133 -94 138 -99 b 174 -72 164 -99 174 -87 b 170 -33 174 -60 171 -46 b 166 62 167 -2 166 30 b 719 496 166 432 385 496 l 893 496 l 893 298 b 942 248 893 270 915 248 b 977 263 956 248 968 253 l 1374 660 b 1389 694 1383 669 1389 681 z "},"":{"ha":1190,"x_min":0,"x_max":0,"o":"m 585 372 b 577 390 585 378 582 385 l 489 478 b 471 486 484 483 477 486 b 453 478 465 486 458 483 l 196 221 l 84 332 b 50 347 75 342 63 347 b 0 298 22 347 0 325 l 0 -50 b 50 -99 0 -77 22 -99 l 397 -99 b 446 -50 424 -99 446 -77 b 432 -15 446 -36 441 -24 l 320 97 l 577 354 b 585 372 582 359 585 366 z m 1190 1042 b 1141 1091 1190 1069 1168 1091 l 794 1091 b 744 1042 767 1091 744 1069 b 759 1007 744 1028 749 1016 l 870 895 l 613 638 b 605 620 608 633 605 626 b 613 602 605 614 608 607 l 701 514 b 719 506 706 509 713 506 b 737 514 725 506 732 509 l 994 771 l 1106 660 b 1141 645 1115 650 1128 645 b 1190 694 1168 645 1190 667 z "},"":{"ha":1190,"x_min":0,"x_max":0,"o":"m 595 446 b 546 496 595 474 573 496 l 198 496 b 149 446 171 496 149 474 b 164 412 149 433 154 421 l 275 300 l 18 43 b 10 25 13 38 10 31 b 18 7 10 19 13 12 l 106 -81 b 124 -89 111 -86 118 -89 b 142 -81 130 -89 137 -86 l 399 176 l 511 64 b 546 50 520 55 532 50 b 595 99 573 50 595 72 z m 1180 967 b 1173 985 1180 973 1177 980 l 1084 1073 b 1066 1081 1080 1078 1073 1081 b 1049 1073 1060 1081 1053 1078 l 791 816 l 680 928 b 645 942 670 937 658 942 b 595 893 618 942 595 920 l 595 546 b 645 496 595 519 618 496 l 992 496 b 1042 546 1019 496 1042 519 b 1027 581 1042 559 1036 571 l 915 692 l 1173 949 b 1180 967 1177 954 1180 961 z "},"":{"ha":1190,"x_min":0,"x_max":0,"o":"m 595 1091 b 0 496 267 1091 0 825 b 595 -99 0 167 267 -99 b 1190 496 924 -99 1190 167 b 595 1091 1190 825 924 1091 z m 694 125 b 670 99 694 111 684 99 l 522 99 b 496 125 508 99 496 111 l 496 272 b 522 298 496 286 508 298 l 670 298 b 694 272 684 298 694 286 z m 693 391 b 667 372 692 381 680 372 l 523 372 b 497 391 508 372 497 381 l 484 873 b 491 887 484 878 486 884 b 510 893 496 891 503 893 l 680 893 b 699 887 687 893 694 891 b 707 873 705 884 707 878 z "},"":{"ha":1190,"x_min":0,"x_max":0,"o":"m 719 140 b 670 99 719 112 697 99 l 521 99 b 471 140 494 99 471 112 l 471 183 l 471 546 l 471 694 l 719 694 l 719 546 l 719 183 l 719 140 z m 366 794 b 291 868 325 794 291 827 b 366 942 291 909 325 942 b 419 918 392 942 411 929 l 517 794 z m 899 868 b 825 794 899 827 866 794 l 674 794 l 771 918 b 825 942 780 929 798 942 b 899 868 866 942 899 909 z m 1190 670 b 1166 694 1190 684 1180 694 l 825 694 b 998 868 921 694 998 772 b 825 1042 998 964 921 1042 b 694 982 773 1042 725 1020 l 595 854 l 496 982 b 366 1042 466 1020 418 1042 b 192 868 270 1042 192 964 b 366 694 192 772 270 694 l 25 694 b 0 670 11 694 0 684 l 0 422 b 25 397 0 408 11 397 l 99 397 l 99 74 b 174 0 99 33 133 0 l 1017 0 b 1091 74 1058 0 1091 33 l 1091 397 l 1166 397 b 1190 422 1180 397 1190 408 z "},"":{"ha":1389,"x_min":0,"x_max":0,"o":"m 992 645 b 942 595 992 618 970 595 b 491 419 752 595 632 545 b 382 312 454 384 420 346 b 347 298 372 303 361 298 b 298 347 320 298 298 320 b 312 382 298 361 303 372 b 942 694 491 580 668 694 b 992 645 970 694 992 672 z m 1389 798 b 1273 1091 1389 864 1360 1091 b 1144 1015 1208 1091 1187 1055 b 539 922 1036 913 698 974 b 123 426 319 849 123 673 b 130 346 123 399 126 372 b 153 282 133 330 153 289 b 0 94 153 237 0 174 b 12 60 0 78 5 73 b 97 0 33 24 48 0 b 250 158 164 0 211 158 b 392 97 281 158 355 109 b 614 60 463 73 539 60 b 953 144 732 60 849 91 b 1373 649 1169 251 1324 408 b 1389 798 1383 698 1389 749 z "},"":{"ha":1091,"x_min":0,"x_max":0,"o":"m 1091 -124 b 1066 -99 1091 -111 1080 -99 l 25 -99 b 0 -124 12 -99 0 -111 l 0 -174 b 25 -198 0 -187 12 -198 l 1066 -198 b 1091 -174 1080 -198 1091 -187 z m 893 694 b 496 1190 893 956 710 1092 l 497 1190 l 494 1190 b 546 1017 519 1143 546 1071 b 198 496 546 819 198 793 b 595 0 198 234 381 98 l 594 1 l 598 0 b 546 174 573 47 546 119 b 893 694 546 371 893 398 z "},"":{"ha":1389,"x_min":0,"x_max":0,"o":"m 1290 446 b 694 99 1157 242 943 99 b 99 446 446 99 232 242 b 395 720 173 560 274 658 b 347 546 363 667 347 607 b 694 198 347 354 503 198 b 1042 546 886 198 1042 354 b 994 720 1042 607 1025 667 b 1290 446 1115 658 1216 560 z m 732 744 b 694 707 732 724 715 707 b 533 546 606 707 533 634 b 496 508 533 525 516 508 b 459 546 476 508 459 525 b 694 781 459 675 565 781 b 732 744 715 781 732 764 z m 1389 446 b 1373 500 1389 466 1383 484 b 694 893 1231 734 970 893 b 16 500 419 893 158 734 b 0 446 6 484 0 466 b 16 393 0 427 6 409 b 694 0 158 159 419 0 b 1373 393 970 0 1231 158 b 1389 446 1383 409 1389 427 z "},"":{"ha":1389,"x_min":0,"x_max":0,"o":"m 430 156 b 99 446 294 217 180 322 b 395 720 173 560 274 658 b 347 546 363 667 347 607 b 491 265 347 435 401 330 z m 732 744 b 694 707 732 724 715 707 b 533 546 606 707 533 635 b 496 508 533 525 516 508 b 459 546 476 508 459 525 b 694 781 459 675 565 781 b 732 744 715 781 732 764 z m 1013 892 b 1001 913 1013 901 1008 908 b 898 967 984 922 911 967 b 876 955 888 967 880 963 l 834 880 b 694 893 788 888 741 893 b 16 500 408 893 169 736 b 0 446 5 484 0 465 b 16 393 0 427 5 408 b 381 69 105 253 231 137 b 347 2 374 56 347 14 b 360 -20 347 -8 352 -16 b 463 -74 376 -29 450 -74 b 485 -62 472 -74 481 -70 l 523 7 b 1012 885 687 299 849 593 b 1013 892 1013 887 1013 891 z m 1042 546 b 1035 611 1042 567 1039 589 l 818 222 b 1042 546 953 273 1042 401 z m 1389 446 b 1373 500 1389 467 1383 483 b 1120 761 1313 600 1216 697 l 1071 674 b 1290 446 1159 614 1232 536 b 752 102 1169 259 977 122 l 694 0 b 1289 281 928 0 1137 106 b 1373 393 1319 315 1349 353 b 1389 446 1383 410 1389 426 z "},"":{"ha":1389,"x_min":0,"x_max":0,"o":"m 794 125 b 769 99 794 111 783 99 l 620 99 b 595 125 606 99 595 111 l 595 272 b 620 298 595 286 606 298 l 769 298 b 794 272 783 298 794 286 l 794 125 z m 792 415 b 766 397 791 405 780 397 l 622 397 b 596 415 608 397 596 405 l 583 769 b 591 785 583 773 585 781 b 609 794 595 789 602 794 l 780 794 b 798 785 787 794 794 789 b 806 770 804 781 806 775 z m 781 1139 b 694 1190 764 1170 731 1190 b 608 1139 658 1190 625 1170 l 12 47 b 14 -50 -5 17 -4 -20 b 99 -99 32 -81 64 -99 l 1290 -99 b 1375 -50 1325 -99 1357 -81 b 1376 47 1393 -20 1394 17 z "},"":{"ha":1091,"x_min":0,"x_max":0,"o":"m 1066 1066 b 818 992 1017 1116 893 1066 l 694 868 l 179 991 b 156 985 171 994 162 991 l 57 886 b 50 865 51 880 49 872 b 63 846 51 857 56 850 l 457 630 l 256 429 l 105 470 b 99 471 104 471 102 471 b 81 464 93 471 86 469 l 7 389 b 0 370 2 384 -1 377 b 10 352 1 363 4 356 l 205 205 l 352 10 b 370 0 357 4 363 1 b 372 0 371 0 371 0 b 390 7 378 0 385 2 l 464 81 b 470 105 470 88 473 97 l 429 256 l 630 457 l 846 63 b 863 50 849 56 856 52 b 868 50 865 50 867 50 b 883 54 873 50 879 51 l 982 129 b 991 154 990 135 994 145 l 867 694 l 992 818 b 1066 1066 1066 893 1116 1017 z "},"":{"ha":1290,"x_min":0,"x_max":0,"o":"m 99 -99 l 99 124 l 322 124 l 322 -99 z m 372 -99 l 372 124 l 620 124 l 620 -99 z m 99 174 l 99 422 l 322 422 l 322 174 z m 372 174 l 372 422 l 620 422 l 620 174 z m 99 471 l 99 694 l 322 694 l 322 471 z m 670 -99 l 670 124 l 918 124 l 918 -99 z m 372 471 l 372 694 l 620 694 l 620 471 z m 967 -99 l 967 124 l 1190 124 l 1190 -99 z m 670 174 l 670 422 l 918 422 l 918 174 z m 397 843 b 372 818 397 830 385 818 l 322 818 b 298 843 309 818 298 830 l 298 1066 b 322 1091 298 1080 309 1091 l 372 1091 b 397 1066 385 1091 397 1080 l 397 843 z m 967 174 l 967 422 l 1190 422 l 1190 174 z m 670 471 l 670 694 l 918 694 l 918 471 z m 967 471 l 967 694 l 1190 694 l 1190 471 z m 992 843 b 967 818 992 830 980 818 l 918 818 b 893 843 904 818 893 830 l 893 1066 b 918 1091 893 1080 904 1091 l 967 1091 b 992 1066 980 1091 992 1080 l 992 843 z m 1290 893 b 1190 992 1290 947 1245 992 l 1091 992 l 1091 1066 b 967 1190 1091 1135 1035 1190 l 918 1190 b 794 1066 849 1190 794 1135 l 794 992 l 496 992 l 496 1066 b 372 1190 496 1135 440 1190 l 322 1190 b 198 1066 254 1190 198 1135 l 198 992 l 99 992 b 0 893 45 992 0 947 l 0 -99 b 99 -198 0 -153 45 -198 l 1190 -198 b 1290 -99 1245 -198 1290 -153 z "},"":{"ha":1389,"x_min":0,"x_max":0,"o":"m 516 818 b 198 992 438 928 336 992 l 25 992 b 0 967 11 992 0 981 l 0 818 b 25 794 0 805 11 794 l 198 794 b 410 606 315 794 365 700 b 516 818 441 679 473 751 z m 1389 198 b 1382 216 1389 205 1387 212 l 1135 463 b 1116 471 1129 468 1123 471 b 1091 446 1102 471 1091 460 l 1091 298 l 893 298 b 681 485 776 298 726 391 b 576 274 650 412 618 340 b 1091 99 719 72 861 99 l 1091 -50 b 1116 -74 1091 -63 1103 -74 b 1134 -67 1122 -74 1129 -72 l 1382 181 b 1389 198 1387 185 1389 192 z m 1389 893 b 1382 911 1389 899 1387 906 l 1135 1158 b 1116 1166 1129 1163 1123 1166 b 1091 1141 1102 1166 1091 1155 l 1091 992 l 893 992 b 454 584 641 992 540 784 b 394 452 436 540 416 495 b 198 298 350 368 301 298 l 25 298 b 0 273 11 298 0 287 l 0 124 b 25 99 0 110 11 99 l 198 99 b 637 507 450 99 551 307 b 698 639 656 551 675 596 b 893 794 741 723 790 794 l 1091 794 l 1091 645 b 1116 620 1091 631 1103 620 b 1134 627 1122 620 1129 622 l 1382 875 b 1389 893 1387 880 1389 887 z "},"":{"ha":1389,"x_min":0,"x_max":0,"o":"m 1389 496 b 694 992 1389 770 1078 992 b 0 496 311 992 0 770 b 262 108 0 339 102 198 b 121 -123 226 -22 170 -68 b 100 -168 109 -137 96 -149 b 100 -169 100 -168 100 -168 b 137 -198 104 -188 120 -200 b 226 -181 167 -195 198 -189 b 582 6 360 -147 481 -84 b 694 0 618 2 656 0 b 1389 496 1078 0 1389 222 z "},"":{"ha":1190,"x_min":0,"x_max":0,"o":"m 1190 546 b 1141 595 1190 573 1168 595 l 843 595 b 794 546 816 595 794 573 l 794 446 b 595 298 794 305 629 298 b 397 446 562 298 397 305 l 397 546 b 347 595 397 573 374 595 l 50 595 b 0 546 22 595 0 573 l 0 446 b 595 -99 0 130 250 -99 b 1190 446 940 -99 1190 130 z m 397 1042 b 347 1091 397 1069 374 1091 l 50 1091 b 0 1042 22 1091 0 1069 l 0 744 b 50 694 0 717 22 694 l 347 694 b 397 744 374 694 397 717 z m 1190 1042 b 1141 1091 1190 1069 1168 1091 l 843 1091 b 794 1042 816 1091 794 1069 l 794 744 b 843 694 794 717 816 694 l 1141 694 b 1190 744 1168 694 1190 717 z "},"":{"ha":1389,"x_min":0,"x_max":0,"o":"m 1304 159 b 1304 229 1324 178 1324 210 l 729 804 b 660 804 710 823 679 823 l 84 229 b 84 159 65 210 65 178 l 213 31 b 283 31 233 12 264 12 l 694 443 l 1106 31 b 1176 31 1125 12 1156 12 l 1304 159 z "},"":{"ha":1389,"x_min":0,"x_max":0,"o":"m 1304 564 b 1304 635 1324 584 1324 615 l 1176 763 b 1106 763 1156 782 1125 782 l 694 351 l 283 763 b 213 763 264 782 233 782 l 84 635 b 84 564 65 615 65 584 l 660 -10 b 729 -10 679 -29 710 -29 l 1304 564 z "},"":{"ha":1488,"x_min":0,"x_max":0,"o":"m 992 25 b 987 41 992 30 990 36 l 863 190 b 843 198 858 195 850 198 l 397 198 l 397 496 l 546 496 b 595 546 573 496 595 519 b 584 577 595 557 591 569 l 336 875 b 298 892 326 886 312 892 b 260 875 283 892 269 886 l 12 577 b 0 546 4 569 0 557 b 50 496 0 519 22 496 l 198 496 l 198 174 l 198 50 b 223 0 198 30 195 0 l 967 0 b 992 25 980 0 992 12 z m 1488 347 b 1438 397 1488 374 1466 397 l 1290 397 l 1290 719 l 1290 843 b 1265 893 1290 863 1294 893 l 521 893 b 496 868 508 893 496 881 b 501 853 496 863 498 856 l 625 704 b 645 694 630 698 638 694 l 1091 694 l 1091 397 l 942 397 b 893 347 915 397 893 374 b 904 315 893 336 897 324 l 1152 18 b 1190 0 1162 7 1176 0 b 1228 18 1205 0 1219 7 l 1476 315 b 1488 347 1484 324 1488 336 z "},"":{"ha":1290,"x_min":0,"x_max":0,"o":"m 496 0 b 397 99 496 54 451 99 b 298 0 343 99 298 54 b 397 -99 298 -54 343 -99 b 496 0 451 -99 496 -54 z m 1190 0 b 1091 99 1190 54 1146 99 b 992 0 1037 99 992 54 b 1091 -99 992 -54 1037 -99 b 1190 0 1146 -99 1190 -54 z m 1290 843 b 1240 893 1290 870 1267 893 l 309 893 b 248 992 301 930 300 992 l 50 992 b 0 942 22 992 0 970 b 50 893 0 915 22 893 l 208 893 l 345 255 b 298 149 332 231 298 173 b 347 99 298 122 320 99 l 1141 99 b 1190 149 1168 99 1190 122 b 1141 198 1190 176 1168 198 l 428 198 b 446 248 436 214 446 230 b 436 302 446 267 440 284 l 1246 397 b 1290 446 1270 400 1290 422 z "},"":{"ha":1290,"x_min":0,"x_max":0,"o":"m 1290 719 b 1116 893 1290 815 1211 893 l 595 893 l 595 918 b 422 1091 595 1013 517 1091 l 174 1091 b 0 918 78 1091 0 1013 l 0 174 b 174 0 0 78 78 0 l 1116 0 b 1290 174 1211 0 1290 78 z "},"":{"ha":1488,"x_min":0,"x_max":0,"o":"m 1456 453 b 1389 496 1456 488 1417 496 l 546 496 b 341 401 477 496 386 454 l 81 95 b 57 43 68 81 57 62 b 124 0 57 9 96 0 l 967 0 b 1172 95 1035 0 1127 42 l 1432 401 b 1456 453 1445 415 1456 434 z m 1190 719 b 1017 893 1190 815 1112 893 l 595 893 l 595 918 b 422 1091 595 1013 517 1091 l 174 1091 b 0 918 78 1091 0 1013 l 0 174 b 1 154 0 167 1 160 l 5 159 l 266 466 b 546 595 329 540 449 595 l 1190 595 z "},"":{"ha":595,"x_min":0,"x_max":0,"o":"m 546 942 b 531 977 546 956 540 968 l 332 1176 b 298 1190 323 1185 311 1190 b 263 1176 284 1190 272 1185 l 64 977 b 50 942 55 968 50 956 b 99 893 50 915 72 893 l 198 893 l 198 99 l 99 99 b 50 50 72 99 50 77 b 64 15 50 36 55 24 l 263 -184 b 298 -198 272 -193 284 -198 b 332 -184 311 -198 323 -193 l 531 15 b 546 50 540 24 546 36 b 496 99 546 77 523 99 l 397 99 l 397 893 l 496 893 b 546 942 523 893 546 915 z "},"":{"ha":1389,"x_min":0,"x_max":0,"o":"m 1389 496 b 1374 531 1389 509 1383 522 l 1176 729 b 1141 744 1166 739 1154 744 b 1091 694 1114 744 1091 722 l 1091 595 l 298 595 l 298 694 b 248 744 298 722 275 744 b 213 729 235 744 222 739 l 15 531 b 0 496 5 522 0 509 b 15 461 0 483 5 470 l 213 263 b 248 248 222 253 235 248 b 298 298 275 248 298 270 l 298 397 l 1091 397 l 1091 298 b 1141 248 1091 270 1114 248 b 1176 263 1154 248 1166 253 l 1374 461 b 1389 496 1383 470 1389 483 z "},"":{"ha":1587,"x_min":0,"x_max":0,"o":"m 496 496 l 298 496 l 298 99 l 496 99 z m 794 893 l 595 893 l 595 99 l 794 99 z m 1587 0 l 99 0 l 99 1091 l 0 1091 l 0 -99 l 1587 -99 z m 1091 694 l 893 694 l 893 99 l 1091 99 z m 1389 992 l 1190 992 l 1190 99 l 1389 99 z "},"":{"ha":1190,"x_min":0,"x_max":0,"o":"m 992 718 b 911 633 970 684 942 656 b 911 612 911 626 911 619 b 448 149 911 397 747 149 b 198 222 356 149 270 176 b 237 219 211 220 224 219 b 439 289 314 219 384 246 b 288 402 368 291 308 338 b 318 399 298 401 308 399 b 357 405 332 399 343 401 b 223 565 283 420 223 486 b 223 567 223 566 223 567 b 301 546 248 555 274 547 b 230 682 257 576 230 625 b 253 764 230 711 239 740 b 589 594 333 665 453 601 b 585 631 586 605 585 618 b 748 794 585 721 658 794 b 867 742 794 794 837 774 b 970 782 904 749 939 763 b 898 691 958 744 932 711 b 992 718 932 696 963 705 z m 1190 868 b 967 1091 1190 991 1090 1091 l 223 1091 b 0 868 100 1091 0 991 l 0 124 b 223 -99 0 1 100 -99 l 967 -99 b 1190 124 1090 -99 1190 1 z "},"":{"ha":1190,"x_min":0,"x_max":0,"o":"m 967 1091 l 223 1091 b 0 868 100 1091 0 991 l 0 124 b 223 -99 0 1 100 -99 l 636 -99 l 636 362 l 481 362 l 481 542 l 636 542 l 636 674 b 867 911 636 828 730 911 b 1005 904 932 911 989 907 l 1005 744 l 911 743 b 822 656 836 743 822 708 l 822 542 l 999 542 l 976 362 l 822 362 l 822 -99 l 967 -99 b 1190 124 1090 -99 1190 1 l 1190 868 b 967 1091 1190 991 1090 1091 z "},"":{"ha":1389,"x_min":0,"x_max":0,"o":"m 719 546 b 694 521 719 532 708 521 b 620 446 653 521 620 488 b 595 422 620 432 609 422 b 570 446 581 422 570 432 b 694 570 570 515 626 570 b 719 546 708 570 719 560 z m 893 445 b 694 643 893 554 804 643 b 496 445 585 643 496 554 b 694 246 496 336 585 246 b 893 445 804 246 893 336 z m 99 0 l 99 99 l 1290 99 l 1290 0 z m 992 445 b 694 147 992 281 859 147 b 397 445 530 147 397 281 b 694 742 397 609 530 742 b 992 445 859 742 992 609 z m 198 942 l 198 1042 l 496 1042 l 496 942 z m 99 794 l 99 893 l 598 893 l 648 992 l 1290 992 l 1290 885 l 1290 794 z m 1389 992 b 1290 1091 1389 1047 1345 1091 l 99 1091 b 0 992 44 1091 0 1047 l 0 0 b 99 -99 0 -55 44 -99 l 1290 -99 b 1389 0 1345 -99 1389 -55 z "},"":{"ha":1389,"x_min":0,"x_max":0,"o":"m 645 794 b 496 645 645 711 578 645 b 432 660 474 645 452 650 b 446 595 441 639 446 618 b 298 446 446 513 380 446 b 149 595 215 446 149 513 b 298 744 149 677 215 744 b 362 729 320 744 342 739 b 347 794 353 749 347 771 b 496 942 347 876 414 942 b 645 794 578 942 645 876 z m 1304 248 b 1059 503 1304 270 1088 474 b 1042 511 1055 508 1048 511 b 953 422 1024 511 953 439 b 1042 322 953 401 1025 339 l 967 248 l 692 523 b 794 806 753 605 794 704 b 508 1091 794 975 677 1091 b 0 583 254 1091 0 837 b 285 298 0 415 116 298 b 568 399 388 298 487 339 l 1088 -121 b 1141 -143 1102 -135 1121 -143 b 1234 -50 1184 -143 1234 -93 b 1212 3 1234 -30 1226 -11 l 1042 174 l 1116 248 b 1215 159 1132 232 1195 159 b 1304 248 1233 159 1304 230 z "},"":{"ha":1488,"x_min":0,"x_max":0,"o":"m 694 496 b 496 298 694 387 605 298 b 298 496 387 298 298 387 b 496 694 298 605 387 694 b 694 496 605 694 694 605 z m 1290 99 b 1190 0 1290 45 1246 0 b 1091 99 1136 0 1091 44 b 1190 198 1091 153 1136 198 b 1290 99 1245 198 1290 153 z m 1290 893 b 1190 794 1290 839 1246 794 b 1091 893 1136 794 1091 838 b 1190 992 1091 947 1136 992 b 1290 893 1245 992 1290 947 z m 992 567 b 973 590 992 577 984 587 l 856 608 b 829 671 849 629 839 650 b 897 760 851 701 874 729 b 902 774 900 764 902 769 b 791 898 902 796 811 880 b 774 904 786 902 780 904 b 759 899 769 904 763 903 l 667 830 b 609 854 649 839 629 848 l 591 973 b 568 992 590 984 579 992 l 424 992 b 401 973 413 992 404 984 b 383 854 391 935 387 893 b 323 829 362 847 343 839 l 234 899 b 218 904 229 902 224 904 b 93 790 195 904 109 811 b 88 774 89 785 88 780 b 93 759 88 769 90 763 b 163 670 118 729 141 701 b 138 611 153 650 144 631 l 18 592 b 0 569 8 591 0 579 l 0 426 b 19 403 0 415 8 405 l 136 384 b 164 321 143 363 153 342 b 95 233 141 291 118 262 b 90 218 92 228 90 223 b 202 94 90 195 181 112 b 218 88 206 90 212 88 b 233 93 223 88 229 89 l 325 162 b 383 138 343 153 363 144 l 401 19 b 424 0 402 9 413 0 l 568 0 b 591 19 579 0 588 8 b 609 139 601 57 605 99 b 669 163 630 145 649 153 l 758 93 b 774 88 763 90 768 88 b 899 203 797 88 884 182 b 904 218 903 207 904 212 b 899 233 904 224 902 229 b 829 322 874 263 851 291 b 854 381 839 342 848 361 l 974 400 b 992 423 984 401 992 413 z m 1488 153 b 1373 177 1488 165 1388 176 b 1349 218 1366 191 1359 205 b 1389 325 1356 233 1389 311 b 1386 330 1389 326 1388 329 b 1290 384 1376 336 1294 384 l 1285 383 b 1214 296 1259 357 1235 326 b 1190 298 1206 297 1198 298 b 1167 296 1183 298 1175 297 b 1091 384 1159 308 1101 384 b 995 330 1087 384 1004 335 b 992 325 993 329 992 326 b 1032 218 992 312 1025 233 b 1008 177 1022 205 1015 191 b 893 153 993 176 893 165 l 893 45 b 1008 21 893 33 993 22 b 1032 -19 1015 6 1022 -7 b 992 -126 1025 -35 992 -113 b 995 -132 992 -128 993 -130 b 1091 -187 1004 -137 1087 -187 b 1167 -98 1101 -187 1159 -109 b 1190 -99 1175 -98 1183 -99 b 1214 -98 1198 -99 1206 -98 b 1290 -187 1221 -109 1280 -187 b 1386 -132 1294 -187 1376 -137 b 1389 -126 1388 -130 1389 -129 b 1349 -19 1389 -112 1356 -35 b 1373 21 1359 -7 1366 6 b 1488 45 1388 22 1488 33 z m 1488 947 b 1373 971 1488 959 1388 970 b 1349 1011 1366 985 1359 999 b 1389 1118 1356 1027 1389 1104 b 1386 1124 1389 1120 1388 1122 b 1290 1178 1376 1129 1294 1178 l 1285 1177 b 1214 1090 1259 1150 1235 1120 b 1190 1091 1206 1090 1198 1091 b 1167 1090 1183 1091 1175 1090 b 1091 1178 1159 1101 1101 1178 b 995 1124 1087 1178 1004 1128 b 992 1118 993 1122 992 1120 b 1032 1011 992 1105 1025 1027 b 1008 971 1022 999 1015 985 b 893 947 993 970 893 959 l 893 839 b 1008 815 893 827 993 816 b 1032 774 1015 800 1022 787 b 992 667 1025 759 992 680 b 995 662 992 666 993 663 b 1091 607 1004 656 1087 607 b 1167 696 1101 607 1159 684 b 1190 694 1175 695 1183 694 b 1214 696 1198 694 1206 695 b 1290 607 1221 684 1280 607 b 1386 662 1294 607 1376 656 b 1389 667 1388 663 1389 665 b 1349 774 1389 681 1356 759 b 1373 815 1359 787 1366 800 b 1488 839 1388 816 1488 827 z "},"":{"ha":1389,"x_min":0,"x_max":0,"o":"m 1091 595 b 546 992 1091 815 847 992 b 0 595 244 992 0 815 b 206 284 0 470 81 357 b 115 156 180 220 146 190 b 100 122 107 146 97 136 b 100 122 100 122 100 122 b 125 99 102 109 113 99 b 127 99 126 99 126 99 b 194 112 150 102 173 106 b 409 211 272 132 345 165 b 546 198 453 203 498 198 b 1091 595 847 198 1091 376 z m 1389 397 b 1173 713 1389 526 1304 641 b 1190 595 1184 675 1190 636 b 990 234 1190 457 1119 329 b 546 99 870 147 712 99 b 477 102 523 99 500 101 b 843 0 574 39 703 0 b 980 12 891 0 936 5 b 1195 -87 1044 -33 1117 -67 b 1262 -99 1216 -92 1239 -96 b 1289 -77 1274 -101 1286 -91 b 1289 -77 1289 -77 1289 -77 b 1273 -43 1292 -62 1282 -53 b 1183 86 1243 -9 1209 22 b 1389 397 1308 159 1389 270 z "},"":{"ha":1190,"x_min":0,"x_max":0,"o":"m 198 149 b 149 99 198 122 176 99 b 99 149 122 99 99 122 b 149 198 99 176 122 198 b 198 149 176 198 198 176 z m 1091 595 b 1033 496 1091 567 1070 497 b 1060 416 1049 477 1060 441 b 1019 324 1060 380 1046 349 b 1033 270 1028 308 1033 289 b 983 173 1033 235 1015 191 b 987 129 985 159 987 144 b 838 0 987 35 925 0 l 744 0 b 479 57 653 0 564 27 b 322 99 437 71 366 99 l 298 99 l 298 595 l 322 595 b 511 773 384 595 476 728 b 570 843 530 797 549 821 b 670 1091 646 922 620 1041 b 794 942 776 1091 794 1033 b 719 694 794 851 719 785 l 992 694 b 1091 595 1044 694 1091 648 z m 1190 596 b 992 794 1190 703 1099 794 l 856 794 b 893 942 879 842 893 888 b 866 1087 893 994 890 1039 b 670 1190 828 1162 750 1190 b 600 1162 643 1190 618 1180 b 501 914 522 1086 547 963 b 418 815 471 882 444 849 b 312 694 395 784 342 715 l 99 694 b 0 595 44 694 0 650 l 0 99 b 99 0 0 44 44 0 l 322 0 b 429 -31 344 0 407 -23 b 744 -99 532 -67 634 -99 l 816 -99 l 844 -99 b 1086 133 987 -99 1087 -13 b 1132 271 1116 172 1132 222 b 1130 305 1132 282 1132 294 b 1159 416 1149 339 1159 377 b 1152 470 1159 434 1157 453 b 1190 596 1177 507 1190 551 z "},"":{"ha":1190,"x_min":0,"x_max":0,"o":"m 198 843 b 149 794 198 816 176 794 b 99 843 122 794 99 816 b 149 893 99 870 122 893 b 198 843 176 893 198 870 z m 1091 397 b 992 298 1091 344 1044 298 l 719 298 b 794 50 719 207 794 141 b 670 -99 794 -41 776 -99 b 570 149 620 -49 646 70 b 511 219 549 171 530 195 b 322 397 476 264 384 397 l 298 397 l 298 893 l 322 893 b 479 935 366 893 437 921 b 744 992 564 965 653 992 l 843 992 b 987 863 929 992 987 953 b 983 819 987 848 985 833 b 1033 722 1015 801 1033 757 b 1019 668 1033 703 1028 684 b 1060 576 1046 643 1060 612 b 1033 496 1060 551 1049 515 b 1091 397 1070 495 1091 426 z m 1190 396 b 1152 522 1190 441 1177 485 b 1159 576 1157 539 1159 558 b 1130 687 1159 615 1149 653 b 1132 721 1132 698 1132 710 b 1086 859 1132 770 1116 820 l 1086 863 b 844 1091 1087 1008 985 1091 l 757 1091 b 429 1023 638 1091 541 1062 b 322 992 407 1015 344 992 l 99 992 b 0 893 44 992 0 948 l 0 397 b 99 298 0 342 44 298 l 312 298 b 418 177 342 277 395 208 b 501 79 444 143 471 110 b 600 -170 546 29 522 -94 b 670 -198 618 -188 643 -198 b 866 -95 750 -198 828 -170 b 893 50 890 -48 893 -2 b 856 198 893 104 879 150 l 992 198 b 1190 396 1099 198 1190 289 z "},"":{"ha":694,"x_min":0,"x_max":0,"o":"m 645 1166 l 645 1166 b 607 1134 627 1166 614 1149 l 432 781 l 43 725 b 0 689 24 722 0 712 b 19 652 0 675 10 662 l 301 377 l 235 -10 b 233 -26 234 -16 233 -20 b 266 -64 233 -46 243 -64 b 297 -55 277 -64 287 -60 l 645 128 l 645 128 z "},"":{"ha":1389,"x_min":0,"x_max":0,"o":"m 1290 729 b 1144 453 1290 587 1146 455 l 694 19 l 244 453 b 99 729 243 455 99 587 b 370 992 99 946 246 992 b 656 819 486 992 616 867 b 732 819 675 797 714 797 b 1018 992 773 867 903 992 b 1290 729 1142 992 1290 946 z m 1389 729 b 1018 1091 1389 956 1250 1091 b 694 924 883 1091 756 984 b 370 1091 633 984 506 1091 b 0 729 139 1091 0 956 b 177 381 0 543 171 387 l 660 -85 b 694 -99 670 -95 682 -99 b 729 -85 707 -99 719 -95 l 1211 380 b 1389 729 1218 387 1389 543 z "},"":{"ha":1290,"x_min":0,"x_max":0,"o":"m 496 74 b 446 99 496 103 466 99 l 223 99 b 99 223 155 99 99 155 l 99 769 b 223 893 99 837 155 893 l 471 893 b 496 967 506 893 496 946 b 471 992 496 980 484 992 l 223 992 b 0 769 100 992 0 892 l 0 223 b 223 0 0 100 100 0 l 471 0 b 496 74 506 0 496 53 z m 1215 496 b 1201 531 1215 509 1210 522 l 779 953 b 744 967 770 962 757 967 b 694 918 717 967 694 945 l 694 694 l 347 694 b 298 645 320 694 298 672 l 298 347 b 347 298 298 320 320 298 l 694 298 l 694 74 b 744 25 694 47 717 25 b 779 40 757 25 770 30 l 1201 461 b 1215 496 1210 470 1215 483 z "},"":{"ha":1190,"x_min":0,"x_max":0,"o":"m 184 95 l 184 632 l 363 632 l 363 95 z m 374 798 b 273 705 374 747 336 705 l 273 705 l 272 705 b 173 798 212 705 173 747 b 274 891 173 851 213 891 b 374 798 336 891 374 851 z m 828 95 l 828 382 b 738 504 828 455 802 504 b 646 439 688 504 659 470 b 640 395 641 427 640 411 l 640 95 l 461 95 l 461 95 b 461 632 463 582 461 632 l 640 632 l 640 554 l 639 554 b 801 645 662 591 705 645 b 1007 403 918 645 1007 568 l 1007 95 z m 1190 868 b 967 1091 1190 991 1090 1091 l 223 1091 b 0 868 100 1091 0 991 l 0 124 b 223 -99 0 1 100 -99 l 967 -99 b 1190 124 1090 -99 1190 1 z "},"":{"ha":893,"x_min":0,"x_max":0,"o":"m 372 521 b 347 496 372 507 361 496 b 322 521 333 496 322 507 l 322 868 b 347 893 322 882 333 893 b 372 868 361 893 372 882 l 372 521 z m 893 248 b 694 496 893 375 797 496 l 694 893 b 794 992 749 893 794 938 b 694 1091 794 1046 749 1091 l 198 1091 b 99 992 144 1091 99 1046 b 198 893 99 938 144 893 l 198 496 b 0 248 96 496 0 375 b 50 198 0 221 22 198 l 363 198 l 422 -177 b 446 -198 424 -190 434 -198 b 447 -198 446 -198 447 -198 b 471 -176 460 -198 470 -188 l 511 198 l 843 198 b 893 248 870 198 893 221 z "},"":{"ha":1389,"x_min":0,"x_max":0,"o":"m 1091 471 b 1066 496 1091 485 1080 496 l 1017 496 b 992 471 1003 496 992 485 l 992 223 b 868 99 992 155 936 99 l 223 99 b 99 223 155 99 99 155 l 99 868 b 223 992 99 936 155 992 l 769 992 b 794 1017 783 992 794 1003 l 794 1066 b 769 1091 794 1080 783 1091 l 223 1091 b 0 868 100 1091 0 991 l 0 223 b 223 0 0 100 100 0 l 868 0 b 1091 223 991 0 1091 100 z m 1389 1141 b 1339 1190 1389 1168 1366 1190 l 942 1190 b 893 1141 915 1190 893 1168 b 908 1106 893 1128 898 1115 l 1044 970 l 539 464 b 531 446 534 460 531 453 b 539 429 531 440 534 433 l 627 340 b 645 332 632 336 639 332 b 663 340 651 332 658 336 l 1168 846 l 1304 709 b 1339 694 1314 700 1326 694 b 1389 744 1366 694 1389 717 z "},"":{"ha":1190,"x_min":0,"x_max":0,"o":"m 918 496 b 903 531 918 509 912 522 l 481 953 b 446 967 472 962 460 967 b 397 918 419 967 397 945 l 397 694 l 50 694 b 0 645 22 694 0 672 l 0 347 b 50 298 0 320 22 298 l 397 298 l 397 74 b 446 25 397 47 419 25 b 481 40 460 25 472 30 l 903 461 b 918 496 912 470 918 483 z m 1190 769 b 967 992 1190 892 1090 992 l 719 992 b 694 918 684 992 694 939 b 744 893 694 889 725 893 l 967 893 b 1091 769 1035 893 1091 837 l 1091 223 b 967 99 1091 155 1035 99 l 719 99 b 694 25 684 99 694 47 b 719 0 694 12 706 0 l 967 0 b 1190 223 1090 0 1190 100 z "},"":{"ha":1290,"x_min":0,"x_max":0,"o":"m 355 506 b 99 719 202 538 99 643 l 99 794 l 298 794 b 355 506 298 672 322 577 z m 1190 719 b 935 506 1190 643 1087 538 b 992 794 967 577 992 672 l 1190 794 l 1190 719 z m 1290 818 b 1215 893 1290 860 1256 893 l 992 893 l 992 967 b 868 1091 992 1035 936 1091 l 422 1091 b 298 967 353 1091 298 1035 l 298 893 l 74 893 b 0 818 33 893 0 860 l 0 719 b 420 398 0 572 178 409 b 494 324 451 358 480 335 b 546 198 535 287 546 248 b 446 99 546 149 521 99 b 298 -25 372 99 298 50 l 298 -74 b 322 -99 298 -88 308 -99 l 967 -99 b 992 -74 981 -99 992 -88 l 992 -25 b 843 99 992 50 918 99 b 744 198 769 99 744 149 b 796 324 744 248 755 287 b 870 398 810 335 839 358 b 1290 719 1111 409 1290 572 z "},"":{"ha":1190,"x_min":0,"x_max":0,"o":"m 402 260 b 391 262 400 258 395 259 b 389 272 388 265 388 270 b 400 270 391 274 396 274 b 402 260 403 267 404 263 l 402 260 z m 381 292 b 381 282 383 288 383 284 l 381 282 b 371 286 378 281 374 282 b 371 295 369 289 369 294 b 381 292 374 297 378 295 z m 349 323 b 342 322 348 321 345 321 b 339 328 339 323 337 326 b 345 329 339 330 343 330 b 349 323 348 328 350 325 l 349 323 z m 365 305 b 357 307 363 303 359 305 b 356 315 354 310 353 313 b 363 313 357 317 361 316 b 365 305 367 311 367 307 l 365 305 z m 432 247 b 422 244 430 244 426 243 b 415 253 417 246 414 250 b 425 256 416 256 420 257 b 432 247 429 254 432 250 l 432 247 z m 464 245 b 456 239 464 242 460 239 b 447 245 451 239 447 242 b 455 251 447 248 450 251 b 464 245 460 251 464 248 l 464 245 z m 494 250 b 487 243 494 247 491 243 b 477 247 482 242 478 244 b 484 254 477 250 480 253 b 494 250 489 255 494 253 l 494 250 z m 992 496 b 721 119 992 321 878 172 b 694 139 701 115 694 128 b 694 247 694 152 694 195 b 667 321 694 284 681 308 b 849 517 756 331 849 364 b 808 623 849 560 833 595 b 804 729 811 633 825 674 b 694 687 770 739 694 687 b 595 701 663 697 629 701 b 496 687 561 701 528 697 b 387 729 496 687 420 739 b 383 623 365 674 379 633 b 342 517 357 595 342 560 b 523 321 342 365 435 331 b 498 267 512 311 501 293 b 382 301 475 257 417 239 b 322 342 360 339 322 342 b 319 317 283 342 319 317 b 363 260 345 305 363 260 b 496 212 386 188 496 212 b 497 139 497 179 497 148 b 470 119 497 128 490 115 b 198 496 312 172 198 321 b 595 893 198 715 376 893 b 992 496 815 893 992 715 z m 1190 868 b 967 1091 1190 991 1090 1091 l 223 1091 b 0 868 100 1091 0 991 l 0 124 b 223 -99 0 1 100 -99 l 967 -99 b 1190 124 1090 -99 1190 1 z "},"":{"ha":1290,"x_min":0,"x_max":0,"o":"m 992 50 b 942 0 992 22 970 0 b 893 50 915 0 893 22 b 942 99 893 77 915 99 b 992 50 970 99 992 77 z m 1190 50 b 1141 0 1190 22 1168 0 b 1091 50 1114 0 1091 22 b 1141 99 1091 77 1114 99 b 1190 50 1168 99 1190 77 z m 1290 223 b 1215 298 1290 264 1256 298 l 884 298 b 744 198 863 240 808 198 l 546 198 b 405 298 481 198 426 240 l 74 298 b 0 223 33 298 0 264 l 0 -25 b 74 -99 0 -66 33 -99 l 1215 -99 b 1290 -25 1256 -99 1290 -66 z m 1038 725 b 1027 779 1046 743 1042 765 l 680 1126 b 645 1141 670 1136 657 1141 b 610 1126 632 1141 619 1136 l 263 779 b 252 725 248 765 244 743 b 298 694 260 707 277 694 l 496 694 l 496 347 b 546 298 496 320 519 298 l 744 298 b 794 347 771 298 794 320 l 794 694 l 992 694 b 1038 725 1012 694 1030 707 z "},"":{"ha":1190,"x_min":0,"x_max":0,"o":"m 1090 550 b 733 29 1090 336 937 101 b 513 1 669 6 582 1 b 250 25 425 1 339 25 b 137 8 212 25 175 8 b 102 47 114 8 102 26 b 119 150 102 81 119 114 b 99 336 119 212 99 274 b 310 859 99 523 153 740 b 467 939 356 893 414 918 b 675 992 533 965 603 992 b 947 955 767 992 855 955 b 1038 962 977 955 1008 962 b 1048 961 1041 962 1045 962 b 1056 918 1055 949 1056 933 b 1048 813 1056 884 1048 849 b 1071 713 1048 771 1056 750 b 1090 550 1084 682 1090 587 z m 1190 552 b 1163 749 1190 601 1181 705 b 1147 813 1154 774 1147 785 b 1155 918 1147 848 1155 884 b 1035 1062 1155 999 1123 1062 b 946 1054 1004 1062 975 1054 b 675 1091 855 1054 767 1091 b 430 1031 589 1091 509 1063 b 250 938 369 1007 303 978 b 0 336 67 799 0 556 b 19 148 0 272 19 211 b 2 43 19 112 2 80 b 137 -99 2 -30 60 -99 b 250 -77 176 -99 213 -77 b 513 -99 338 -77 425 -99 b 766 -65 594 -99 689 -92 b 1190 552 1011 22 1190 294 z "},"":{"ha":1091,"x_min":0,"x_max":0,"o":"m 1091 229 b 1089 246 1091 235 1091 240 b 1030 287 1084 262 1046 279 b 898 361 986 312 941 336 b 829 397 877 374 853 397 b 670 257 781 397 712 257 b 604 287 649 257 622 276 b 287 604 463 365 365 463 b 257 670 276 622 257 649 b 397 829 257 712 397 781 b 361 898 397 853 374 877 b 287 1030 336 941 312 986 b 246 1089 279 1046 262 1084 b 229 1091 240 1091 235 1091 b 122 1067 202 1091 147 1079 b 40 973 84 1051 59 1008 b 0 829 15 927 0 880 b 53 625 0 756 29 691 b 118 490 71 578 91 532 b 490 118 199 358 358 199 b 625 53 532 91 578 71 b 829 0 691 29 756 0 b 973 40 880 0 927 15 b 1067 122 1008 59 1051 84 b 1091 229 1079 147 1091 202 z "},"":{"ha":1091,"x_min":0,"x_max":0,"o":"m 868 992 b 992 868 936 992 992 936 l 992 223 b 868 99 992 155 936 99 l 223 99 b 99 223 155 99 99 155 l 99 868 b 223 992 99 936 155 992 l 868 992 z m 1091 868 b 868 1091 1091 991 991 1091 l 868 1091 l 223 1091 b 0 868 100 1091 0 991 l 0 223 b 223 0 0 100 100 0 l 868 0 b 1091 223 991 0 1091 100 z "},"":{"ha":992,"x_min":0,"x_max":0,"o":"m 893 992 l 893 29 l 565 344 l 496 410 l 427 344 l 99 29 l 99 992 l 893 992 z m 902 1091 b 90 1091 878 1091 114 1091 b 56 1084 78 1091 67 1089 b 0 1004 22 1071 0 1039 l 0 5 b 56 -74 0 -29 22 -61 b 90 -81 67 -79 78 -81 b 154 -56 114 -81 136 -72 l 496 273 l 838 -56 b 902 -81 856 -72 878 -81 b 936 -74 914 -81 925 -79 b 992 5 970 -61 992 -29 l 992 1004 b 936 1084 992 1039 970 1071 b 902 1091 925 1089 914 1091 z "},"":{"ha":1190,"x_min":0,"x_max":0,"o":"m 992 266 b 975 188 992 246 983 206 b 801 99 952 136 854 99 b 653 138 749 99 701 120 b 237 554 484 200 299 384 b 198 701 219 602 198 649 b 287 876 198 755 236 853 b 365 893 305 884 345 893 b 377 891 369 893 374 893 b 461 752 391 887 449 773 b 487 701 470 737 487 719 b 385 587 487 667 385 617 b 407 538 385 571 399 552 b 637 308 464 436 535 365 b 686 286 651 300 670 286 b 801 388 716 286 767 388 b 851 362 818 388 836 370 b 991 278 873 350 986 292 b 992 266 992 274 992 270 z m 1190 868 b 967 1091 1190 991 1090 1091 l 223 1091 b 0 868 100 1091 0 991 l 0 124 b 223 -99 0 1 100 -99 l 967 -99 b 1190 124 1090 -99 1190 1 z "},"":{"ha":1290,"x_min":0,"x_max":0,"o":"m 1256 874 b 1111 836 1211 855 1162 841 b 1221 973 1163 867 1203 915 b 1063 913 1173 945 1119 924 b 880 992 1017 962 952 992 b 629 742 741 992 629 880 b 636 684 629 722 632 703 b 119 946 428 695 243 794 b 85 820 98 909 85 867 b 197 612 85 733 129 656 b 84 643 156 613 117 625 b 84 640 84 643 84 641 b 284 395 84 519 170 418 b 219 386 264 389 241 386 b 171 390 202 386 187 388 b 405 216 203 291 295 219 b 95 109 319 149 212 109 b 34 112 74 109 54 110 b 419 0 145 41 277 0 b 1131 712 879 0 1131 381 b 1130 745 1131 723 1131 734 b 1256 874 1179 780 1221 825 z "},"":{"ha":794,"x_min":0,"x_max":0,"o":"m 743 1181 b 567 1190 722 1184 650 1190 b 271 887 391 1190 271 1084 l 271 718 l 74 718 l 74 489 l 271 489 l 271 -99 l 508 -99 l 508 489 l 705 489 l 736 718 l 508 718 l 508 865 b 622 977 508 931 526 977 l 743 977 z "},"":{"ha":1190,"x_min":0,"x_max":0,"o":"m 595 1091 b 0 496 267 1091 0 825 b 407 -69 0 233 171 10 b 448 -40 437 -74 448 -56 b 447 71 448 -26 447 21 b 246 141 447 71 281 35 b 181 228 246 141 219 210 b 184 264 181 228 126 265 b 276 203 184 264 243 260 b 449 153 328 112 415 138 b 487 233 454 191 470 218 b 215 527 354 248 215 299 b 277 687 215 592 239 645 b 283 845 270 702 250 763 b 446 784 332 860 446 784 b 595 804 494 797 545 804 b 744 784 646 804 697 797 b 908 845 744 784 858 860 b 914 687 940 763 920 702 b 975 527 952 645 975 592 b 703 233 975 298 836 248 b 743 123 725 215 743 179 b 742 -40 743 43 742 -21 b 784 -69 742 -56 753 -74 b 1190 496 1020 10 1190 233 b 595 1091 1190 825 924 1091 z m 226 236 b 215 235 224 233 219 233 b 210 244 211 237 208 241 b 220 246 212 246 215 247 b 226 236 225 243 227 239 z m 250 210 b 237 212 246 207 241 208 b 236 225 233 217 233 222 b 248 222 239 228 244 226 b 250 210 252 218 253 212 z m 273 175 b 260 181 270 173 264 175 b 260 195 256 186 256 192 b 273 190 264 198 270 195 b 273 175 277 184 277 178 z m 305 143 b 290 145 302 139 295 140 b 287 160 284 150 283 157 b 302 157 290 164 297 163 b 305 143 307 153 308 146 z m 350 123 b 335 119 348 119 341 116 b 325 130 328 120 323 126 b 339 136 326 135 333 137 b 350 123 346 133 351 128 z m 398 119 b 386 111 398 115 393 111 b 373 119 378 110 373 114 b 385 128 373 124 378 128 b 398 119 392 129 398 125 z m 443 127 b 432 116 444 122 439 118 b 419 122 426 115 419 118 b 429 134 418 128 422 133 b 443 127 436 135 443 132 z "},"":{"ha":1290,"x_min":0,"x_max":0,"o":"m 1290 744 b 942 1091 1290 935 1134 1091 b 595 744 751 1091 595 935 l 595 595 l 74 595 b 0 521 33 595 0 562 l 0 74 b 74 0 0 33 33 0 l 818 0 b 893 74 860 0 893 33 l 893 521 b 818 595 893 562 860 595 l 744 595 l 744 744 b 942 942 744 853 833 942 b 1141 744 1052 942 1141 853 l 1141 546 b 1190 496 1141 519 1163 496 l 1240 496 b 1290 546 1267 496 1290 519 z "},"":{"ha":1488,"x_min":0,"x_max":0,"o":"m 1364 1091 l 124 1091 b 0 967 56 1091 0 1035 l 0 25 b 124 -99 0 -43 56 -99 l 1364 -99 b 1488 25 1432 -99 1488 -43 l 1488 967 b 1364 1091 1488 1035 1432 1091 z m 124 992 l 1364 992 b 1389 967 1377 992 1389 980 l 1389 794 l 99 794 l 99 967 b 124 992 99 980 111 992 z m 1364 0 l 124 0 b 99 25 111 0 99 12 l 99 496 l 1389 496 l 1389 25 b 1364 0 1389 12 1377 0 z m 198 99 l 397 99 l 397 198 l 198 198 z m 496 99 l 794 99 l 794 198 l 496 198 z "},"":{"ha":1091,"x_min":0,"x_max":0,"o":"m 298 149 b 149 298 298 231 231 298 b 0 149 67 298 0 231 b 149 0 0 67 67 0 b 298 149 231 0 298 67 z m 694 53 b 491 491 681 219 609 374 b 53 694 374 609 219 681 b 50 694 52 694 51 694 b 16 681 37 694 25 690 b 0 645 5 672 0 659 l 0 540 b 45 491 0 515 19 494 b 491 45 281 469 469 281 b 540 0 494 19 515 0 l 645 0 b 681 16 659 0 672 5 b 694 53 691 26 695 40 z m 1091 52 b 770 770 1077 323 963 578 b 52 1091 578 963 323 1077 b 50 1091 51 1091 50 1091 b 16 1077 37 1091 25 1087 b 0 1042 5 1068 0 1056 l 0 931 b 47 882 0 905 20 884 b 881 47 497 856 856 497 b 931 0 883 20 904 0 l 1042 0 b 1077 16 1056 0 1068 5 b 1091 52 1087 26 1092 39 z "},"":{"ha":1190,"x_min":0,"x_max":0,"o":"m 806 248 b 744 310 806 282 778 310 b 682 248 710 310 682 282 b 744 186 682 214 710 186 b 806 248 778 186 806 214 z m 1004 248 b 942 310 1004 282 977 310 b 880 248 908 310 880 282 b 942 186 880 214 908 186 b 1004 248 977 186 1004 214 z m 1091 124 b 1066 99 1091 111 1080 99 l 124 99 b 99 124 111 99 99 111 l 99 372 b 124 397 99 385 111 397 l 1066 397 b 1091 372 1080 397 1091 385 l 1091 124 z m 138 496 l 260 870 b 292 893 264 883 278 893 l 898 893 b 931 870 912 893 927 883 l 1053 496 z m 1190 372 b 1178 430 1190 393 1184 411 l 1025 900 b 898 992 1008 954 956 992 l 292 992 b 165 900 235 992 183 954 l 12 430 b 0 372 6 411 0 393 l 0 124 b 124 0 0 56 56 0 l 1066 0 b 1190 124 1135 0 1190 56 z "},"":{"ha":1389,"x_min":0,"x_max":0,"o":"m 1290 694 l 1290 992 b 1190 1091 1290 1046 1245 1091 b 496 794 1042 967 794 794 l 124 794 b 0 670 56 794 0 738 l 0 521 b 124 397 0 453 56 397 l 219 397 b 276 -53 164 222 231 84 b 595 -23 347 -119 547 -118 b 498 193 513 41 443 104 b 561 394 437 255 469 363 b 1190 99 830 371 1053 214 b 1290 198 1245 99 1290 144 l 1290 496 b 1389 595 1345 496 1389 540 b 1290 694 1389 650 1345 694 z m 1190 226 b 595 491 988 381 792 469 l 595 700 b 1190 966 792 722 988 811 z "},"":{"ha":1389,"x_min":0,"x_max":0,"o":"m 707 -124 b 694 -136 707 -131 701 -136 b 558 0 619 -136 558 -75 b 570 12 558 7 563 12 b 583 0 577 12 583 7 b 694 -112 583 -61 633 -112 b 707 -124 701 -112 707 -117 z m 191 99 b 397 744 329 256 397 468 b 694 992 397 844 491 992 b 992 744 898 992 992 844 b 1198 99 992 468 1059 256 z m 1339 99 b 1091 744 1225 196 1091 370 b 763 1086 1091 893 968 1056 b 769 1116 767 1095 769 1105 b 694 1190 769 1157 736 1190 b 620 1116 653 1190 620 1157 b 626 1086 620 1105 622 1095 b 298 744 421 1056 298 893 b 50 99 298 370 164 196 b 149 0 50 45 95 0 l 496 0 b 694 -198 496 -109 585 -198 b 893 0 804 -198 893 -109 l 1240 0 b 1339 99 1294 0 1339 45 z "},"":{"ha":1190,"x_min":0,"x_max":0,"o":"m 1066 496 l 1173 601 b 1189 655 1188 615 1194 636 b 1149 694 1184 674 1168 690 l 1003 732 l 1044 876 b 1029 930 1049 895 1044 916 b 975 945 1015 945 994 950 l 831 904 l 794 1049 b 754 1089 789 1069 773 1084 b 700 1074 734 1094 714 1089 l 595 966 l 491 1074 b 436 1089 477 1089 456 1094 b 397 1049 417 1084 401 1069 l 360 904 l 215 945 b 161 930 196 950 175 945 b 146 876 146 916 141 895 l 188 732 l 42 694 b 2 655 22 690 7 674 b 17 601 -3 636 2 615 l 124 496 l 17 391 b 2 337 2 377 -3 357 b 42 298 7 318 22 302 l 188 260 l 146 116 b 161 62 141 97 146 76 b 215 47 175 47 196 42 l 360 88 l 397 -57 b 436 -98 401 -77 416 -92 b 491 -82 456 -102 477 -97 l 595 25 l 700 -82 b 739 -99 710 -93 725 -99 b 754 -98 744 -99 749 -98 b 794 -57 773 -92 789 -77 l 831 88 l 975 47 b 1029 62 994 42 1015 47 b 1044 116 1044 76 1049 97 l 1003 260 l 1149 298 b 1189 337 1168 302 1184 318 b 1173 391 1194 357 1188 377 z "},"":{"ha":1389,"x_min":0,"x_max":0,"o":"m 198 149 b 149 99 198 122 176 99 b 99 149 122 99 99 122 b 149 198 99 176 122 198 b 198 149 176 198 198 176 z m 1290 595 b 1190 496 1290 542 1244 496 l 934 496 b 961 416 950 477 961 441 b 920 324 961 380 946 349 b 934 270 929 308 934 289 b 884 173 934 235 916 191 b 887 129 886 159 887 144 b 741 0 887 36 828 0 b 322 99 591 0 458 99 l 298 99 l 298 595 l 322 595 b 509 722 405 595 460 665 b 596 834 541 757 570 793 b 625 884 606 850 615 867 b 694 992 633 902 673 992 b 818 893 760 992 818 967 b 744 694 818 794 744 743 l 1190 694 b 1290 595 1242 694 1290 648 z m 1389 596 b 1190 794 1389 703 1297 794 l 901 794 b 918 893 912 825 918 859 b 694 1091 918 1024 818 1091 b 512 887 591 1091 557 959 b 435 787 489 850 463 818 b 322 694 412 761 360 694 l 99 694 b 0 595 44 694 0 650 l 0 99 b 99 0 0 44 44 0 l 322 0 b 495 -46 371 0 448 -29 b 745 -99 576 -75 658 -99 b 987 133 888 -99 988 -13 b 1033 271 1017 172 1033 222 b 1031 305 1033 282 1032 294 b 1059 397 1047 333 1057 364 l 1190 397 b 1389 596 1299 397 1389 488 z "},"":{"ha":1389,"x_min":0,"x_max":0,"o":"m 1066 99 b 645 0 931 99 799 0 b 502 129 559 0 502 38 b 505 173 502 144 503 159 b 455 270 473 191 455 235 b 469 324 455 289 460 308 b 428 416 443 349 428 380 b 455 496 428 441 439 477 l 198 496 b 99 595 145 496 99 542 b 198 694 99 648 146 694 l 645 694 b 570 893 645 743 570 794 b 694 992 570 967 629 992 b 763 887 715 992 754 904 b 793 834 773 869 782 851 b 880 722 818 793 848 757 b 1066 595 929 665 984 595 l 1091 595 l 1091 99 z m 1290 149 b 1240 99 1290 122 1267 99 b 1190 149 1213 99 1190 122 b 1240 198 1190 176 1213 198 b 1290 149 1267 198 1290 176 z m 1389 595 b 1290 694 1389 650 1345 694 l 1066 694 b 954 787 1029 694 977 761 b 877 887 926 818 900 850 b 694 1091 832 959 798 1091 b 471 893 571 1091 471 1024 b 488 794 471 859 477 825 l 198 794 b 0 596 91 794 0 703 b 198 397 0 488 90 397 l 329 397 b 358 305 332 364 342 333 b 356 271 357 294 356 282 b 403 133 356 222 372 172 l 402 129 b 648 -99 401 -19 505 -99 b 894 -46 733 -99 815 -74 b 1066 0 941 -29 1018 0 l 1290 0 b 1389 99 1345 0 1389 44 z "},"":{"ha":1190,"x_min":0,"x_max":0,"o":"m 992 -50 b 942 -99 992 -77 970 -99 b 893 -50 915 -99 893 -77 b 942 0 893 -22 915 0 b 992 -50 970 0 992 -22 z m 1091 543 b 992 124 1091 392 992 260 l 992 99 l 496 99 l 496 124 b 370 311 496 206 426 261 b 257 398 334 343 298 372 b 207 426 241 408 224 417 b 99 496 189 435 99 474 b 198 620 99 562 124 620 b 397 546 298 620 348 546 l 397 992 b 496 1091 397 1044 443 1091 b 595 992 550 1091 595 1046 l 595 736 b 675 763 614 752 650 763 b 767 722 711 763 742 748 b 821 736 784 731 802 736 b 918 685 856 736 901 718 b 962 689 932 687 947 689 b 1091 543 1056 689 1091 630 z m 1190 546 b 958 788 1190 690 1104 790 b 820 835 919 818 870 835 b 787 832 809 835 798 834 b 694 861 758 849 727 859 l 694 992 b 495 1190 694 1101 604 1190 b 298 992 388 1190 298 1099 l 298 702 b 198 719 266 714 233 719 b 0 496 67 719 0 619 b 205 314 0 392 133 359 b 305 236 241 291 273 264 b 397 124 330 214 397 161 l 397 -99 b 496 -198 397 -154 441 -198 l 992 -198 b 1091 -99 1047 -198 1091 -154 l 1091 124 b 1137 297 1091 173 1120 250 b 1190 546 1166 377 1190 460 z "},"":{"ha":1190,"x_min":0,"x_max":0,"o":"m 1091 446 b 962 304 1091 360 1053 304 b 918 307 947 304 932 305 b 821 257 901 274 856 257 b 767 270 802 257 784 261 b 675 229 742 244 711 229 b 595 257 649 229 615 241 l 595 0 b 496 -99 595 -53 550 -99 b 397 0 443 -99 397 -52 l 397 446 b 198 372 348 446 298 372 b 99 496 124 372 99 430 b 205 565 99 517 187 556 b 257 594 222 574 240 584 b 370 681 298 620 334 649 b 496 868 426 731 496 786 l 496 893 l 992 893 l 992 868 b 1091 446 992 732 1091 601 z m 992 1042 b 942 992 992 1015 970 992 b 893 1042 915 992 893 1015 b 942 1091 893 1069 915 1091 b 992 1042 970 1091 992 1069 z m 1190 450 b 1137 695 1190 535 1166 616 b 1091 868 1120 742 1091 819 l 1091 1091 b 992 1190 1091 1146 1047 1190 l 496 1190 b 397 1091 441 1190 397 1146 l 397 868 b 305 756 397 831 330 778 b 205 678 273 728 241 701 b 0 496 133 633 0 600 b 198 273 0 373 68 273 b 298 290 231 273 267 277 l 298 0 b 495 -198 298 -107 388 -198 b 694 0 604 -198 694 -109 l 694 131 b 787 160 725 134 760 145 b 820 157 798 158 809 157 b 958 205 870 157 919 174 l 962 204 b 1190 450 1110 203 1190 307 z "},"":{"ha":1190,"x_min":0,"x_max":0,"o":"m 992 446 b 942 397 992 419 970 397 l 553 397 l 700 250 b 714 215 709 241 714 229 b 700 181 714 202 709 190 l 629 110 b 594 96 620 101 608 96 b 560 110 581 96 569 101 l 279 391 l 208 461 b 195 496 199 470 195 483 b 208 531 195 509 199 522 l 279 601 l 560 882 b 594 896 569 891 581 896 b 629 882 608 896 620 891 l 700 811 b 715 777 709 802 715 790 b 700 742 715 763 709 751 l 553 595 l 942 595 b 992 546 970 595 992 573 l 992 446 z m 1190 496 b 595 1091 1190 825 924 1091 b 0 496 267 1091 0 825 b 595 -99 0 167 267 -99 b 1190 496 924 -99 1190 167 z "},"":{"ha":1190,"x_min":0,"x_max":0,"o":"m 996 496 b 982 461 996 483 991 470 l 911 391 l 631 110 b 596 96 622 101 609 96 b 561 110 583 96 570 101 l 491 181 b 476 215 481 190 476 202 b 491 250 476 229 481 241 l 637 397 l 248 397 b 198 446 221 397 198 419 l 198 546 b 248 595 198 573 221 595 l 637 595 l 491 742 b 477 777 481 751 477 763 b 491 811 477 790 481 802 l 561 882 b 596 896 570 891 583 896 b 631 882 609 896 622 891 l 911 601 l 982 531 b 996 496 991 522 996 509 z m 1190 496 b 595 1091 1190 825 924 1091 b 0 496 267 1091 0 825 b 595 -99 0 167 267 -99 b 1190 496 924 -99 1190 167 z "},"":{"ha":1190,"x_min":0,"x_max":0,"o":"m 995 497 b 981 462 995 484 991 471 l 911 391 b 876 377 901 382 889 377 b 841 391 863 377 850 382 l 694 538 l 694 149 b 645 99 694 122 672 99 l 546 99 b 496 149 519 99 496 122 l 496 538 l 350 391 b 315 377 340 382 328 377 b 280 391 301 377 289 382 l 209 462 b 195 497 200 471 195 484 b 209 532 195 510 200 522 l 490 812 l 560 883 b 595 897 570 892 582 897 b 630 883 608 897 621 892 l 701 812 l 981 532 b 995 497 991 522 995 510 z m 1190 496 b 595 1091 1190 825 924 1091 b 0 496 267 1091 0 825 b 595 -99 0 167 267 -99 b 1190 496 924 -99 1190 167 z "},"":{"ha":1190,"x_min":0,"x_max":0,"o":"m 995 495 b 981 460 995 482 991 470 l 701 180 l 630 109 b 595 95 621 100 608 95 b 560 109 582 95 570 100 l 490 180 l 209 460 b 195 495 200 470 195 482 b 209 530 195 508 200 521 l 280 601 b 315 615 289 610 301 615 b 350 601 328 615 340 610 l 496 454 l 496 843 b 546 893 496 870 519 893 l 645 893 b 694 843 672 893 694 870 l 694 454 l 841 601 b 876 615 850 610 863 615 b 911 601 889 615 901 610 l 981 530 b 995 495 991 521 995 508 z m 1190 496 b 595 1091 1190 825 924 1091 b 0 496 267 1091 0 825 b 595 -99 0 167 267 -99 b 1190 496 924 -99 1190 167 z "},"":{"ha":1190,"x_min":0,"x_max":0,"o":"m 595 1091 b 0 496 267 1091 0 825 b 595 -99 0 167 267 -99 b 1190 496 924 -99 1190 167 b 595 1091 1190 825 924 1091 z m 808 687 b 841 697 816 693 830 700 b 846 684 849 694 856 691 b 829 683 842 681 835 684 b 843 671 836 681 846 678 b 824 647 863 660 837 646 b 811 636 830 646 811 635 b 789 625 804 632 794 632 b 780 605 783 616 791 601 b 749 589 775 594 757 600 b 732 578 758 580 741 567 b 721 562 725 575 729 567 b 719 550 724 557 725 553 b 732 542 721 550 730 543 b 724 535 731 538 728 535 b 712 508 728 525 719 514 b 684 494 705 501 687 495 b 686 456 670 481 661 461 b 687 429 687 456 687 430 b 677 403 689 420 693 393 b 662 437 669 407 664 429 b 653 456 660 446 659 446 b 632 458 643 444 641 453 b 607 466 624 463 612 461 b 584 473 595 457 587 460 b 587 455 581 467 587 457 b 570 453 583 447 576 449 b 526 453 560 461 538 448 b 532 449 527 453 530 450 b 520 442 530 439 525 445 b 505 426 515 438 510 430 b 505 367 515 407 505 388 b 530 316 505 352 515 325 b 567 314 537 312 560 311 b 581 336 578 319 577 327 b 601 352 584 346 589 351 b 605 312 634 353 608 326 b 600 281 602 302 601 291 b 612 281 604 280 608 281 b 614 290 612 284 614 288 b 639 289 618 282 634 280 b 656 262 644 280 655 273 b 653 239 658 251 668 239 b 656 214 643 239 655 218 b 694 200 665 198 679 192 b 684 175 694 194 692 177 b 664 198 676 174 661 190 b 659 191 663 195 661 193 b 631 215 651 201 638 205 b 613 250 629 217 608 249 b 570 259 602 246 581 253 b 532 287 554 267 552 290 b 498 285 518 284 514 279 b 467 302 487 289 477 297 b 428 332 454 309 432 316 b 418 370 423 344 425 359 b 389 394 413 378 399 394 b 378 419 398 394 381 417 b 345 472 370 429 339 457 b 326 481 346 474 329 481 b 334 458 329 474 330 465 b 347 436 338 450 343 443 b 366 388 356 422 367 405 b 356 405 356 384 359 399 b 332 426 350 415 336 415 b 336 428 333 427 334 427 b 320 461 336 441 317 452 b 301 497 309 470 309 486 b 273 519 295 507 283 512 b 251 559 269 521 241 556 b 230 601 236 555 228 591 b 229 601 230 601 229 601 b 239 660 232 611 226 659 b 230 684 230 659 228 680 b 244 674 232 687 243 675 b 252 687 249 676 253 682 b 236 704 250 694 241 699 b 202 725 233 705 202 725 b 199 739 205 730 204 736 b 184 753 184 728 192 750 b 175 759 181 753 178 756 b 357 931 220 830 283 890 b 374 932 362 932 368 932 b 406 911 388 930 396 918 b 402 925 408 915 405 922 b 419 935 405 932 414 933 b 443 934 426 935 436 937 b 427 953 438 941 432 947 b 423 949 426 953 424 951 b 391 944 415 956 398 947 b 373 935 384 941 379 937 b 363 934 369 933 367 933 b 436 966 387 946 411 957 b 453 952 441 963 446 957 b 450 935 448 956 448 938 b 488 931 458 923 477 931 b 515 935 488 931 522 926 b 528 908 521 927 521 915 b 529 930 535 915 525 923 b 550 939 531 933 545 937 b 543 950 555 943 546 949 b 520 975 536 955 505 957 b 551 974 525 981 545 978 b 557 953 560 970 569 961 b 584 935 563 953 588 946 b 597 947 587 940 591 947 b 608 926 604 946 605 930 b 641 944 619 907 638 946 b 660 954 627 949 653 956 b 664 934 666 952 674 933 b 658 910 673 926 674 909 b 625 914 647 911 635 925 b 608 887 618 906 615 894 b 569 879 597 877 582 877 b 556 857 574 878 557 860 b 546 839 551 852 548 846 b 543 815 545 832 546 823 b 557 794 556 819 563 795 b 602 791 574 797 587 797 b 634 771 613 787 629 783 b 656 772 637 776 652 773 b 669 749 666 767 667 757 b 695 724 672 737 682 718 b 708 738 698 725 715 733 b 701 765 702 743 695 757 b 726 787 708 773 722 776 b 708 815 732 805 708 802 b 717 835 708 823 718 825 b 715 863 717 842 705 858 b 767 856 722 868 760 860 b 797 838 773 851 795 845 b 793 838 795 838 794 838 b 794 818 799 832 805 821 b 807 807 801 819 821 811 b 820 811 811 809 815 808 b 836 815 825 814 829 819 b 850 831 837 815 846 832 b 862 815 857 830 859 820 b 877 799 865 808 873 806 b 898 769 882 786 880 773 b 917 764 903 767 918 776 b 922 770 920 767 922 770 b 940 749 922 760 927 747 b 939 732 940 749 940 734 b 915 722 934 725 922 726 b 897 703 913 722 894 705 b 857 711 887 715 870 715 b 817 702 843 709 830 708 b 800 691 811 699 805 696 b 790 673 798 687 794 674 b 808 687 798 674 801 683 z m 681 8 b 680 20 680 12 680 19 b 691 53 679 33 692 41 b 682 73 683 55 680 64 b 705 104 684 86 695 95 b 714 141 714 112 716 130 b 707 198 710 160 710 179 b 723 188 708 193 721 195 b 732 206 726 194 728 201 b 745 216 735 211 740 212 b 778 228 753 221 769 239 b 777 200 786 219 767 208 b 783 222 780 206 777 215 b 816 216 795 236 804 220 b 844 199 829 212 834 208 b 858 208 841 202 856 208 b 889 195 873 212 879 203 b 915 167 900 188 917 182 b 934 160 923 165 928 163 b 953 154 940 157 949 159 b 681 8 882 79 787 26 z "},"":{"ha":1290,"x_min":0,"x_max":0,"o":"m 298 50 b 248 0 298 22 275 0 b 198 50 221 0 198 22 b 248 99 198 77 221 99 b 298 50 275 99 298 77 z m 797 375 b 574 598 695 415 614 497 l 46 71 b 16 0 27 52 16 26 b 46 -70 16 -26 27 -52 l 128 -153 b 198 -182 146 -171 172 -182 b 268 -153 225 -182 250 -171 l 797 375 z m 1288 712 b 1263 739 1288 728 1279 739 b 1042 612 1248 739 1068 626 l 893 694 l 893 868 l 1120 999 b 1132 1021 1127 1004 1132 1012 b 1120 1042 1132 1030 1128 1037 b 942 1091 1073 1074 999 1091 b 595 744 751 1091 595 935 b 942 397 595 553 751 397 b 1270 630 1089 397 1221 492 b 1288 712 1279 655 1288 687 z "},"":{"ha":1389,"x_min":0,"x_max":0,"o":"m 794 99 l 794 198 l 1290 198 l 1290 99 z m 496 496 l 496 595 l 1290 595 l 1290 496 z m 992 893 l 992 992 l 1290 992 l 1290 893 z m 1389 248 b 1339 298 1389 275 1366 298 l 50 298 b 0 248 22 298 0 275 l 0 50 b 50 0 0 22 22 0 l 1339 0 b 1389 50 1366 0 1389 22 z m 1389 645 b 1339 694 1389 672 1366 694 l 50 694 b 0 645 22 694 0 672 l 0 446 b 50 397 0 419 22 397 l 1339 397 b 1389 446 1366 397 1389 419 z m 1389 1042 b 1339 1091 1389 1069 1366 1091 l 50 1091 b 0 1042 22 1091 0 1069 l 0 843 b 50 794 0 816 22 794 l 1339 794 b 1389 843 1366 794 1389 816 z "},"":{"ha":1091,"x_min":0,"x_max":0,"o":"m 1087 962 b 1042 992 1080 980 1062 992 l 50 992 b 4 962 29 992 12 980 b 15 908 -4 943 0 922 l 397 525 l 397 149 b 412 114 397 136 402 123 l 610 -84 b 645 -99 619 -95 632 -99 b 664 -95 651 -99 658 -98 b 694 -50 682 -88 694 -70 l 694 525 l 1077 908 b 1087 962 1091 922 1095 943 z "},"":{"ha":1389,"x_min":0,"x_max":0,"o":"m 496 992 l 496 1091 l 893 1091 l 893 992 z m 1389 496 l 868 496 l 868 372 b 818 322 868 345 846 322 l 570 322 b 521 372 543 322 521 345 l 521 496 l 0 496 l 0 124 b 124 0 0 56 56 0 l 1265 0 b 1389 124 1333 0 1389 56 z m 794 496 l 595 496 l 595 397 l 794 397 z m 1389 868 b 1265 992 1389 936 1333 992 l 992 992 l 992 1116 b 918 1190 992 1157 959 1190 l 471 1190 b 397 1116 430 1190 397 1157 l 397 992 l 124 992 b 0 868 56 992 0 936 l 0 570 l 1389 570 z "},"":{"ha":1190,"x_min":0,"x_max":0,"o":"m 994 771 l 1106 660 b 1141 645 1115 650 1128 645 b 1160 649 1147 645 1154 646 b 1190 694 1178 656 1190 674 l 1190 1042 b 1141 1091 1190 1069 1168 1091 l 794 1091 b 748 1060 773 1091 756 1079 b 759 1007 740 1042 744 1021 l 870 895 l 595 620 l 320 895 l 432 1007 b 443 1060 446 1021 450 1042 b 397 1091 435 1079 417 1091 l 50 1091 b 0 1042 22 1091 0 1069 l 0 694 b 31 649 0 674 12 656 b 50 645 36 646 43 645 b 84 660 63 645 75 650 l 196 771 l 471 496 l 196 221 l 84 332 b 31 343 71 347 49 351 b 0 298 12 336 0 318 l 0 -50 b 50 -99 0 -77 22 -99 l 397 -99 b 443 -68 417 -99 435 -87 b 432 -15 450 -50 446 -29 l 320 97 l 595 372 l 870 97 l 759 -15 b 748 -68 744 -29 740 -50 b 794 -99 756 -87 773 -99 l 1141 -99 b 1190 -50 1168 -99 1190 -77 l 1190 298 b 1160 343 1190 318 1178 336 b 1106 332 1142 351 1120 347 l 994 221 l 719 496 z "},"≠":{"ha":1389,"x_min":0,"x_max":0,"o":""},"∞":{"ha":1389,"x_min":0,"x_max":0,"o":""},"":{"ha":1389,"x_min":0,"x_max":0,"o":""},"":{"ha":1488,"x_min":0,"x_max":0,"o":"m 460 496 b 397 694 419 554 397 624 b 401 746 397 711 398 729 b 298 728 367 734 333 728 b 96 794 193 728 112 794 b 0 520 -2 794 0 583 b 150 397 0 434 73 397 l 254 397 b 460 496 306 459 379 494 z m 1290 2 b 1022 446 1290 177 1249 446 b 744 339 995 446 899 339 b 467 446 589 339 493 446 b 198 2 239 446 198 177 b 405 -198 198 -123 281 -198 l 1083 -198 b 1290 2 1207 -198 1290 -123 z m 496 992 b 298 1190 496 1101 407 1190 b 99 992 188 1190 99 1101 b 298 794 99 883 188 794 b 496 992 407 794 496 883 z m 1042 694 b 744 992 1042 859 908 992 b 446 694 580 992 446 859 b 744 397 446 530 580 397 b 1042 694 908 397 1042 530 z m 1488 520 b 1392 794 1488 583 1490 794 b 1190 728 1376 794 1295 728 b 1087 746 1155 728 1121 734 b 1091 694 1090 729 1091 711 b 1028 496 1091 624 1069 554 b 1234 397 1109 494 1182 459 l 1338 397 b 1488 520 1415 397 1488 434 z m 1389 992 b 1190 1190 1389 1101 1300 1190 b 992 992 1081 1190 992 1101 b 1190 794 992 883 1081 794 b 1389 992 1300 794 1389 883 z "},"":{"ha":1290,"x_min":0,"x_max":0,"o":"m 1128 248 b 1107 196 1128 229 1121 210 l 993 83 b 940 63 979 70 960 63 b 887 84 921 63 901 70 l 728 244 b 706 297 714 258 706 277 b 732 353 706 320 715 338 b 818 298 757 328 779 298 b 893 372 860 298 893 331 b 837 459 893 412 863 433 b 893 484 853 475 870 484 b 946 462 912 484 932 476 l 1107 301 b 1128 248 1121 287 1128 268 z m 584 794 b 558 738 584 771 574 753 b 471 794 532 763 511 794 b 397 719 430 794 397 760 b 453 632 397 680 427 658 b 397 608 437 616 419 608 b 344 629 377 608 358 615 l 183 791 b 161 843 169 805 161 823 b 183 895 161 863 169 881 l 297 1008 b 350 1029 311 1022 330 1029 b 402 1008 369 1029 388 1022 l 562 847 b 584 794 576 833 584 814 z m 1277 248 b 1212 406 1277 308 1255 363 l 1051 567 b 893 632 1009 609 952 632 b 732 564 832 632 774 608 l 663 632 b 732 794 707 675 732 733 b 667 952 732 853 709 910 l 508 1112 b 350 1178 466 1155 409 1178 b 192 1114 291 1178 234 1156 l 78 1001 b 12 843 36 960 12 902 b 78 685 12 784 35 728 l 239 524 b 397 459 281 482 338 459 b 558 527 458 459 515 484 l 626 459 b 558 297 583 416 558 358 b 622 140 558 238 581 181 l 782 -21 b 940 -87 824 -64 880 -87 b 1097 -22 999 -87 1056 -64 l 1211 91 b 1277 248 1253 132 1277 189 z "},"":{"ha":1488,"x_min":0,"x_max":0,"o":"m 1488 298 b 1258 587 1488 439 1390 556 b 1290 694 1278 618 1290 655 b 1091 893 1290 804 1201 893 b 963 845 1042 893 997 875 b 595 1091 903 990 761 1091 b 198 694 376 1091 198 914 b 200 661 198 684 199 672 b 0 347 82 606 0 486 b 347 0 0 156 156 0 l 1190 0 b 1488 298 1355 0 1488 133 z "},"":{"ha":1290,"x_min":0,"x_max":0,"o":"m 1184 68 l 794 683 l 794 992 l 843 992 b 893 1042 870 992 893 1015 b 843 1091 893 1069 870 1091 l 446 1091 b 397 1042 419 1091 397 1069 b 446 992 397 1015 419 992 l 496 992 l 496 683 l 106 68 b 198 -99 48 -24 89 -99 l 1091 -99 b 1184 68 1201 -99 1242 -24 z m 580 630 l 595 654 l 595 683 l 595 992 l 694 992 l 694 683 l 694 654 l 710 630 l 921 298 l 369 298 z "},"":{"ha":1389,"x_min":0,"x_max":0,"o":"m 744 496 b 694 446 717 496 694 474 b 744 397 694 419 717 397 b 794 446 771 397 794 419 b 744 496 794 474 771 496 z m 977 446 l 1370 755 b 1389 798 1383 765 1390 782 b 1362 838 1387 815 1376 830 l 1263 887 b 1240 893 1256 891 1248 893 b 1216 887 1232 893 1223 891 l 681 587 l 596 638 b 587 642 593 639 590 641 b 594 717 594 666 597 691 b 449 927 587 797 534 873 b 234 992 383 969 307 992 b 62 931 164 992 105 971 b 1 771 18 891 -5 832 b 146 561 8 692 61 615 b 361 496 212 519 288 496 b 478 520 405 496 444 505 b 495 503 483 513 488 508 l 590 446 l 495 390 b 478 373 488 385 483 380 b 361 397 444 388 405 397 b 146 332 288 397 212 374 b 1 122 61 277 8 201 b 62 -39 -5 61 18 2 b 234 -99 105 -78 164 -99 b 449 -34 307 -99 383 -76 b 594 176 534 20 587 96 b 587 251 597 202 594 227 b 596 255 590 252 593 253 l 681 306 l 1216 6 b 1240 0 1223 2 1232 0 b 1263 5 1248 0 1256 2 l 1362 55 b 1389 95 1376 63 1387 78 b 1370 138 1390 111 1383 128 z m 449 648 b 361 620 429 629 397 620 b 212 666 314 620 260 636 b 146 840 129 718 99 797 b 234 868 167 859 198 868 b 383 822 281 868 336 853 b 449 648 467 770 496 691 z m 383 71 b 234 25 336 40 281 25 b 146 53 198 25 167 34 b 212 227 99 96 129 174 b 361 273 260 257 314 273 b 449 245 397 273 429 264 b 383 71 496 202 467 123 z m 521 546 l 528 553 b 533 557 529 554 531 555 b 550 575 539 563 544 569 l 570 595 l 632 559 l 621 553 b 595 509 605 543 595 527 l 595 501 z m 694 372 l 570 298 l 550 318 b 533 336 544 324 539 330 b 528 341 531 338 529 339 l 521 347 l 645 422 l 645 509 l 1240 843 l 1339 794 l 769 347 z m 1240 50 l 789 303 b 799 308 793 305 797 305 l 936 415 l 1339 99 z "},"":{"ha":1389,"x_min":0,"x_max":0,"o":"m 1314 893 l 992 893 b 893 862 962 893 923 880 l 893 1116 b 818 1190 893 1157 860 1190 l 496 1190 b 369 1138 455 1190 398 1166 l 53 822 b 0 694 24 793 0 736 l 0 174 b 74 99 0 133 33 99 l 496 99 l 496 -124 b 570 -198 496 -165 529 -198 l 1314 -198 b 1389 -124 1356 -198 1389 -165 l 1389 818 b 1314 893 1389 860 1356 893 z m 893 728 l 893 496 l 661 496 z m 397 1025 l 397 794 l 165 794 z m 549 524 b 496 397 520 495 496 438 l 496 198 l 99 198 l 99 694 l 422 694 b 496 769 463 694 496 728 l 496 1091 l 794 1091 l 794 769 z m 1290 -99 l 595 -99 l 595 397 l 918 397 b 992 471 959 397 992 430 l 992 794 l 1290 794 z "},"":{"ha":1091,"x_min":0,"x_max":0,"o":"m 1088 117 b 1011 299 1088 185 1059 251 l 560 749 b 445 798 530 780 488 798 b 293 646 360 798 293 732 b 342 531 293 604 311 561 l 660 213 b 677 205 664 208 670 205 b 737 266 693 205 737 250 b 729 283 737 272 734 278 l 412 601 b 392 646 400 613 392 629 b 444 698 392 677 415 698 b 491 680 461 698 478 691 l 941 229 b 990 117 970 200 990 160 b 875 2 990 51 941 2 b 763 51 833 2 792 22 l 161 653 b 102 794 124 691 102 741 b 298 992 102 903 188 992 b 438 932 350 992 401 969 l 908 462 b 925 454 912 457 918 454 b 985 514 942 454 985 498 b 977 531 985 520 982 526 l 508 1001 b 297 1088 452 1056 376 1088 b 3 793 133 1088 3 957 b 91 583 3 715 36 639 l 693 -19 b 875 -96 741 -67 807 -96 b 1088 117 996 -96 1088 -4 z "},"":{"ha":1190,"x_min":0,"x_max":0,"o":"m 298 0 l 298 298 l 893 298 l 893 0 z m 992 0 l 992 322 b 918 397 992 363 959 397 l 273 397 b 198 322 232 397 198 363 l 198 0 l 99 0 l 99 992 l 198 992 l 198 670 b 273 595 198 629 232 595 l 719 595 b 794 670 760 595 794 629 l 794 992 b 850 969 809 992 839 980 l 1068 751 b 1091 694 1078 741 1091 709 l 1091 0 z m 694 719 b 670 694 694 706 683 694 l 521 694 b 496 719 508 694 496 706 l 496 967 b 521 992 496 980 508 992 l 670 992 b 694 967 683 992 694 980 l 694 719 z m 1190 694 b 1138 822 1190 736 1167 792 l 921 1039 b 794 1091 891 1068 835 1091 l 74 1091 b 0 1017 33 1091 0 1058 l 0 -25 b 74 -99 0 -66 33 -99 l 1116 -99 b 1190 -25 1157 -99 1190 -66 z "},"":{"ha":1190,"x_min":0,"x_max":0,"o":"m 1190 868 b 967 1091 1190 991 1090 1091 l 223 1091 b 0 868 100 1091 0 991 l 0 124 b 223 -99 0 1 100 -99 l 967 -99 b 1190 124 1090 -99 1190 1 z "},"":{"ha":1190,"x_min":0,"x_max":0,"o":"m 1190 149 b 1141 198 1190 176 1168 198 l 50 198 b 0 149 22 198 0 176 l 0 50 b 50 0 0 22 22 0 l 1141 0 b 1190 50 1168 0 1190 22 z m 1190 546 b 1141 595 1190 573 1168 595 l 50 595 b 0 546 22 595 0 573 l 0 446 b 50 397 0 419 22 397 l 1141 397 b 1190 446 1168 397 1190 419 z m 1190 942 b 1141 992 1190 970 1168 992 l 50 992 b 0 942 22 992 0 970 l 0 843 b 50 794 0 816 22 794 l 1141 794 b 1190 843 1168 794 1190 816 z "},"":{"ha":1389,"x_min":0,"x_max":0,"o":"m 298 99 b 149 248 298 181 231 248 b 0 99 67 248 0 181 b 149 -50 0 17 67 -50 b 298 99 231 -50 298 17 z m 298 496 b 149 645 298 578 231 645 b 0 496 67 645 0 578 b 149 347 0 414 67 347 b 298 496 231 347 298 414 z m 1389 174 b 1364 198 1389 187 1377 198 l 422 198 b 397 174 408 198 397 187 l 397 25 b 422 0 397 12 408 0 l 1364 0 b 1389 25 1377 0 1389 12 z m 298 893 b 149 1042 298 975 231 1042 b 0 893 67 1042 0 975 b 149 744 0 811 67 744 b 298 893 231 744 298 811 z m 1389 570 b 1364 595 1389 584 1377 595 l 422 595 b 397 570 408 595 397 584 l 397 422 b 422 397 397 408 408 397 l 1364 397 b 1389 422 1377 397 1389 408 z m 1389 967 b 1364 992 1389 980 1377 992 l 422 992 b 397 967 408 992 397 980 l 397 818 b 422 794 397 805 408 794 l 1364 794 b 1389 818 1377 794 1389 805 z "},"":{"ha":1389,"x_min":0,"x_max":0,"o":"m 295 -65 b 209 41 295 -12 261 29 l 283 130 l 283 198 l 25 198 l 25 81 l 107 81 l 107 122 b 182 123 132 122 157 123 l 182 122 b 95 17 149 92 123 53 l 115 -26 b 197 -70 147 -24 197 -26 b 141 -114 197 -101 168 -114 b 59 -79 112 -114 80 -98 l 15 -147 b 148 -198 50 -182 99 -198 b 295 -65 229 -198 295 -150 z m 297 421 l 215 421 l 215 374 l 117 374 b 288 575 119 435 288 460 b 153 694 288 652 226 694 b 16 611 95 694 42 664 l 82 565 b 145 610 95 587 118 610 b 187 570 171 610 187 596 b 12 339 187 505 12 483 b 16 298 12 326 14 312 l 297 298 z m 1389 174 b 1364 198 1389 188 1377 198 l 422 198 b 397 174 408 198 397 188 l 397 25 b 422 0 397 12 408 0 l 1364 0 b 1389 25 1377 0 1389 12 z m 298 870 l 214 870 l 214 1184 l 132 1184 l 26 1085 l 81 1026 b 120 1068 96 1039 112 1051 l 122 1068 l 122 1059 b 121 870 122 996 121 933 l 38 870 l 38 794 l 298 794 z m 1389 570 b 1364 595 1389 584 1377 595 l 422 595 b 397 570 408 595 397 584 l 397 422 b 422 397 397 408 408 397 l 1364 397 b 1389 422 1377 397 1389 408 z m 1389 967 b 1364 992 1389 980 1377 992 l 422 992 b 397 967 408 992 397 980 l 397 818 b 422 794 397 805 408 794 l 1364 794 b 1389 818 1377 794 1389 805 z "},"":{"ha":1389,"x_min":0,"x_max":0,"o":"m 1364 496 l 25 496 b 0 471 11 496 0 485 l 0 422 b 25 397 0 408 11 397 l 1364 397 b 1389 422 1378 397 1389 408 l 1389 471 b 1364 496 1389 485 1378 496 z m 374 546 l 950 546 b 877 586 929 560 904 573 b 742 637 824 609 780 626 b 526 737 632 669 560 702 b 475 846 492 772 475 808 b 527 959 475 891 492 929 b 668 1004 562 989 609 1004 b 831 934 730 1004 785 981 b 911 775 857 906 884 853 l 922 773 l 987 769 l 996 771 b 1000 806 998 784 1000 795 b 989 948 1000 839 996 887 b 973 1039 984 988 978 1019 b 836 1077 915 1058 870 1070 b 706 1091 778 1086 736 1091 b 401 993 572 1091 470 1059 b 298 753 332 927 298 848 b 335 608 298 707 310 658 b 374 546 346 585 360 564 z m 767 347 b 873 292 821 326 856 307 b 936 171 915 254 936 214 b 900 71 936 135 924 102 b 805 4 877 40 845 17 b 698 -17 767 -10 730 -17 b 595 0 661 -17 626 -12 b 514 44 563 11 536 26 b 452 117 491 63 470 87 b 401 236 443 131 430 171 l 322 235 l 322 201 b 321 119 322 185 319 158 b 322 -2 324 45 322 5 l 322 -12 b 329 -29 322 -20 326 -26 b 384 -50 336 -35 354 -42 l 493 -81 b 644 -99 550 -98 601 -99 b 801 -83 708 -99 760 -94 b 920 -32 842 -73 881 -55 b 1004 31 958 -8 986 13 b 1059 112 1030 57 1048 83 b 1091 276 1081 165 1091 220 b 1086 347 1091 301 1090 326 z "},"":{"ha":1190,"x_min":0,"x_max":0,"o":"m 37 1018 b 151 987 101 1016 139 1005 b 164 822 160 975 164 920 l 164 564 b 177 381 164 484 168 423 b 241 229 188 319 210 268 b 380 135 272 191 319 159 b 600 99 441 111 515 99 b 798 125 675 99 741 108 b 939 194 854 142 901 165 b 1025 289 976 223 1005 255 b 1057 384 1039 312 1049 344 b 1069 619 1065 423 1073 502 b 1052 926 1058 912 1052 926 b 1049 971 1051 946 1049 961 b 1061 1003 1049 986 1054 996 b 1122 1016 1065 1007 1086 1011 b 1187 1026 1145 1017 1166 1021 b 1190 1050 1189 1035 1190 1043 b 1186 1090 1190 1057 1189 1070 l 1172 1091 b 1020 1084 1123 1086 1073 1081 l 861 1091 l 796 1091 l 794 1025 l 805 1022 l 883 1024 b 942 997 905 1025 925 1015 b 961 929 953 986 959 963 l 964 884 b 986 566 976 708 986 705 b 970 388 986 485 980 426 b 929 300 962 361 949 331 b 878 250 919 284 902 268 b 801 211 854 232 829 219 b 653 189 756 196 706 189 b 516 226 608 189 563 201 b 442 297 484 243 460 267 b 402 453 418 339 405 391 l 391 670 l 391 848 b 390 893 391 860 390 874 b 400 995 390 953 393 987 b 461 1015 410 1008 430 1015 b 557 1022 494 1015 526 1017 l 557 1028 l 556 1078 l 556 1089 b 490 1087 545 1088 522 1087 b 377 1084 457 1087 419 1085 b 246 1081 334 1082 291 1081 b 118 1087 234 1081 191 1083 b 31 1090 88 1089 58 1090 b 0 1089 20 1090 10 1090 l 2 1021 b 37 1018 12 1018 23 1018 z m 1190 -74 b 1166 -99 1190 -88 1180 -99 l 25 -99 b 0 -74 11 -99 0 -88 l 0 -25 b 25 0 0 -11 11 0 l 1166 0 b 1190 -25 1180 0 1190 -11 z "},"":{"ha":1290,"x_min":0,"x_max":0,"o":"m 397 124 b 372 99 397 110 386 99 l 124 99 b 99 124 110 99 99 110 l 99 273 b 124 298 99 287 110 298 l 372 298 b 397 273 386 298 397 287 l 397 124 z m 397 422 b 372 397 397 408 386 397 l 124 397 b 99 422 110 397 99 408 l 99 570 b 124 595 99 584 110 595 l 372 595 b 397 570 386 595 397 584 l 397 422 z m 794 124 b 769 99 794 110 783 99 l 521 99 b 496 124 507 99 496 110 l 496 273 b 521 298 496 287 507 298 l 769 298 b 794 273 783 298 794 287 l 794 124 z m 397 719 b 372 694 397 705 386 694 l 124 694 b 99 719 110 694 99 705 l 99 868 b 124 893 99 882 110 893 l 372 893 b 397 868 386 893 397 882 l 397 719 z m 794 422 b 769 397 794 408 783 397 l 521 397 b 496 422 507 397 496 408 l 496 570 b 521 595 496 584 507 595 l 769 595 b 794 570 783 595 794 584 l 794 422 z m 1190 124 b 1166 99 1190 110 1180 99 l 918 99 b 893 124 904 99 893 110 l 893 273 b 918 298 893 287 904 298 l 1166 298 b 1190 273 1180 298 1190 287 l 1190 124 z m 794 719 b 769 694 794 705 783 694 l 521 694 b 496 719 507 694 496 705 l 496 868 b 521 893 496 882 507 893 l 769 893 b 794 868 783 893 794 882 l 794 719 z m 1190 422 b 1166 397 1190 408 1180 397 l 918 397 b 893 422 904 397 893 408 l 893 570 b 918 595 893 584 904 595 l 1166 595 b 1190 570 1180 595 1190 584 l 1190 422 z m 1190 719 b 1166 694 1190 705 1180 694 l 918 694 b 893 719 904 694 893 705 l 893 868 b 918 893 893 882 904 893 l 1166 893 b 1190 868 1180 893 1190 882 l 1190 719 z m 1290 967 b 1166 1091 1290 1035 1234 1091 l 124 1091 b 0 967 56 1091 0 1035 l 0 124 b 124 0 0 56 56 0 l 1166 0 b 1290 124 1234 0 1290 56 z "},"":{"ha":1290,"x_min":0,"x_max":0,"o":"m 922 740 l 839 823 l 1066 1050 l 1149 967 z m 1269 967 b 1255 1002 1269 980 1264 993 l 1101 1156 b 1066 1170 1092 1165 1080 1170 b 1032 1156 1053 1170 1041 1165 l 35 159 b 21 124 26 150 21 137 b 35 89 21 111 26 98 l 188 -64 b 223 -78 198 -74 210 -78 b 258 -64 236 -78 249 -74 l 1255 932 b 1269 967 1264 942 1269 954 z m 222 1115 l 198 1190 l 175 1115 l 99 1091 l 175 1068 l 198 992 l 222 1068 l 298 1091 z m 493 989 l 446 1141 l 400 989 l 248 942 l 400 896 l 446 744 l 493 896 l 645 942 z m 1214 618 l 1190 694 l 1167 618 l 1091 595 l 1167 572 l 1190 496 l 1214 572 l 1290 595 z m 718 1115 l 694 1190 l 671 1115 l 595 1091 l 671 1068 l 694 992 l 718 1068 l 794 1091 z "},"":{"ha":1389,"x_min":0,"x_max":0,"o":"m 496 99 b 397 0 496 45 451 0 b 298 99 343 0 298 45 b 397 198 298 153 343 198 b 496 99 451 198 496 153 z m 198 496 l 198 519 b 205 536 198 522 203 534 l 357 687 b 374 694 359 690 370 694 l 496 694 l 496 496 z m 1190 99 b 1091 0 1190 45 1146 0 b 992 99 1037 0 992 45 b 1091 198 992 153 1037 198 b 1190 99 1146 198 1190 153 z m 1389 942 b 1339 992 1389 970 1366 992 l 546 992 b 496 942 519 992 496 970 l 496 794 l 372 794 b 288 759 344 794 307 778 l 134 605 b 99 446 91 563 99 501 l 99 198 b 50 149 72 198 50 176 b 149 99 50 91 110 99 l 198 99 b 397 -99 198 -10 288 -99 b 595 99 506 -99 595 -10 l 893 99 b 1091 -99 893 -10 982 -99 b 1290 99 1201 -99 1290 -10 b 1389 149 1328 99 1389 91 z "},"":{"ha":1190,"x_min":0,"x_max":0,"o":"m 1190 496 b 595 1091 1190 825 924 1091 b 0 496 267 1091 0 825 b 357 -50 0 252 146 43 b 367 88 355 -8 356 43 b 443 412 367 88 378 136 b 424 506 424 450 424 506 b 539 660 424 594 475 660 b 619 570 593 660 619 619 b 567 360 619 516 584 435 b 660 245 552 296 598 245 b 849 561 773 245 849 390 b 601 790 849 692 761 790 b 308 505 421 790 308 655 b 348 388 308 453 324 416 b 357 354 359 374 360 370 b 344 307 353 343 347 317 b 315 291 340 291 328 286 b 193 519 232 326 193 417 b 618 891 193 688 336 891 b 995 550 846 891 995 726 b 674 142 995 316 865 142 b 529 216 609 142 549 177 b 487 53 494 79 487 53 b 426 -74 474 7 449 -39 b 595 -99 481 -91 536 -99 b 1190 496 924 -99 1190 167 z "},"":{"ha":1190,"x_min":0,"x_max":0,"o":"m 967 1091 l 223 1091 b 0 868 100 1091 0 991 l 0 124 b 223 -99 0 1 100 -99 l 365 -99 b 370 98 360 -57 353 26 b 446 419 370 98 382 146 b 428 512 428 457 428 512 b 541 664 428 599 478 664 b 620 576 594 664 620 624 b 568 367 620 522 586 442 b 661 253 553 305 600 253 b 848 567 773 253 848 397 b 603 792 848 696 761 792 b 313 511 425 792 313 660 b 352 395 313 459 329 423 b 360 362 363 382 364 377 b 349 315 357 351 351 325 b 319 300 345 300 332 295 b 198 525 237 334 198 424 b 619 893 198 692 339 893 b 992 556 844 893 992 730 b 674 152 992 325 863 152 b 530 226 611 152 551 186 b 489 64 496 90 489 64 b 405 -99 473 0 431 -63 l 967 -99 b 1190 124 1090 -99 1190 1 l 1190 868 b 967 1091 1190 991 1090 1091 z "},"":{"ha":1190,"x_min":0,"x_max":0,"o":"m 711 489 b 426 198 711 319 597 198 b 128 496 260 198 128 332 b 426 794 128 660 260 794 b 625 716 505 794 573 764 l 544 638 b 426 684 522 660 483 684 b 240 496 323 684 240 600 b 426 308 240 392 323 308 b 594 436 543 308 587 393 l 426 436 l 426 539 l 426 539 l 706 539 b 711 489 708 524 711 508 z m 978 453 l 978 368 l 893 368 l 893 453 l 808 453 l 808 539 l 893 539 l 893 624 l 978 624 l 978 539 l 1063 539 l 1063 453 z m 1190 868 b 967 1091 1190 991 1090 1091 l 223 1091 b 0 868 100 1091 0 991 l 0 124 b 223 -99 0 1 100 -99 l 967 -99 b 1190 124 1090 -99 1190 1 z "},"":{"ha":1786,"x_min":0,"x_max":0,"o":"m 1114 483 b 1104 577 1114 520 1110 549 l 568 577 l 568 577 l 568 382 l 891 382 b 568 137 877 299 793 137 b 216 496 374 137 216 298 b 568 855 216 694 374 855 b 794 767 679 855 753 808 l 949 915 b 568 1064 849 1008 722 1064 b 0 496 254 1064 0 810 b 568 -72 0 182 254 -72 b 1114 483 896 -72 1114 158 z m 1786 577 l 1624 577 l 1624 739 l 1461 739 l 1461 577 l 1299 577 l 1299 415 l 1461 415 l 1461 253 l 1624 253 l 1624 415 l 1786 415 z "},"":{"ha":1488,"x_min":0,"x_max":0,"o":"m 595 298 l 595 372 l 694 372 l 694 595 l 693 595 b 650 551 680 576 669 567 l 591 613 l 705 719 l 794 719 l 794 372 l 893 372 l 893 298 z m 992 496 b 744 818 992 637 907 818 b 496 496 581 818 496 637 b 744 174 496 355 581 174 b 992 496 907 174 992 355 z m 1389 298 b 1190 99 1280 298 1190 208 l 298 99 b 99 298 298 208 208 298 l 99 694 b 298 893 208 694 298 784 l 1190 893 b 1389 694 1190 784 1280 694 l 1389 298 z m 1488 942 b 1438 992 1488 970 1466 992 l 50 992 b 0 942 22 992 0 970 l 0 50 b 50 0 0 22 22 0 l 1438 0 b 1488 50 1466 0 1488 22 z "},"":{"ha":794,"x_min":0,"x_max":0,"o":"m 794 645 b 744 694 794 672 771 694 l 50 694 b 0 645 22 694 0 672 b 15 610 0 632 5 619 l 362 263 b 397 248 371 253 384 248 b 432 263 410 248 422 253 l 779 610 b 794 645 788 619 794 632 z "},"":{"ha":794,"x_min":0,"x_max":0,"o":"m 794 248 b 779 283 794 261 788 274 l 432 630 b 397 645 422 639 410 645 b 362 630 384 645 371 639 l 15 283 b 0 248 5 274 0 261 b 50 198 0 221 22 198 l 744 198 b 794 248 771 198 794 221 z "},"":{"ha":496,"x_min":0,"x_max":0,"o":"m 496 843 b 446 893 496 870 474 893 b 412 878 433 893 421 887 l 64 531 b 50 496 55 522 50 509 b 64 461 50 483 55 470 l 412 114 b 446 99 421 105 433 99 b 496 149 474 99 496 122 z "},"":{"ha":496,"x_min":0,"x_max":0,"o":"m 446 496 b 432 531 446 509 441 522 l 84 878 b 50 893 75 887 63 893 b 0 843 22 893 0 870 l 0 149 b 50 99 0 122 22 99 b 84 114 63 99 75 105 l 432 461 b 446 496 441 470 446 483 z "},"":{"ha":1290,"x_min":0,"x_max":0,"o":"m 124 0 b 99 25 111 0 99 12 l 99 893 l 595 893 l 595 0 z m 1190 25 b 1166 0 1190 12 1179 0 l 694 0 l 694 893 l 1190 893 l 1190 25 z m 1290 967 b 1166 1091 1290 1035 1234 1091 l 124 1091 b 0 967 56 1091 0 1035 l 0 25 b 124 -99 0 -43 56 -99 l 1166 -99 b 1290 25 1234 -99 1290 -43 z "},"":{"ha":794,"x_min":0,"x_max":0,"o":"m 794 347 b 744 397 794 374 771 397 l 50 397 b 0 347 22 397 0 374 b 15 312 0 334 5 322 l 362 -35 b 397 -50 371 -44 384 -50 b 432 -35 410 -50 422 -44 l 779 312 b 794 347 788 322 794 334 z m 794 645 b 779 680 794 658 788 670 l 432 1027 b 397 1042 422 1036 410 1042 b 362 1027 384 1042 371 1036 l 15 680 b 0 645 5 670 0 658 b 50 595 0 618 22 595 l 744 595 b 794 645 771 595 794 618 z "},"":{"ha":794,"x_min":0,"x_max":0,"o":"m 794 347 b 744 397 794 374 771 397 l 50 397 b 0 347 22 397 0 374 b 15 312 0 334 5 322 l 362 -35 b 397 -50 371 -44 384 -50 b 432 -35 410 -50 422 -44 l 779 312 b 794 347 788 322 794 334 z "},"":{"ha":794,"x_min":0,"x_max":0,"o":"m 794 645 b 779 680 794 658 788 670 l 432 1027 b 397 1042 422 1036 410 1042 b 362 1027 384 1042 371 1036 l 15 680 b 0 645 5 670 0 658 b 50 595 0 618 22 595 l 744 595 b 794 645 771 595 794 618 z "},"":{"ha":1389,"x_min":0,"x_max":0,"o":"m 1389 640 b 1311 573 1366 615 1339 592 b 925 305 1182 485 1052 397 b 695 198 860 257 780 198 l 694 198 l 694 198 b 463 305 609 198 529 257 b 78 573 337 398 207 485 b 0 640 50 592 23 615 l 0 25 b 124 -99 0 -43 56 -99 l 1265 -99 b 1389 25 1333 -99 1389 -43 z m 1389 868 b 1265 992 1389 936 1332 992 l 124 992 b 0 851 41 992 0 927 b 133 656 0 780 78 693 b 495 404 253 572 375 488 b 694 298 546 369 631 298 l 694 298 l 695 298 b 894 404 758 298 843 369 b 1256 656 1014 488 1135 572 b 1389 868 1325 703 1389 781 z "},"":{"ha":1190,"x_min":0,"x_max":0,"o":"m 270 706 l 15 706 l 15 -62 l 270 -62 z m 287 943 b 144 1076 286 1018 232 1076 b 0 943 57 1076 0 1018 b 141 811 0 870 55 811 l 143 811 l 143 811 b 287 943 232 811 288 870 z m 1190 378 b 897 724 1190 614 1065 724 b 665 594 759 724 698 647 l 667 594 l 667 706 l 412 706 b 412 -62 412 706 415 634 l 412 -62 l 667 -62 l 667 367 b 675 429 667 390 669 412 b 806 522 694 475 736 522 b 935 349 898 522 935 452 l 935 -62 l 1190 -62 z "},"":{"ha":1190,"x_min":0,"x_max":0,"o":"m 1190 496 b 595 1091 1190 824 923 1091 b 185 927 443 1091 295 1030 l 84 1027 b 31 1038 71 1042 49 1046 b 0 992 12 1030 0 1012 l 0 645 b 50 595 0 618 22 595 l 397 595 b 443 626 417 595 435 608 b 432 680 450 644 446 666 l 326 787 b 595 893 398 854 494 893 b 992 496 814 893 992 715 b 595 99 992 277 814 99 b 282 253 472 99 358 155 b 264 263 278 259 271 262 b 245 256 257 263 250 260 l 139 149 b 137 115 130 140 129 126 b 595 -99 250 -21 418 -99 b 1190 496 923 -99 1190 168 z "},"":{"ha":1389,"x_min":0,"x_max":0,"o":"m 1373 0 b 1344 71 1373 26 1362 52 l 1063 352 b 992 381 1044 370 1018 381 b 918 347 963 381 939 368 l 719 546 l 817 643 b 828 670 824 650 828 660 b 817 696 828 680 824 689 b 893 651 840 673 857 651 b 946 673 913 651 931 659 b 1011 769 973 699 1011 727 b 989 822 1011 788 1003 808 l 673 1138 b 620 1159 659 1152 639 1159 b 524 1094 578 1159 550 1122 b 502 1042 510 1080 502 1062 b 547 966 502 1006 524 989 b 521 977 540 973 531 977 b 494 966 511 977 501 973 l 225 696 b 214 670 218 689 214 680 b 225 643 214 660 218 650 b 149 688 202 667 184 688 b 96 667 129 688 111 680 b 31 570 68 640 31 612 b 53 518 31 551 39 532 l 369 202 b 422 180 383 188 402 180 b 518 245 463 180 491 217 b 539 298 532 260 539 277 b 494 374 539 333 518 350 b 521 363 501 367 511 363 b 547 374 531 363 540 367 l 645 471 l 843 273 b 810 198 822 252 810 228 b 839 129 810 172 821 146 l 1121 -153 b 1190 -182 1139 -171 1164 -182 b 1261 -153 1217 -182 1242 -171 l 1344 -70 b 1373 0 1362 -52 1373 -26 z "},"":{"ha":1389,"x_min":0,"x_max":0,"o":"m 298 298 b 198 198 298 243 253 198 b 99 298 143 198 99 243 b 198 397 99 353 143 397 b 298 298 253 397 298 353 z m 446 645 b 347 546 446 590 402 546 b 248 645 292 546 248 590 b 347 744 248 700 292 744 b 446 645 402 744 446 700 z m 778 272 b 839 111 829 237 855 174 b 656 5 818 32 736 -16 b 550 187 577 26 529 107 b 682 297 567 250 621 292 l 760 593 b 821 629 767 619 794 636 l 821 629 b 856 568 847 622 863 594 z m 1290 298 b 1190 198 1290 243 1246 198 b 1091 298 1135 198 1091 243 b 1190 397 1091 353 1135 397 b 1290 298 1246 397 1290 353 z m 794 794 b 694 694 794 739 749 694 b 595 794 639 694 595 739 b 694 893 595 849 639 893 b 794 794 749 893 794 849 z m 1141 645 b 1042 546 1141 590 1097 546 b 942 645 987 546 942 590 b 1042 744 942 700 987 744 b 1141 645 1097 744 1141 700 z m 1389 298 b 694 992 1389 680 1077 992 b 0 298 312 992 0 680 b 109 -77 0 164 38 35 b 151 -99 119 -91 134 -99 l 1238 -99 b 1280 -77 1255 -99 1270 -91 b 1389 298 1351 36 1389 164 z "},"":{"ha":1389,"x_min":0,"x_max":0,"o":"m 694 893 b 1290 496 1017 893 1290 711 b 694 99 1290 281 1017 99 b 594 105 661 99 627 102 l 550 110 l 516 81 b 303 -52 453 25 381 -19 b 357 81 323 -16 343 26 l 378 156 l 311 195 b 99 496 177 270 99 381 b 694 893 99 711 372 893 z m 1389 496 b 694 992 1389 770 1078 992 l 694 992 b 0 496 311 992 0 770 b 262 108 0 339 102 198 b 121 -123 226 -22 170 -68 b 100 -168 109 -137 96 -149 b 100 -169 100 -168 100 -168 b 133 -198 104 -186 118 -198 b 137 -198 134 -198 136 -198 b 226 -181 167 -195 198 -189 b 582 6 360 -147 481 -84 b 694 0 618 2 656 0 b 1389 496 1078 0 1389 222 z "},"":{"ha":1389,"x_min":0,"x_max":0,"o":"m 546 893 b 992 595 787 893 992 756 b 546 298 992 434 787 298 b 427 308 505 298 466 301 l 386 316 l 352 292 b 304 262 336 281 320 271 l 331 327 l 256 370 b 99 595 157 428 99 510 b 546 893 99 756 304 893 z m 546 992 b 0 595 244 992 0 815 b 206 284 0 470 81 357 b 115 156 180 220 146 190 b 100 122 107 146 97 136 b 100 122 100 122 100 122 b 125 99 102 109 113 99 b 127 99 126 99 126 99 b 194 112 150 102 173 106 b 409 211 272 132 345 165 b 546 198 453 203 498 198 b 1091 595 847 198 1091 376 b 546 992 1091 815 847 992 z m 1183 86 b 1389 397 1308 159 1389 270 b 1173 713 1389 526 1304 641 b 1190 595 1184 675 1190 636 b 990 234 1190 457 1119 329 b 546 99 870 147 712 99 b 477 102 523 99 500 101 b 843 0 574 39 703 0 b 980 12 891 0 936 5 b 1195 -87 1044 -33 1117 -67 b 1262 -99 1216 -92 1239 -96 b 1289 -77 1274 -101 1286 -91 b 1289 -77 1289 -77 1289 -77 b 1273 -43 1292 -62 1282 -53 b 1183 86 1243 -9 1209 22 z "},"":{"ha":694,"x_min":0,"x_max":0,"o":"m 686 752 b 660 763 679 759 670 763 b 650 762 656 763 653 763 l 343 686 l 476 1045 b 480 1059 478 1049 480 1054 b 445 1091 480 1077 464 1091 l 445 1091 l 191 1091 b 157 1066 174 1091 160 1081 l 1 427 b 11 397 -2 416 2 405 b 35 388 17 391 26 388 b 44 389 38 388 41 388 l 359 467 l 206 -159 b 229 -197 202 -175 212 -191 b 240 -198 233 -198 237 -198 b 273 -179 254 -198 267 -191 l 691 718 b 686 752 697 729 694 742 z "},"":{"ha":1389,"x_min":0,"x_max":0,"o":"m 1389 223 b 1314 298 1389 264 1356 298 l 1240 298 l 1240 446 b 1141 546 1240 501 1195 546 l 744 546 l 744 694 l 818 694 b 893 769 860 694 893 728 l 893 1017 b 818 1091 893 1058 860 1091 l 570 1091 b 496 1017 529 1091 496 1058 l 496 769 b 570 694 496 728 529 694 l 645 694 l 645 546 l 248 546 b 149 446 194 546 149 501 l 149 298 l 74 298 b 0 223 33 298 0 264 l 0 -25 b 74 -99 0 -66 33 -99 l 322 -99 b 397 -25 363 -99 397 -66 l 397 223 b 322 298 397 264 363 298 l 248 298 l 248 446 l 645 446 l 645 298 l 570 298 b 496 223 529 298 496 264 l 496 -25 b 570 -99 496 -66 529 -99 l 818 -99 b 893 -25 860 -99 893 -66 l 893 223 b 818 298 893 264 860 298 l 744 298 l 744 446 l 1141 446 l 1141 298 l 1066 298 b 992 223 1025 298 992 264 l 992 -25 b 1066 -99 992 -66 1025 -99 l 1314 -99 b 1389 -25 1356 -99 1389 -66 z "},"":{"ha":1290,"x_min":0,"x_max":0,"o":"m 694 549 b 645 557 678 554 662 557 b 595 549 628 557 612 554 l 595 99 b 496 0 595 47 548 0 b 397 99 444 0 397 47 b 347 149 397 126 374 149 b 298 99 320 149 298 126 b 496 -99 298 -9 388 -99 b 694 99 604 -99 694 -9 z m 1290 528 b 1289 533 1290 530 1290 532 b 645 992 1219 826 933 992 b 1 533 355 992 72 826 b 0 528 0 532 0 530 b 25 503 0 515 12 503 b 43 511 32 503 37 506 b 194 582 88 553 129 582 b 373 478 267 582 331 536 b 398 438 382 465 389 451 b 419 425 403 429 409 425 b 442 438 430 425 436 429 b 467 478 450 451 457 465 b 645 582 508 536 571 582 b 823 478 718 582 781 536 b 848 438 832 465 839 451 b 870 425 853 429 860 425 b 892 438 880 425 887 429 b 917 478 901 451 908 465 b 1096 582 959 536 1022 582 b 1247 511 1160 582 1202 553 b 1265 503 1252 506 1258 503 b 1290 528 1278 503 1290 515 z m 694 1091 b 645 1141 694 1118 672 1141 b 595 1091 618 1141 595 1118 l 595 1015 b 645 1017 612 1016 629 1017 b 694 1015 661 1017 678 1016 z "},"":{"ha":1389,"x_min":0,"x_max":0,"o":"m 595 -99 l 595 794 l 893 794 l 893 471 b 967 397 893 430 926 397 l 1290 397 l 1290 -99 z m 794 1017 b 769 992 794 1004 782 992 l 223 992 b 198 1017 210 992 198 1004 l 198 1066 b 223 1091 198 1080 210 1091 l 769 1091 b 794 1066 782 1091 794 1080 l 794 1017 z m 992 496 l 992 728 l 1224 496 z m 1389 397 b 1336 524 1389 438 1366 494 l 1020 840 b 992 862 1011 849 1002 856 l 992 1116 b 918 1190 992 1157 959 1190 l 74 1190 b 0 1116 33 1190 0 1157 l 0 74 b 74 0 0 33 33 0 l 496 0 l 496 -124 b 570 -198 496 -165 529 -198 l 1314 -198 b 1389 -124 1356 -198 1389 -165 z "},"":{"ha":794,"x_min":0,"x_max":0,"o":"m 570 744 b 397 868 570 830 469 868 b 372 843 384 868 372 856 b 397 818 372 830 384 818 b 521 744 438 818 521 798 b 546 719 521 731 532 719 b 570 744 559 719 570 731 z m 694 744 b 642 605 694 694 674 643 b 594 553 627 587 610 571 b 485 322 539 488 493 410 l 308 322 b 199 553 301 410 254 488 b 152 605 184 571 167 587 b 99 744 119 643 99 694 b 397 992 99 899 257 992 b 694 744 537 992 694 899 z m 794 744 b 397 1091 794 955 593 1091 b 0 744 201 1091 0 955 b 80 536 0 664 26 595 b 210 312 133 477 204 395 b 174 248 188 298 174 274 b 193 198 174 229 181 212 b 174 149 181 185 174 167 b 208 86 174 123 187 100 b 198 50 202 75 198 62 b 283 -25 198 -1 238 -25 b 397 -99 303 -70 348 -99 b 511 -25 446 -99 491 -70 b 595 50 556 -25 595 -1 b 585 86 595 62 591 75 b 620 149 607 100 620 123 b 601 198 620 167 613 185 b 620 248 613 212 620 229 b 584 312 620 274 606 298 b 714 536 590 395 660 477 b 794 744 767 595 794 664 z "},"":{"ha":1389,"x_min":0,"x_max":0,"o":"m 1389 273 b 1364 298 1389 287 1377 298 l 298 298 l 298 446 b 273 471 298 460 286 471 b 255 464 267 471 260 469 l 7 216 b 0 198 2 212 0 205 b 7 181 0 192 2 186 l 254 -67 b 273 -74 260 -71 266 -74 b 298 -50 287 -74 298 -63 l 298 99 l 1364 99 b 1389 124 1377 99 1389 111 z m 1389 694 b 1382 712 1389 701 1387 708 l 1135 960 b 1116 967 1129 964 1123 967 b 1091 942 1102 967 1091 956 l 1091 794 l 25 794 b 0 769 12 794 0 782 l 0 620 b 25 595 0 607 12 595 l 1091 595 l 1091 446 b 1116 422 1091 433 1103 422 b 1134 429 1122 422 1129 424 l 1382 677 b 1389 694 1387 681 1389 688 z "},"":{"ha":1488,"x_min":0,"x_max":0,"o":"m 992 471 b 984 453 992 464 989 458 l 712 181 b 694 174 708 176 701 174 b 677 181 687 174 681 176 l 404 453 b 397 471 399 458 397 465 b 422 496 397 484 408 496 l 595 496 l 595 769 b 620 794 595 782 607 794 l 769 794 b 794 769 782 794 794 782 l 794 496 l 967 496 b 992 471 981 496 992 485 z m 1488 298 b 1258 587 1488 436 1393 556 b 1290 694 1279 619 1290 656 b 1091 893 1290 804 1201 893 b 963 845 1044 893 998 876 b 595 1091 901 994 756 1091 b 198 694 376 1091 198 914 b 200 661 198 684 199 673 b 0 347 78 605 0 482 b 347 0 0 156 156 0 l 1190 0 b 1488 298 1355 0 1488 133 z "},"":{"ha":1488,"x_min":0,"x_max":0,"o":"m 992 521 b 967 496 992 508 981 496 l 794 496 l 794 223 b 769 198 794 210 782 198 l 620 198 b 595 223 607 198 595 210 l 595 496 l 422 496 b 397 521 408 496 397 507 b 405 539 397 528 400 534 l 677 811 b 694 818 681 816 688 818 b 712 811 701 818 708 816 l 985 539 b 992 521 990 534 992 527 z m 1488 298 b 1258 587 1488 436 1393 556 b 1290 694 1279 619 1290 656 b 1091 893 1290 804 1201 893 b 963 845 1044 893 998 876 b 595 1091 901 994 756 1091 b 198 694 376 1091 198 914 b 200 661 198 684 199 673 b 0 347 78 605 0 482 b 347 0 0 156 156 0 l 1190 0 b 1488 298 1355 0 1488 133 z "},"":{"ha":1091,"x_min":0,"x_max":0,"o":"m 298 149 b 248 198 298 176 275 198 b 198 149 221 198 198 176 b 248 99 198 122 221 99 b 298 149 275 99 298 122 z m 1091 102 b 876 539 1091 256 1060 499 b 893 370 898 487 893 426 b 992 198 954 335 992 269 l 992 129 b 1017 74 1008 115 1017 95 b 942 0 1017 33 984 0 b 868 74 901 0 868 33 b 893 129 868 95 877 115 l 893 198 b 794 298 893 253 848 298 b 694 198 739 298 694 253 l 694 129 b 719 74 710 115 719 95 b 645 0 719 33 686 0 b 570 74 604 0 570 33 b 595 129 570 95 580 115 l 595 198 b 794 397 595 308 684 397 l 794 446 b 774 519 794 472 791 498 b 546 438 709 467 629 438 b 317 519 463 438 382 467 b 298 446 300 498 298 472 l 298 289 b 397 149 357 268 397 212 b 248 0 397 67 330 0 b 99 149 166 0 99 67 b 198 289 99 212 139 268 l 198 446 b 215 539 198 478 203 510 b 0 102 31 499 0 256 b 207 -99 0 -25 83 -99 l 884 -99 b 1091 102 1008 -99 1091 -25 z m 843 794 b 546 1091 843 958 710 1091 b 248 794 381 1091 248 958 b 546 496 248 629 381 496 b 843 794 710 496 843 629 z "},"":{"ha":1091,"x_min":0,"x_max":0,"o":"m 992 645 b 942 595 992 618 970 595 b 893 645 915 595 893 618 b 942 694 893 672 915 694 b 992 645 970 694 992 672 z m 1091 645 b 942 794 1091 727 1025 794 b 794 645 860 794 794 727 b 893 505 794 580 835 525 l 893 198 b 645 0 893 89 781 0 b 397 198 508 0 397 89 l 397 301 b 694 595 565 322 694 446 l 694 992 b 645 1042 694 1019 672 1042 b 632 1040 640 1042 636 1041 b 546 1091 615 1070 583 1091 b 446 992 491 1091 446 1047 b 546 893 446 937 491 893 b 595 907 563 893 581 898 l 595 595 b 347 397 595 486 484 397 b 99 595 211 397 99 486 l 99 907 b 149 893 114 898 131 893 b 248 992 204 893 248 937 b 149 1091 248 1047 204 1091 b 62 1040 112 1091 79 1070 b 50 1042 58 1041 54 1042 b 0 992 22 1042 0 1019 l 0 595 b 298 301 0 446 129 322 l 298 198 b 645 -99 298 34 453 -99 b 992 198 836 -99 992 34 l 992 505 b 1091 645 1050 525 1091 580 z "},"":{"ha":1389,"x_min":0,"x_max":0,"o":"m 496 893 l 496 992 l 893 992 l 893 893 z m 223 893 l 174 893 b 0 719 78 893 0 815 l 0 74 b 174 -99 0 -21 78 -99 l 223 -99 z m 1091 893 l 992 893 l 992 1017 b 918 1091 992 1058 959 1091 l 471 1091 b 397 1017 430 1091 397 1058 l 397 893 l 298 893 l 298 -99 l 1091 -99 z m 1389 719 b 1215 893 1389 815 1311 893 l 1166 893 l 1166 -99 l 1215 -99 b 1389 74 1311 -99 1389 -21 z "},"":{"ha":1389,"x_min":0,"x_max":0,"o":"m 707 -124 b 694 -136 707 -131 701 -136 b 558 0 619 -136 558 -75 b 570 12 558 7 563 12 b 583 0 577 12 583 7 b 694 -112 583 -61 633 -112 b 707 -124 701 -112 707 -117 z m 1339 99 b 1091 744 1225 196 1091 370 b 763 1086 1091 893 968 1056 b 769 1116 767 1095 769 1105 b 694 1190 769 1157 736 1190 b 620 1116 653 1190 620 1157 b 626 1086 620 1105 622 1095 b 298 744 421 1056 298 893 b 50 99 298 370 164 196 b 149 0 50 45 95 0 l 496 0 b 694 -198 496 -109 585 -198 b 893 0 804 -198 893 -109 l 1240 0 b 1339 99 1294 0 1339 45 z "},"":{"ha":1488,"x_min":0,"x_max":0,"o":"m 1290 694 b 1141 546 1290 612 1223 546 l 1091 546 l 1091 843 l 1141 843 b 1290 694 1223 843 1290 777 z m 0 99 b 198 -99 0 -10 89 -99 l 1190 -99 b 1389 99 1300 -99 1389 -10 z m 1438 694 b 1141 992 1438 859 1305 992 l 248 992 b 198 942 221 992 198 970 l 198 372 b 372 198 198 277 277 198 l 918 198 b 1091 372 1013 198 1091 277 l 1091 397 l 1141 397 b 1438 694 1305 397 1438 530 z "},"":{"ha":1091,"x_min":0,"x_max":0,"o":"m 496 1141 b 446 1190 496 1168 474 1190 b 397 1141 419 1190 397 1168 l 397 818 b 347 769 397 791 374 769 b 298 818 320 769 298 791 l 298 1141 b 248 1190 298 1168 275 1190 b 198 1141 221 1190 198 1168 l 198 818 b 149 769 198 791 176 769 b 99 818 122 769 99 791 l 99 1141 b 50 1190 99 1168 77 1190 b 0 1141 22 1190 0 1168 l 0 645 b 99 505 0 582 40 525 l 99 -99 b 198 -198 99 -153 144 -198 l 298 -198 b 397 -99 352 -198 397 -153 l 397 505 b 496 645 456 525 496 582 z m 1091 1141 b 1042 1190 1091 1168 1069 1190 l 843 1190 b 595 942 707 1190 595 1079 l 595 322 b 620 298 595 309 607 298 l 794 298 l 794 -99 b 893 -198 794 -153 839 -198 l 992 -198 b 1091 -99 1046 -198 1091 -153 z "},"":{"ha":1190,"x_min":0,"x_max":0,"o":"m 1138 896 l 896 1138 b 769 1190 867 1166 810 1190 l 74 1190 b 0 1116 33 1190 0 1157 l 0 -124 b 74 -198 0 -165 33 -198 l 1116 -198 b 1190 -124 1157 -198 1190 -165 l 1190 769 b 1138 896 1190 810 1166 867 z m 794 1085 b 825 1068 807 1080 820 1073 l 1068 825 b 1085 794 1073 820 1080 807 l 794 794 z m 1091 -99 l 99 -99 l 99 1091 l 694 1091 l 694 769 b 769 694 694 728 728 694 l 1091 694 z m 298 570 l 298 521 b 322 496 298 507 308 496 l 868 496 b 893 521 882 496 893 507 l 893 570 b 868 595 893 584 882 595 l 322 595 b 298 570 308 595 298 584 z m 868 397 l 322 397 b 298 372 308 397 298 386 l 298 322 b 322 298 298 308 308 298 l 868 298 b 893 322 882 298 893 308 l 893 372 b 868 397 893 386 882 397 z m 868 198 l 322 198 b 298 174 308 198 298 188 l 298 124 b 322 99 298 110 308 99 l 868 99 b 893 124 882 99 893 110 l 893 174 b 868 198 893 188 882 198 z "},"":{"ha":1091,"x_min":0,"x_max":0,"o":"m 298 174 b 273 198 298 187 286 198 l 223 198 b 198 174 210 198 198 187 l 198 124 b 223 99 198 111 210 99 l 273 99 b 298 124 286 99 298 111 z m 298 372 b 273 397 298 385 286 397 l 223 397 b 198 372 210 397 198 385 l 198 322 b 223 298 198 309 210 298 l 273 298 b 298 322 286 298 298 309 z m 496 372 b 471 397 496 385 484 397 l 422 397 b 397 372 408 397 397 385 l 397 322 b 422 298 397 309 408 298 l 471 298 b 496 322 484 298 496 309 z m 298 570 b 273 595 298 584 286 595 l 223 595 b 198 570 210 595 198 584 l 198 521 b 223 496 198 508 210 496 l 273 496 b 298 521 286 496 298 508 z m 893 174 b 868 198 893 187 881 198 l 818 198 b 794 174 805 198 794 187 l 794 124 b 818 99 794 111 805 99 l 868 99 b 893 124 881 99 893 111 z m 694 372 b 670 397 694 385 683 397 l 620 397 b 595 372 607 397 595 385 l 595 322 b 620 298 595 309 607 298 l 670 298 b 694 322 683 298 694 309 z m 496 570 b 471 595 496 584 484 595 l 422 595 b 397 570 408 595 397 584 l 397 521 b 422 496 397 508 408 496 l 471 496 b 496 521 484 496 496 508 z m 298 769 b 273 794 298 782 286 794 l 223 794 b 198 769 210 794 198 782 l 198 719 b 223 694 198 706 210 694 l 273 694 b 298 719 286 694 298 706 z m 893 372 b 868 397 893 385 881 397 l 818 397 b 794 372 805 397 794 385 l 794 322 b 818 298 794 309 805 298 l 868 298 b 893 322 881 298 893 309 z m 694 570 b 670 595 694 584 683 595 l 620 595 b 595 570 607 595 595 584 l 595 521 b 620 496 595 508 607 496 l 670 496 b 694 521 683 496 694 508 z m 496 769 b 471 794 496 782 484 794 l 422 794 b 397 769 408 794 397 782 l 397 719 b 422 694 397 706 408 694 l 471 694 b 496 719 484 694 496 706 z m 298 967 b 273 992 298 980 286 992 l 223 992 b 198 967 210 992 198 980 l 198 918 b 223 893 198 904 210 893 l 273 893 b 298 918 286 893 298 904 z m 893 570 b 868 595 893 584 881 595 l 818 595 b 794 570 805 595 794 584 l 794 521 b 818 496 794 508 805 496 l 868 496 b 893 521 881 496 893 508 z m 694 769 b 670 794 694 782 683 794 l 620 794 b 595 769 607 794 595 782 l 595 719 b 620 694 595 706 607 694 l 670 694 b 694 719 683 694 694 706 z m 496 967 b 471 992 496 980 484 992 l 422 992 b 397 967 408 992 397 980 l 397 918 b 422 893 397 904 408 893 l 471 893 b 496 918 484 893 496 904 z m 893 769 b 868 794 893 782 881 794 l 818 794 b 794 769 805 794 794 782 l 794 719 b 818 694 794 706 805 694 l 868 694 b 893 719 881 694 893 706 z m 694 967 b 670 992 694 980 683 992 l 620 992 b 595 967 607 992 595 980 l 595 918 b 620 893 595 904 607 893 l 670 893 b 694 918 683 893 694 904 z m 893 967 b 868 992 893 980 881 992 l 818 992 b 794 967 805 992 794 980 l 794 918 b 818 893 794 904 805 893 l 868 893 b 893 918 881 893 893 904 z m 694 -99 l 694 74 b 670 99 694 88 683 99 l 422 99 b 397 74 408 99 397 88 l 397 -99 l 99 -99 l 99 1091 l 992 1091 l 992 -99 z m 1091 1141 b 1042 1190 1091 1168 1069 1190 l 50 1190 b 0 1141 22 1190 0 1168 l 0 -149 b 50 -198 0 -176 22 -198 l 1042 -198 b 1091 -149 1069 -198 1091 -176 z "},"":{"ha":1091,"x_min":0,"x_max":0,"o":"m 298 174 b 273 198 298 187 286 198 l 223 198 b 198 174 210 198 198 187 l 198 124 b 223 99 198 111 210 99 l 273 99 b 298 124 286 99 298 111 z m 298 372 b 273 397 298 385 286 397 l 223 397 b 198 372 210 397 198 385 l 198 322 b 223 298 198 309 210 298 l 273 298 b 298 322 286 298 298 309 z m 496 372 b 471 397 496 385 484 397 l 422 397 b 397 372 408 397 397 385 l 397 322 b 422 298 397 309 408 298 l 471 298 b 496 322 484 298 496 309 z m 298 570 b 273 595 298 584 286 595 l 223 595 b 198 570 210 595 198 584 l 198 521 b 223 496 198 508 210 496 l 273 496 b 298 521 286 496 298 508 z m 893 174 b 868 198 893 187 881 198 l 818 198 b 794 174 805 198 794 187 l 794 124 b 818 99 794 111 805 99 l 868 99 b 893 124 881 99 893 111 z m 694 372 b 670 397 694 385 683 397 l 620 397 b 595 372 607 397 595 385 l 595 322 b 620 298 595 309 607 298 l 670 298 b 694 322 683 298 694 309 z m 496 570 b 471 595 496 584 484 595 l 422 595 b 397 570 408 595 397 584 l 397 521 b 422 496 397 508 408 496 l 471 496 b 496 521 484 496 496 508 z m 893 372 b 868 397 893 385 881 397 l 818 397 b 794 372 805 397 794 385 l 794 322 b 818 298 794 309 805 298 l 868 298 b 893 322 881 298 893 309 z m 694 570 b 670 595 694 584 683 595 l 620 595 b 595 570 607 595 595 584 l 595 521 b 620 496 595 508 607 496 l 670 496 b 694 521 683 496 694 508 z m 893 570 b 868 595 893 584 881 595 l 818 595 b 794 570 805 595 794 584 l 794 521 b 818 496 794 508 805 496 l 868 496 b 893 521 881 496 893 508 z m 694 -99 l 694 74 b 670 99 694 88 683 99 l 422 99 b 397 74 408 99 397 88 l 397 -99 l 99 -99 l 99 794 l 298 794 l 298 769 b 372 694 298 728 331 694 l 719 694 b 794 769 760 694 794 728 l 794 794 l 992 794 l 992 -99 z m 694 818 b 670 794 694 805 683 794 l 620 794 b 595 818 607 794 595 805 l 595 893 l 496 893 l 496 818 b 471 794 496 805 484 794 l 422 794 b 397 818 408 794 397 805 l 397 1066 b 422 1091 397 1080 408 1091 l 471 1091 b 496 1066 484 1091 496 1080 l 496 992 l 595 992 l 595 1066 b 620 1091 595 1080 607 1091 l 670 1091 b 694 1066 683 1091 694 1080 l 694 818 z m 1091 843 b 1042 893 1091 870 1069 893 l 794 893 l 794 1116 b 719 1190 794 1157 760 1190 l 372 1190 b 298 1116 331 1190 298 1157 l 298 893 l 50 893 b 0 843 22 893 0 870 l 0 -149 b 50 -198 0 -176 22 -198 l 1042 -198 b 1091 -149 1069 -198 1091 -176 z "},"":{"ha":1488,"x_min":0,"x_max":0,"o":"m 496 99 b 397 0 496 44 452 0 b 298 99 342 0 298 44 b 397 198 298 154 342 198 b 496 99 452 198 496 154 z m 198 496 l 198 519 b 205 536 199 524 203 532 l 357 687 b 374 694 360 691 369 694 l 496 694 l 496 496 z m 1190 99 b 1091 0 1190 44 1146 0 b 992 99 1036 0 992 44 b 1091 198 992 154 1036 198 b 1190 99 1146 198 1190 154 z m 1290 620 b 1265 595 1290 606 1279 595 l 1091 595 l 1091 422 b 1066 397 1091 408 1080 397 l 918 397 b 893 422 904 397 893 408 l 893 595 l 719 595 b 694 620 705 595 694 606 l 694 769 b 719 794 694 783 705 794 l 893 794 l 893 967 b 918 992 893 981 904 992 l 1066 992 b 1091 967 1080 992 1091 981 l 1091 794 l 1265 794 b 1290 769 1279 794 1290 783 l 1290 620 z m 1488 1042 b 1438 1091 1488 1069 1466 1091 l 546 1091 b 496 1042 519 1091 496 1069 l 496 794 l 372 794 b 288 759 345 794 307 778 l 134 605 b 99 521 115 586 99 548 l 99 198 b 50 149 72 198 50 176 b 99 99 50 122 72 99 l 198 99 b 397 -99 198 -10 287 -99 b 595 99 507 -99 595 -10 l 893 99 b 1091 -99 893 -10 982 -99 b 1290 99 1201 -99 1290 -10 l 1438 99 b 1488 149 1466 99 1488 122 z "},"":{"ha":1389,"x_min":0,"x_max":0,"o":"m 992 322 b 967 298 992 308 981 298 l 794 298 l 794 124 b 769 99 794 110 783 99 l 620 99 b 595 124 606 99 595 110 l 595 298 l 422 298 b 397 322 408 298 397 308 l 397 471 b 422 496 397 485 408 496 l 595 496 l 595 670 b 620 694 595 684 606 694 l 769 694 b 794 670 783 694 794 684 l 794 496 l 967 496 b 992 471 981 496 992 485 l 992 322 z m 496 893 l 496 992 l 893 992 l 893 893 z m 198 893 l 174 893 b 0 719 78 893 0 815 l 0 74 b 174 -99 0 -21 78 -99 l 198 -99 z m 1116 893 l 992 893 l 992 1017 b 918 1091 992 1058 959 1091 l 471 1091 b 397 1017 430 1091 397 1058 l 397 893 l 273 893 l 273 -99 l 1116 -99 z m 1389 719 b 1215 893 1389 815 1311 893 l 1190 893 l 1190 -99 l 1215 -99 b 1389 74 1311 -99 1389 -21 z "},"":{"ha":1488,"x_min":0,"x_max":0,"o":"m 1488 446 b 1265 521 1488 446 1488 471 l 992 546 l 818 595 l 769 595 l 542 868 l 595 868 b 645 880 622 868 645 873 b 595 893 645 887 622 893 l 521 893 l 397 893 l 347 893 l 347 868 l 397 868 l 397 546 l 273 546 l 124 719 l 50 719 l 25 694 l 25 546 l 50 546 l 50 521 l 149 521 l 149 515 l 0 496 l 0 397 l 149 378 l 149 372 l 50 372 l 50 347 l 25 347 l 25 198 l 50 174 l 124 174 l 273 347 l 397 347 l 397 25 l 347 25 l 347 0 l 397 0 l 521 0 l 595 0 b 645 12 622 0 645 5 b 595 25 645 19 622 25 l 542 25 l 769 298 l 818 298 l 992 347 l 1265 372 b 1488 446 1488 422 1488 446 z "},"":{"ha":1290,"x_min":0,"x_max":0,"o":"m 496 496 b 397 496 484 496 457 496 b 298 595 342 496 298 540 b 298 794 298 595 298 694 l 496 794 l 496 496 z m 1290 149 l 1190 298 l 1190 918 l 1240 942 l 1215 1091 l 471 1091 l 446 992 l 74 992 l 50 893 l 99 843 l 99 595 b 397 298 99 431 233 298 b 496 298 405 298 488 298 l 397 149 l 397 0 l 1290 0 z "},"":{"ha":1190,"x_min":0,"x_max":0,"o":"m 992 149 b 942 99 992 122 970 99 l 843 99 b 794 149 816 99 794 122 l 794 397 l 397 397 l 397 149 b 347 99 397 122 374 99 l 248 99 b 198 149 221 99 198 122 l 198 843 b 248 893 198 870 221 893 l 347 893 b 397 843 374 893 397 870 l 397 595 l 794 595 l 794 843 b 843 893 794 870 816 893 l 942 893 b 992 843 970 893 992 870 l 992 149 z m 1190 868 b 967 1091 1190 991 1090 1091 l 223 1091 b 0 868 100 1091 0 991 l 0 124 b 223 -99 0 1 100 -99 l 967 -99 b 1190 124 1090 -99 1190 1 z "},"":{"ha":1190,"x_min":0,"x_max":0,"o":"m 992 446 b 942 397 992 419 970 397 l 694 397 l 694 149 b 645 99 694 122 672 99 l 546 99 b 496 149 519 99 496 122 l 496 397 l 248 397 b 198 446 221 397 198 419 l 198 546 b 248 595 198 573 221 595 l 496 595 l 496 843 b 546 893 496 870 519 893 l 645 893 b 694 843 672 893 694 870 l 694 595 l 942 595 b 992 546 970 595 992 573 l 992 446 z m 1190 868 b 967 1091 1190 991 1090 1091 l 223 1091 b 0 868 100 1091 0 991 l 0 124 b 223 -99 0 1 100 -99 l 967 -99 b 1190 124 1090 -99 1190 1 z "},"":{"ha":794,"x_min":0,"x_max":0,"o":"m 486 124 b 478 142 486 130 483 137 l 174 446 l 478 751 b 486 769 483 756 486 763 b 478 787 486 775 483 782 l 439 825 b 422 833 435 830 428 833 b 404 825 415 833 408 830 l 43 464 b 35 446 38 460 35 453 b 43 429 35 440 38 433 l 404 67 b 422 60 408 63 415 60 b 439 67 428 60 435 63 l 478 106 b 486 124 483 111 486 118 z m 784 124 b 776 142 784 130 780 137 l 471 446 l 776 751 b 784 769 780 756 784 763 b 776 787 784 775 780 782 l 737 825 b 719 833 732 830 725 833 b 701 825 713 833 706 830 l 340 464 b 332 446 336 460 332 453 b 340 429 332 440 336 433 l 701 67 b 719 60 706 63 713 60 b 737 67 725 60 732 63 l 776 106 b 784 124 780 111 784 118 z "},"":{"ha":794,"x_min":0,"x_max":0,"o":"m 461 446 b 453 464 461 453 458 460 l 92 825 b 74 833 88 830 81 833 b 57 825 68 833 61 830 l 18 787 b 10 769 13 782 10 775 b 18 751 10 763 13 756 l 322 446 l 18 142 b 10 124 13 137 10 130 b 18 106 10 118 13 111 l 57 67 b 74 60 61 63 68 60 b 92 67 81 60 88 63 l 453 429 b 461 446 458 433 461 440 z m 759 446 b 751 464 759 453 756 460 l 390 825 b 372 833 385 830 378 833 b 354 825 366 833 359 830 l 315 787 b 308 769 311 782 308 775 b 315 751 308 763 311 756 l 620 446 l 315 142 b 308 124 311 137 308 130 b 315 106 308 118 311 111 l 354 67 b 372 60 359 63 366 60 b 390 67 378 60 385 63 l 751 429 b 759 446 756 433 759 440 z "},"":{"ha":893,"x_min":0,"x_max":0,"o":"m 833 174 b 825 191 833 180 830 187 l 464 553 b 446 560 460 557 453 560 b 429 553 440 560 433 557 l 67 191 b 60 174 63 187 60 180 b 67 156 60 167 63 160 l 106 117 b 124 109 111 112 118 109 b 142 117 130 109 137 112 l 446 422 l 751 117 b 769 109 756 112 763 109 b 787 117 776 109 782 112 l 825 156 b 833 174 830 160 833 167 z m 833 471 b 825 489 833 477 830 484 l 464 850 b 446 858 460 855 453 858 b 429 850 440 858 433 855 l 67 489 b 60 471 63 484 60 477 b 67 453 60 465 63 458 l 106 415 b 124 407 111 410 118 407 b 142 415 130 407 137 410 l 446 719 l 751 415 b 769 407 756 410 763 407 b 787 415 776 407 782 410 l 825 453 b 833 471 830 458 833 465 z "},"":{"ha":893,"x_min":0,"x_max":0,"o":"m 833 521 b 825 539 833 527 830 534 l 787 577 b 769 585 782 582 775 585 b 751 577 763 585 756 582 l 446 273 l 142 577 b 124 585 137 582 130 585 b 106 577 117 585 111 582 l 67 539 b 60 521 63 534 60 527 b 67 503 60 515 63 508 l 429 142 b 446 134 433 137 440 134 b 464 142 453 134 460 137 l 825 503 b 833 521 830 508 833 515 z m 833 818 b 825 836 833 825 830 832 l 787 875 b 769 883 782 880 775 883 b 751 875 763 883 756 880 l 446 570 l 142 875 b 124 883 137 880 130 883 b 106 875 117 883 111 880 l 67 836 b 60 818 63 832 60 825 b 67 801 60 812 63 805 l 429 439 b 446 432 433 435 440 432 b 464 439 453 432 460 435 l 825 801 b 833 818 830 805 833 812 z "},"":{"ha":496,"x_min":0,"x_max":0,"o":"m 486 769 b 478 787 486 776 483 782 l 439 825 b 422 833 435 830 428 833 b 404 825 415 833 408 830 l 43 464 b 35 446 38 460 35 453 b 43 429 35 440 38 433 l 404 67 b 422 60 408 63 415 60 b 439 67 428 60 435 63 l 478 106 b 486 124 483 111 486 118 b 478 142 486 130 483 137 l 174 446 l 478 751 b 486 769 483 756 486 763 z "},"":{"ha":496,"x_min":0,"x_max":0,"o":"m 461 446 b 453 464 461 453 458 460 l 92 825 b 74 833 88 830 81 833 b 57 825 68 833 61 830 l 18 787 b 10 769 13 782 10 775 b 18 751 10 763 13 756 l 322 446 l 18 142 b 10 124 13 137 10 130 b 18 106 10 117 13 111 l 57 67 b 74 60 61 63 68 60 b 92 67 81 60 88 63 l 453 429 b 461 446 458 433 461 440 z "},"":{"ha":893,"x_min":0,"x_max":0,"o":"m 833 273 b 825 291 833 279 830 286 l 464 652 b 446 660 460 656 453 660 b 429 652 440 660 433 656 l 67 291 b 60 273 63 286 60 279 b 67 255 60 267 63 260 l 106 216 b 124 208 111 212 118 208 b 142 216 130 208 137 212 l 446 521 l 751 216 b 769 208 756 212 763 208 b 787 216 776 208 782 212 l 825 255 b 833 273 830 260 833 267 z "},"":{"ha":893,"x_min":0,"x_max":0,"o":"m 833 620 b 825 638 833 626 830 633 l 787 677 b 769 684 782 681 775 684 b 751 677 763 684 756 681 l 446 372 l 142 677 b 124 684 137 681 130 684 b 106 677 117 684 111 681 l 67 638 b 60 620 63 633 60 626 b 67 602 60 614 63 607 l 429 241 b 446 233 433 236 440 233 b 464 241 453 233 460 236 l 825 602 b 833 620 830 607 833 614 z "},"":{"ha":1488,"x_min":0,"x_max":0,"o":"m 1389 422 b 1364 397 1389 408 1377 397 l 124 397 b 99 422 111 397 99 408 l 99 1066 b 124 1091 99 1080 111 1091 l 1364 1091 b 1389 1066 1377 1091 1389 1080 l 1389 422 z m 1488 1066 b 1364 1190 1488 1135 1432 1190 l 124 1190 b 0 1066 56 1190 0 1135 l 0 223 b 124 99 0 155 56 99 l 546 99 b 496 -50 546 32 496 -21 b 546 -99 496 -77 519 -99 l 942 -99 b 992 -50 970 -99 992 -77 b 942 99 992 -22 942 33 l 1364 99 b 1488 223 1432 99 1488 155 z "},"":{"ha":1488,"x_min":0,"x_max":0,"o":"m 322 198 l 1166 198 b 1290 322 1234 198 1290 254 l 1290 868 b 1166 992 1290 936 1234 992 l 322 992 b 198 868 254 992 198 936 l 198 322 b 322 198 198 254 254 198 z m 298 868 b 322 893 298 881 309 893 l 1166 893 b 1190 868 1179 893 1190 881 l 1190 322 b 1166 298 1190 309 1179 298 l 322 298 b 298 322 309 298 298 309 z m 1364 149 l 124 149 l 0 149 l 0 74 b 124 0 0 33 56 0 l 1364 0 b 1488 74 1432 0 1488 33 l 1488 149 z m 806 74 l 682 74 b 670 87 675 74 670 80 b 682 99 670 94 675 99 l 806 99 b 818 87 813 99 818 94 b 806 74 818 80 813 74 z "},"":{"ha":893,"x_min":0,"x_max":0,"o":"m 496 99 b 446 50 496 72 474 50 b 397 99 419 50 397 72 b 446 149 397 126 419 149 b 496 99 474 149 496 126 z m 794 223 b 769 198 794 210 782 198 l 124 198 b 99 223 111 198 99 210 l 99 967 b 124 992 99 980 111 992 l 769 992 b 794 967 782 992 794 980 l 794 223 z m 893 967 b 769 1091 893 1035 837 1091 l 124 1091 b 0 967 56 1091 0 1035 l 0 124 b 124 0 0 56 56 0 l 769 0 b 893 124 837 0 893 56 z "},"":{"ha":595,"x_min":0,"x_max":0,"o":"m 360 99 b 298 37 360 65 332 37 b 236 99 264 37 236 65 b 298 161 236 133 264 161 b 360 99 332 161 360 133 z m 521 223 b 496 198 521 210 509 198 l 99 198 b 74 223 86 198 74 210 l 74 769 b 99 794 74 782 86 794 l 496 794 b 521 769 509 794 521 782 l 521 223 z m 372 880 b 360 868 372 873 367 868 l 236 868 b 223 880 229 868 223 873 b 236 893 223 887 229 893 l 360 893 b 372 880 367 893 372 887 z m 595 893 b 496 992 595 947 550 992 l 99 992 b 0 893 45 992 0 947 l 0 99 b 99 0 0 45 45 0 l 496 0 b 595 99 550 0 595 45 z "},"":{"ha":1190,"x_min":0,"x_max":0,"o":"m 595 918 b 1017 496 828 918 1017 729 b 595 74 1017 264 828 74 b 174 496 363 74 174 264 b 595 918 174 729 363 918 z m 1190 496 b 595 1091 1190 825 924 1091 l 595 1091 b 0 496 267 1091 0 825 b 595 -99 0 167 267 -99 b 1190 496 924 -99 1190 167 z "},"":{"ha":1290,"x_min":0,"x_max":0,"o":"m 595 446 b 446 595 595 529 529 595 l 273 595 b 198 670 232 595 198 629 l 198 694 b 397 893 198 804 288 893 l 446 893 b 496 942 474 893 496 915 l 496 1042 b 446 1091 496 1069 474 1091 l 397 1091 b 0 694 178 1091 0 913 l 0 149 b 149 0 0 67 67 0 l 446 0 b 595 149 529 0 595 67 z m 1290 446 b 1141 595 1290 529 1223 595 l 967 595 b 893 670 926 595 893 629 l 893 694 b 1091 893 893 804 982 893 l 1141 893 b 1190 942 1168 893 1190 915 l 1190 1042 b 1141 1091 1190 1069 1168 1091 l 1091 1091 b 694 694 873 1091 694 913 l 694 149 b 843 0 694 67 761 0 l 1141 0 b 1290 149 1223 0 1290 67 z "},"":{"ha":1290,"x_min":0,"x_max":0,"o":"m 595 942 b 446 1091 595 1025 529 1091 l 149 1091 b 0 942 67 1091 0 1025 l 0 645 b 149 496 0 563 67 496 l 322 496 b 397 422 363 496 397 463 l 397 397 b 198 198 397 288 308 198 l 149 198 b 99 149 122 198 99 176 l 99 50 b 149 0 99 22 122 0 l 198 0 b 595 397 417 0 595 178 z m 1290 942 b 1141 1091 1290 1025 1223 1091 l 843 1091 b 694 942 761 1091 694 1025 l 694 645 b 843 496 694 563 761 496 l 1017 496 b 1091 422 1058 496 1091 463 l 1091 397 b 893 198 1091 288 1002 198 l 843 198 b 794 149 816 198 794 176 l 794 50 b 843 0 794 22 816 0 l 893 0 b 1290 397 1111 0 1290 178 z "},"":{"ha":1389,"x_min":0,"x_max":0,"o":"m 408 110 b 308 209 408 165 363 209 b 209 110 254 209 209 165 b 308 11 209 56 254 11 b 408 110 363 11 408 56 z m 794 -50 b 694 50 794 5 749 50 b 595 -50 639 50 595 5 b 694 -149 595 -105 639 -149 b 794 -50 749 -149 794 -105 z m 248 496 b 149 595 248 551 204 595 b 50 496 94 595 50 551 b 149 397 50 441 94 397 b 248 496 204 397 248 441 z m 1180 110 b 1080 209 1180 165 1135 209 b 981 110 1025 209 981 165 b 1080 11 981 56 1025 11 b 1180 110 1135 11 1180 56 z m 432 882 b 308 1006 432 950 377 1006 b 184 882 240 1006 184 950 b 308 758 184 814 240 758 b 432 882 377 758 432 814 z m 1339 496 b 1240 595 1339 551 1295 595 b 1141 496 1185 595 1141 551 b 1240 397 1141 441 1185 397 b 1339 496 1295 397 1339 441 z m 843 1042 b 694 1190 843 1124 777 1190 b 546 1042 612 1190 546 1124 b 694 893 546 960 612 893 b 843 1042 777 893 843 960 z m 1254 882 b 1080 1056 1254 977 1176 1056 b 907 882 984 1056 907 977 b 1080 708 907 786 984 708 b 1254 882 1176 708 1254 786 z "},"":{"ha":1190,"x_min":0,"x_max":0,"o":"m 1190 496 b 595 1091 1190 825 924 1091 b 0 496 267 1091 0 825 b 595 -99 0 167 267 -99 b 1190 496 924 -99 1190 167 z "},"":{"ha":1389,"x_min":0,"x_max":0,"o":"m 1389 322 b 1348 581 1389 409 1380 498 b 670 893 1240 848 924 893 l 496 893 l 496 1091 b 446 1141 496 1118 474 1141 b 412 1126 433 1141 421 1135 l 15 729 b 0 694 5 720 0 708 b 15 660 0 681 5 669 l 412 263 b 446 248 421 253 433 248 b 496 298 474 248 496 270 l 496 496 l 670 496 b 1223 62 1004 496 1223 432 b 1219 -33 1223 30 1221 -2 b 1215 -72 1218 -46 1215 -60 b 1240 -99 1215 -87 1225 -99 b 1262 -86 1251 -99 1256 -94 b 1290 -27 1273 -70 1282 -45 b 1389 322 1335 72 1389 214 z "},"":{"ha":1290,"x_min":0,"x_max":0,"o":"m 496 248 b 397 397 496 305 467 397 b 298 248 327 397 298 305 b 397 99 298 191 327 99 b 496 248 467 99 496 191 z m 992 248 b 893 397 992 305 963 397 b 794 248 823 397 794 305 b 893 99 794 191 823 99 b 992 248 963 99 992 191 z m 1116 248 b 710 -26 1116 11 899 -26 l 580 -26 b 174 248 391 -26 174 11 b 372 471 174 367 246 471 b 523 455 423 471 473 462 b 645 446 563 449 604 446 b 767 455 686 446 726 449 b 918 471 818 462 867 471 b 1116 248 1044 471 1116 367 z m 1290 384 b 1184 693 1290 498 1259 605 b 1205 823 1198 735 1205 779 b 1166 992 1205 881 1192 939 b 874 868 1045 992 966 940 b 657 893 804 885 730 893 b 418 866 577 893 496 884 b 124 992 325 939 246 992 b 84 823 98 939 84 881 b 105 691 84 779 91 734 b 0 384 31 605 0 498 b 48 128 0 298 9 206 b 657 -99 154 -81 453 -99 b 1242 128 859 -99 1140 -79 b 1290 384 1281 207 1290 298 z "},"":{"ha":1290,"x_min":0,"x_max":0,"o":"m 1190 174 b 1116 99 1190 133 1157 99 l 174 99 b 99 174 133 99 99 133 l 99 918 b 174 992 99 959 133 992 l 422 992 b 496 918 463 992 496 959 l 496 868 b 570 794 496 827 529 794 l 1116 794 b 1190 719 1157 794 1190 760 l 1190 174 z m 1290 719 b 1116 893 1290 815 1211 893 l 595 893 l 595 918 b 422 1091 595 1013 517 1091 l 174 1091 b 0 918 78 1091 0 1013 l 0 174 b 174 0 0 78 78 0 l 1116 0 b 1290 174 1211 0 1290 78 z "},"":{"ha":1488,"x_min":0,"x_max":0,"o":"m 1380 469 b 1366 439 1380 457 1373 447 l 1139 157 b 1017 99 1112 125 1058 99 l 174 99 b 133 126 157 99 133 105 b 146 157 133 138 140 148 l 374 439 b 496 496 401 470 455 496 l 1339 496 b 1380 469 1356 496 1380 491 z m 496 595 b 298 501 426 595 343 556 l 99 257 l 99 918 b 174 992 99 959 133 992 l 422 992 b 496 918 463 992 496 959 l 496 868 b 570 794 496 827 529 794 l 1017 794 b 1091 719 1058 794 1091 760 l 1091 595 z m 1480 469 b 1468 522 1480 488 1476 505 b 1339 595 1445 571 1392 595 l 1190 595 l 1190 719 b 1017 893 1190 815 1112 893 l 595 893 l 595 918 b 422 1091 595 1013 517 1091 l 174 1091 b 0 918 78 1091 0 1013 l 0 174 b 174 0 0 78 78 0 l 1017 0 b 1215 95 1087 0 1171 40 l 1444 376 b 1480 469 1465 402 1480 435 z "},"":{"ha":1389,"x_min":0,"x_max":0,"o":""},"":{"ha":1389,"x_min":0,"x_max":0,"o":""},"":{"ha":1190,"x_min":0,"x_max":0,"o":"m 879 357 b 847 419 887 384 873 411 b 784 387 821 428 793 413 b 595 248 759 304 682 248 b 406 387 508 248 432 304 b 344 419 398 413 370 428 b 312 357 318 411 303 384 b 595 149 350 233 464 149 b 879 357 726 149 840 233 z m 496 694 b 397 794 496 749 452 794 b 298 694 342 794 298 749 b 397 595 298 639 342 595 b 496 694 452 595 496 639 z m 893 694 b 794 794 893 749 849 794 b 694 694 739 794 694 749 b 794 595 694 639 739 595 b 893 694 849 595 893 639 z m 1091 496 b 595 0 1091 222 869 0 b 99 496 322 0 99 222 b 595 992 99 770 322 992 b 1091 496 869 992 1091 770 z m 1190 496 b 595 1091 1190 825 924 1091 b 0 496 267 1091 0 825 b 595 -99 0 167 267 -99 b 1190 496 924 -99 1190 167 z "},"":{"ha":1190,"x_min":0,"x_max":0,"o":"m 879 238 b 595 446 840 363 726 446 b 312 238 464 446 350 363 b 344 176 303 212 318 184 b 406 208 370 167 398 182 b 595 347 432 291 508 347 b 784 208 682 347 759 291 b 847 176 793 182 821 167 b 879 238 873 184 887 212 z m 496 694 b 397 794 496 749 452 794 b 298 694 342 794 298 749 b 397 595 298 639 342 595 b 496 694 452 595 496 639 z m 893 694 b 794 794 893 749 849 794 b 694 694 739 794 694 749 b 794 595 694 639 739 595 b 893 694 849 595 893 639 z m 1091 496 b 595 0 1091 222 869 0 b 99 496 322 0 99 222 b 595 992 99 770 322 992 b 1091 496 869 992 1091 770 z m 1190 496 b 595 1091 1190 825 924 1091 b 0 496 267 1091 0 825 b 595 -99 0 167 267 -99 b 1190 496 924 -99 1190 167 z "},"":{"ha":1190,"x_min":0,"x_max":0,"o":"m 893 347 b 843 397 893 374 870 397 l 347 397 b 298 347 320 397 298 374 b 347 298 298 320 320 298 l 843 298 b 893 347 870 298 893 320 z m 496 694 b 397 794 496 749 452 794 b 298 694 342 794 298 749 b 397 595 298 639 342 595 b 496 694 452 595 496 639 z m 893 694 b 794 794 893 749 849 794 b 694 694 739 794 694 749 b 794 595 694 639 739 595 b 893 694 849 595 893 639 z m 1091 496 b 595 0 1091 222 869 0 b 99 496 322 0 99 222 b 595 992 99 770 322 992 b 1091 496 869 992 1091 770 z m 1190 496 b 595 1091 1190 825 924 1091 b 0 496 267 1091 0 825 b 595 -99 0 167 267 -99 b 1190 496 924 -99 1190 167 z "},"":{"ha":1488,"x_min":0,"x_max":0,"o":"m 645 347 b 620 322 645 333 634 322 l 471 322 l 471 174 b 446 149 471 160 460 149 l 347 149 b 322 174 333 149 322 160 l 322 322 l 174 322 b 149 347 160 322 149 333 l 149 446 b 174 471 149 460 160 471 l 322 471 l 322 620 b 347 645 322 634 333 645 l 446 645 b 471 620 460 645 471 634 l 471 471 l 620 471 b 645 446 634 471 645 460 l 645 347 z m 1091 298 b 992 198 1091 243 1047 198 b 893 298 937 198 893 243 b 992 397 893 353 937 397 b 1091 298 1047 397 1091 353 z m 1290 496 b 1190 397 1290 441 1246 397 b 1091 496 1135 397 1091 441 b 1190 595 1091 551 1135 595 b 1290 496 1246 595 1290 551 z m 1488 397 b 1091 794 1488 616 1311 794 l 397 794 b 0 397 177 794 0 616 b 397 0 0 177 177 0 b 659 99 498 0 589 38 l 829 99 b 1091 0 899 38 991 0 b 1488 397 1311 0 1488 177 z "},"":{"ha":1488,"x_min":0,"x_max":0,"o":"m 298 285 b 285 298 298 292 292 298 l 211 298 b 198 285 204 298 198 292 l 198 211 b 211 198 198 204 204 198 l 285 198 b 298 211 292 198 298 204 z m 397 484 b 384 496 397 491 391 496 l 211 496 b 198 484 204 496 198 491 l 198 409 b 211 397 198 402 204 397 l 384 397 b 397 409 391 397 397 402 z m 298 682 b 285 694 298 689 292 694 l 211 694 b 198 682 204 694 198 689 l 198 608 b 211 595 198 601 204 595 l 285 595 b 298 608 292 595 298 601 z m 1091 285 b 1079 298 1091 292 1086 298 l 409 298 b 397 285 402 298 397 292 l 397 211 b 409 198 397 204 402 198 l 1079 198 b 1091 211 1086 198 1091 204 z m 595 484 b 583 496 595 491 590 496 l 508 496 b 496 484 501 496 496 491 l 496 409 b 508 397 496 402 501 397 l 583 397 b 595 409 590 397 595 402 z m 496 682 b 484 694 496 689 491 694 l 409 694 b 397 682 402 694 397 689 l 397 608 b 409 595 397 601 402 595 l 484 595 b 496 608 491 595 496 601 z m 794 484 b 781 496 794 491 788 496 l 707 496 b 694 484 700 496 694 491 l 694 409 b 707 397 694 402 700 397 l 781 397 b 794 409 788 397 794 402 z m 694 682 b 682 694 694 689 689 694 l 608 694 b 595 682 601 694 595 689 l 595 608 b 608 595 595 601 601 595 l 682 595 b 694 608 689 595 694 601 z m 992 484 b 980 496 992 491 987 496 l 905 496 b 893 484 898 496 893 491 l 893 409 b 905 397 893 402 898 397 l 980 397 b 992 409 987 397 992 402 z m 1290 285 b 1277 298 1290 292 1284 298 l 1203 298 b 1190 285 1196 298 1190 292 l 1190 211 b 1203 198 1190 204 1196 198 l 1277 198 b 1290 211 1284 198 1290 204 z m 893 682 b 880 694 893 689 887 694 l 806 694 b 794 682 799 694 794 689 l 794 608 b 806 595 794 601 799 595 l 880 595 b 893 608 887 595 893 601 z m 1091 682 b 1079 694 1091 689 1086 694 l 1004 694 b 992 682 997 694 992 689 l 992 608 b 1004 595 992 601 997 595 l 1079 595 b 1091 608 1086 595 1091 601 z m 1290 682 b 1277 694 1290 689 1284 694 l 1203 694 b 1190 682 1196 694 1190 689 l 1190 496 l 1104 496 b 1091 484 1097 496 1091 491 l 1091 409 b 1104 397 1091 402 1097 397 l 1277 397 b 1290 409 1284 397 1290 402 z m 1389 99 l 99 99 l 99 794 l 1389 794 z m 1488 794 b 1389 893 1488 849 1444 893 l 99 893 b 0 794 44 893 0 849 l 0 99 b 99 0 0 44 44 0 l 1389 0 b 1488 99 1444 0 1488 44 z "},"":{"ha":1389,"x_min":0,"x_max":0,"o":"m 1290 381 b 1063 309 1242 355 1149 309 b 984 326 1032 309 1006 315 l 963 337 b 683 418 880 378 802 418 b 347 330 580 418 450 377 l 347 794 b 660 893 437 844 560 893 b 940 812 767 893 857 853 b 1053 787 973 795 1011 787 l 1053 787 b 1290 858 1141 787 1228 825 l 1290 381 z m 248 992 b 149 1091 248 1047 204 1091 b 50 992 94 1091 50 1047 b 99 907 50 956 70 924 l 99 -74 b 124 -99 99 -88 110 -99 l 174 -99 b 198 -74 188 -99 198 -88 l 198 907 b 248 992 228 924 248 956 z m 1389 942 b 1365 985 1389 960 1380 976 b 1317 987 1350 994 1332 994 b 1293 973 1311 984 1303 979 b 1053 887 1245 945 1144 887 b 984 901 1027 887 1004 891 b 660 992 894 945 789 992 b 272 866 497 992 322 895 b 248 823 257 856 248 840 l 248 248 b 273 205 248 230 257 214 b 298 198 281 201 289 198 b 323 205 306 198 315 201 b 683 319 414 260 571 319 b 918 248 778 319 840 288 l 940 237 b 1063 210 976 219 1017 210 b 1349 300 1182 210 1299 274 b 1362 307 1354 303 1359 305 b 1389 351 1378 315 1389 332 z "},"":{"ha":1389,"x_min":0,"x_max":0,"o":"m 645 415 b 347 330 549 408 437 372 l 347 474 b 645 564 436 518 550 556 l 645 415 z m 645 739 b 347 648 549 736 439 695 l 347 794 b 645 892 432 842 547 887 l 645 739 z m 1290 381 b 1063 309 1242 355 1149 309 b 992 322 1036 309 1013 314 l 992 468 b 962 480 982 471 972 475 b 660 566 873 524 777 566 b 645 566 655 566 650 566 l 645 738 b 683 740 658 739 670 740 b 962 653 800 740 873 698 b 992 642 972 649 982 645 l 992 468 b 1290 523 1096 436 1219 488 l 1290 381 z m 1290 711 b 992 642 1219 672 1096 612 l 992 794 b 1053 787 1011 789 1032 787 l 1053 787 b 1290 858 1141 787 1228 825 l 1290 711 z m 248 992 b 149 1091 248 1047 204 1091 b 50 992 94 1091 50 1047 b 99 907 50 956 70 924 l 99 -74 b 124 -99 99 -88 110 -99 l 174 -99 b 198 -74 188 -99 198 -88 l 198 907 b 248 992 228 924 248 956 z m 1389 942 b 1365 985 1389 960 1380 976 b 1317 987 1350 994 1332 994 b 1293 973 1311 984 1303 979 b 1053 887 1245 945 1144 887 b 984 901 1027 887 1004 891 b 660 992 894 945 789 992 b 272 866 497 992 322 895 b 248 823 257 856 248 840 l 248 248 b 273 205 248 230 257 214 b 298 198 281 201 289 198 b 323 205 306 198 315 201 b 683 319 414 260 571 319 b 918 248 778 319 840 288 l 940 237 b 1063 210 976 219 1017 210 b 1349 300 1182 210 1299 274 b 1362 307 1354 303 1359 305 b 1389 351 1378 315 1389 332 z "},"":{"ha":1290,"x_min":0,"x_max":0,"o":"m 453 429 b 453 464 463 439 463 454 l 92 825 b 57 825 82 836 67 836 l 18 787 b 18 751 8 777 8 761 l 322 446 l 18 142 b 18 106 8 132 8 116 l 57 67 b 92 67 67 57 82 57 l 453 429 z m 1290 74 b 1265 99 1290 88 1279 99 l 521 99 b 496 74 507 99 496 88 l 496 25 b 521 0 496 11 507 0 l 1265 0 b 1290 25 1279 0 1290 11 z "},"":{"ha":1488,"x_min":0,"x_max":0,"o":"m 478 106 b 478 142 488 116 488 132 l 174 446 l 478 751 b 478 787 488 761 488 777 l 439 825 b 404 825 429 836 414 836 l 43 464 b 43 429 33 454 33 439 l 404 67 b 439 67 414 57 429 57 l 478 106 z m 936 933 b 919 964 940 946 932 960 l 871 977 b 841 960 859 981 845 973 l 552 -40 b 569 -71 548 -53 556 -67 l 617 -84 b 647 -67 629 -88 643 -81 l 936 933 z m 1445 429 b 1445 464 1456 439 1456 454 l 1084 825 b 1049 825 1074 836 1059 836 l 1010 787 b 1010 751 1000 777 1000 761 l 1314 446 l 1010 142 b 1010 106 1000 132 1000 116 l 1049 67 b 1084 67 1059 57 1074 57 l 1445 429 z "},"":{"ha":1389,"x_min":0,"x_max":0,"o":"m 496 352 l 188 660 b 188 729 169 679 169 710 l 496 1038 l 496 1091 b 466 1137 496 1111 484 1129 b 412 1126 447 1145 426 1141 l 15 729 b 15 660 -5 710 -5 679 l 412 263 b 446 248 421 253 433 248 b 466 252 453 248 460 250 b 496 298 484 260 496 277 z m 1389 322 b 1258 717 1389 434 1375 597 b 794 888 1160 817 1008 873 l 794 1091 b 763 1137 794 1111 781 1129 b 709 1126 745 1145 723 1141 l 312 729 b 312 660 293 710 293 679 l 709 263 b 744 248 718 253 731 248 b 763 252 750 248 757 250 b 794 298 781 260 794 277 l 794 492 b 1133 366 960 479 1067 439 b 1215 -72 1211 279 1238 140 b 1233 -98 1215 -84 1221 -95 b 1240 -99 1235 -99 1238 -99 b 1262 -86 1249 -99 1258 -95 b 1389 322 1267 -76 1389 161 z "},"":{"ha":1290,"x_min":0,"x_max":0,"o":"m 919 449 l 881 412 l 891 361 l 937 86 l 691 216 l 645 240 l 645 987 l 768 737 l 791 691 l 842 683 l 1118 643 z m 1270 652 b 1246 725 1304 685 1293 718 l 857 781 l 683 1134 b 645 1166 672 1155 659 1166 l 645 1166 b 607 1134 631 1166 617 1155 l 432 781 l 43 725 b 19 652 -3 718 -14 685 l 301 377 l 235 -10 b 266 -64 229 -44 242 -64 b 297 -55 274 -64 285 -61 l 645 128 l 993 -55 b 1024 -64 1004 -61 1015 -64 b 1055 -10 1048 -64 1060 -44 l 988 377 l 1270 652 z "},"":{"ha":1091,"x_min":0,"x_max":0,"o":"m 1086 920 b 1077 977 1096 939 1092 963 b 1042 992 1067 987 1055 992 b 1019 987 1034 992 1026 991 l 27 491 b 2 435 7 481 -4 457 b 50 397 7 412 26 397 l 496 397 l 496 -50 b 534 -98 496 -73 512 -92 b 546 -99 538 -98 542 -99 b 590 -72 564 -99 581 -89 l 1086 920 z "},"":{"ha":1290,"x_min":0,"x_max":0,"o":"m 432 198 l 893 660 l 893 198 z m 397 233 l 397 694 l 858 694 z m 1290 174 b 1265 198 1290 188 1279 198 l 1091 198 l 1091 858 l 1283 1049 b 1283 1084 1292 1059 1292 1074 b 1247 1084 1273 1094 1257 1094 l 1056 893 l 397 893 l 397 1066 b 372 1091 397 1080 386 1091 l 223 1091 b 198 1066 209 1091 198 1080 l 198 893 l 25 893 b 0 868 11 893 0 882 l 0 719 b 25 694 0 705 11 694 l 198 694 l 198 25 b 223 0 198 11 209 0 l 893 0 l 893 -174 b 918 -198 893 -188 904 -198 l 1066 -198 b 1091 -174 1080 -198 1091 -188 l 1091 0 l 1265 0 b 1290 25 1279 0 1290 11 z "},"":{"ha":794,"x_min":0,"x_max":0,"o":"m 223 50 b 149 -25 223 9 190 -25 b 74 50 108 -25 74 9 b 149 124 74 91 108 124 b 223 50 190 124 223 91 z m 223 942 b 149 868 223 901 190 868 b 74 942 108 868 74 901 b 149 1017 74 984 108 1017 b 223 942 190 1017 223 984 z m 719 843 b 645 769 719 802 686 769 b 570 843 604 769 570 802 b 645 918 570 884 604 918 b 719 843 686 918 719 884 z m 794 843 b 645 992 794 925 727 992 b 496 843 563 992 496 925 b 570 715 496 788 526 740 b 343 473 569 553 487 519 b 223 429 305 461 263 448 l 223 814 b 298 942 267 839 298 887 b 149 1091 298 1025 231 1091 b 0 942 67 1091 0 1025 b 74 814 0 887 30 839 l 74 178 b 0 50 30 153 0 105 b 149 -99 0 -33 67 -99 b 298 50 231 -99 298 -33 b 223 178 298 105 267 153 l 223 198 b 387 331 223 274 264 292 b 719 715 519 373 717 435 b 794 843 763 740 794 788 z "},"":{"ha":1290,"x_min":0,"x_max":0,"o":"m 340 205 b 340 241 350 215 350 231 b 305 241 330 250 315 250 l 106 43 b 106 7 97 33 97 17 b 124 0 112 2 118 0 b 142 7 130 0 136 2 l 340 205 z m 471 174 b 446 198 471 188 460 198 b 422 174 432 198 422 188 l 422 -74 b 446 -99 422 -88 432 -99 b 471 -74 460 -99 471 -88 z m 298 347 b 273 372 298 361 287 372 l 25 372 b 0 347 11 372 0 361 b 25 322 0 333 11 322 l 273 322 b 298 347 287 322 298 333 z m 1277 248 b 1212 406 1277 308 1254 363 l 952 667 b 908 699 939 680 924 690 l 894 514 l 1107 301 b 1128 248 1121 287 1128 268 b 1107 196 1128 229 1121 210 l 993 83 b 887 84 965 55 915 56 l 676 296 l 491 282 b 523 239 500 267 510 252 l 782 -21 b 940 -87 824 -64 880 -87 b 1097 -22 1000 -87 1056 -64 l 1211 91 b 1277 248 1254 133 1277 188 z m 799 809 b 767 853 790 825 780 839 l 508 1112 b 350 1178 466 1155 409 1178 b 192 1114 290 1178 234 1156 l 78 1001 b 12 843 36 959 12 903 b 78 685 12 784 36 728 l 338 425 b 381 392 351 412 366 401 l 395 578 l 183 791 b 161 843 169 805 161 823 b 183 895 161 863 169 881 l 297 1008 b 350 1029 311 1022 329 1029 b 402 1008 370 1029 388 1022 l 614 795 l 799 809 z m 1290 744 b 1265 769 1290 758 1279 769 l 1017 769 b 992 744 1003 769 992 758 b 1017 719 992 730 1003 719 l 1265 719 b 1290 744 1279 719 1290 730 z m 868 1166 b 843 1190 868 1180 857 1190 b 818 1166 829 1190 818 1180 l 818 918 b 843 893 818 904 829 893 b 868 918 857 893 868 904 z m 1184 1049 b 1184 1084 1193 1059 1193 1074 b 1148 1084 1173 1094 1158 1094 l 949 886 b 949 850 940 876 940 860 b 967 843 955 846 961 843 b 985 850 973 843 980 846 l 1184 1049 z "},"":{"ha":496,"x_min":0,"x_max":0,"o":"m 496 149 b 446 198 496 176 474 198 l 397 198 l 397 645 b 347 694 397 672 374 694 l 50 694 b 0 645 22 694 0 672 l 0 546 b 50 496 0 519 22 496 l 99 496 l 99 198 l 50 198 b 0 149 22 198 0 176 l 0 50 b 50 0 0 22 22 0 l 446 0 b 496 50 474 0 496 22 z m 397 1042 b 347 1091 397 1069 374 1091 l 149 1091 b 99 1042 122 1091 99 1069 l 99 893 b 149 843 99 866 122 843 l 347 843 b 397 893 374 843 397 866 z "},"":{"ha":496,"x_min":0,"x_max":0,"o":"m 397 223 b 347 273 397 250 374 273 l 149 273 b 99 223 122 273 99 250 l 99 50 b 149 0 99 22 122 0 l 347 0 b 397 50 374 0 397 22 z m 420 1042 b 372 1091 421 1069 399 1091 l 124 1091 b 76 1042 97 1091 75 1069 l 98 446 b 149 397 98 419 122 397 l 347 397 b 398 446 374 397 398 419 l 420 1042 z "},"":{"ha":1190,"x_min":0,"x_max":0,"o":"m 695 129 l 611 129 l 453 359 l 595 566 l 692 566 l 692 696 l 493 696 l 384 519 l 365 487 b 357 470 361 481 358 476 l 354 470 b 346 487 353 476 350 481 b 328 519 340 497 335 508 l 220 696 l 6 696 l 6 566 l 112 566 l 256 355 l 103 129 l 4 129 l 4 0 l 204 0 l 324 194 b 343 228 332 206 339 219 b 350 244 346 233 349 239 l 353 244 b 361 228 354 239 357 233 l 380 195 l 503 0 l 695 0 z m 1189 656 l 1091 656 l 1091 594 l 911 594 b 1180 906 922 705 1180 720 b 989 1075 1180 1009 1101 1075 b 843 1025 923 1075 876 1050 b 794 973 824 1009 808 993 l 876 902 b 904 932 884 912 894 923 b 979 962 923 948 949 962 b 1056 894 1020 962 1056 935 b 785 553 1056 782 785 764 b 788 517 785 543 787 528 l 791 496 l 1189 496 z "},"":{"ha":1190,"x_min":0,"x_max":0,"o":"m 695 129 l 611 129 l 453 359 l 595 566 l 692 566 l 692 696 l 493 696 l 384 519 l 365 487 b 357 470 361 481 358 476 l 354 470 b 346 487 353 476 350 481 b 328 519 340 497 335 508 l 220 696 l 6 696 l 6 566 l 112 566 l 256 355 l 103 129 l 4 129 l 4 0 l 204 0 l 324 194 b 343 228 332 206 339 219 b 350 244 346 233 349 239 l 353 244 b 361 228 354 239 357 233 l 380 195 l 503 0 l 695 0 z m 1190 -39 l 1093 -39 l 1093 -101 l 913 -101 b 1181 212 924 11 1181 26 b 991 381 1181 315 1103 381 b 845 330 925 381 877 357 b 796 279 825 315 810 298 l 877 208 b 905 237 886 218 895 229 b 980 267 925 253 950 267 b 1058 200 1022 267 1058 240 b 787 -142 1058 88 787 70 b 789 -177 787 -152 788 -166 l 792 -198 l 1190 -198 z "},"":{"ha":1488,"x_min":0,"x_max":0,"o":"m 694 99 l 99 99 l 360 397 l 955 397 z m 1480 934 b 1389 992 1463 970 1428 992 l 794 992 b 719 958 765 992 738 980 l 25 164 b 9 58 -1 135 -7 94 b 99 0 25 22 60 0 l 694 0 b 769 34 723 0 750 12 l 1463 828 b 1480 934 1489 857 1495 898 z "},"":{"ha":1290,"x_min":0,"x_max":0,"o":"m 1290 339 b 1156 496 1290 421 1245 496 b 961 421 1057 496 1015 421 b 892 457 934 421 910 438 b 865 547 870 481 865 515 b 884 737 865 611 873 674 b 893 794 885 745 891 791 l 893 795 b 627 770 805 791 716 770 b 515 856 572 770 515 792 b 601 1060 515 941 601 966 b 455 1190 601 1145 534 1190 b 298 1056 373 1190 298 1146 b 373 862 298 958 373 915 b 337 793 373 835 356 811 b 246 766 313 770 279 766 b 57 784 183 766 119 774 b 0 794 49 786 3 791 l 0 0 b 4 -2 0 -1 2 -1 l 14 -3 b 57 -9 28 -5 43 -7 b 246 -28 119 -19 183 -28 b 337 -1 279 -28 313 -23 b 373 68 356 17 373 41 b 298 263 373 122 298 164 b 454 397 298 352 373 397 b 601 267 534 397 601 351 b 515 62 601 172 515 147 b 627 -23 515 -2 572 -23 b 868 0 708 -23 788 -8 b 894 1 877 1 885 1 l 894 5 b 870 183 894 64 870 122 b 955 279 870 240 893 279 b 1159 193 1040 279 1065 193 b 1290 339 1244 193 1290 260 z "},"":{"ha":893,"x_min":0,"x_max":0,"o":"m 893 645 b 843 694 893 672 870 694 b 794 645 816 694 794 672 l 794 546 b 446 198 794 354 638 198 b 99 546 255 198 99 354 l 99 645 b 50 694 99 672 77 694 b 0 645 22 694 0 672 l 0 546 b 397 102 0 316 174 127 l 397 0 l 198 0 b 149 -50 171 0 149 -22 b 198 -99 149 -77 171 -99 l 694 -99 b 744 -50 722 -99 744 -77 b 694 0 744 -22 722 0 l 496 0 l 496 102 b 893 546 719 127 893 316 z m 694 942 b 446 1190 694 1079 583 1190 b 198 942 310 1190 198 1079 l 198 546 b 446 298 198 409 310 298 b 694 546 583 298 694 409 z "},"":{"ha":1091,"x_min":0,"x_max":0,"o":"m 210 458 b 198 546 203 486 198 515 l 198 645 b 149 694 198 672 176 694 b 99 645 122 694 99 672 l 99 546 b 132 380 99 487 111 431 l 210 458 z m 1073 925 b 1073 960 1084 935 1084 950 l 1010 1024 b 974 1024 1000 1034 984 1034 l 18 67 b 18 32 8 57 8 42 l 81 -32 b 117 -32 91 -42 107 -42 l 314 165 b 496 102 368 132 430 109 l 496 0 l 298 0 b 248 -50 270 0 248 -22 b 298 -99 248 -77 270 -99 l 794 -99 b 843 -50 821 -99 843 -77 b 794 0 843 -22 821 0 l 595 0 l 595 102 b 992 546 818 127 992 316 l 992 645 b 942 694 992 672 970 694 b 893 645 915 694 893 672 l 893 546 b 546 198 893 354 737 198 b 387 238 488 198 434 213 l 461 312 b 546 298 488 303 516 298 b 794 546 682 298 794 409 l 794 645 l 1073 925 z m 779 1027 b 546 1190 744 1121 653 1190 b 298 942 409 1190 298 1079 l 298 546 l 779 1027 z "},"":{"ha":992,"x_min":0,"x_max":0,"o":"m 843 446 b 661 167 843 334 744 233 b 496 61 599 119 536 82 l 496 942 l 843 942 l 843 446 z m 992 1042 b 942 1091 992 1069 970 1091 l 50 1091 b 0 1042 22 1091 0 1069 l 0 446 b 476 -95 0 120 457 -86 b 496 -99 482 -98 489 -99 b 516 -95 503 -99 510 -98 b 992 446 536 -86 992 120 z "},"":{"ha":1290,"x_min":0,"x_max":0,"o":"m 99 -99 l 99 694 l 1190 694 l 1190 -99 z m 397 843 b 372 818 397 829 386 818 l 322 818 b 298 843 308 818 298 829 l 298 1066 b 322 1091 298 1080 308 1091 l 372 1091 b 397 1066 386 1091 397 1080 l 397 843 z m 992 843 b 967 818 992 829 981 818 l 918 818 b 893 843 904 818 893 829 l 893 1066 b 918 1091 893 1080 904 1091 l 967 1091 b 992 1066 981 1091 992 1080 l 992 843 z m 1290 893 b 1190 992 1290 947 1245 992 l 1091 992 l 1091 1066 b 967 1190 1091 1135 1035 1190 l 918 1190 b 794 1066 849 1190 794 1135 l 794 992 l 496 992 l 496 1066 b 372 1190 496 1135 440 1190 l 322 1190 b 198 1066 254 1190 198 1135 l 198 992 l 99 992 b 0 893 45 992 0 947 l 0 -99 b 99 -198 0 -153 45 -198 l 1190 -198 b 1290 -99 1245 -198 1290 -153 z "},"":{"ha":1091,"x_min":0,"x_max":0,"o":"m 397 1042 b 347 992 397 1015 374 992 b 298 1042 320 992 298 1015 b 347 1091 298 1069 320 1091 b 397 1042 374 1091 397 1069 z m 1091 1066 b 1082 1086 1091 1074 1088 1081 b 1066 1091 1077 1090 1072 1091 b 1061 1090 1065 1091 1063 1091 l 714 1016 b 694 992 703 1014 694 1004 l 460 992 b 471 1042 467 1008 471 1024 b 347 1166 471 1110 415 1166 b 223 1042 279 1166 223 1110 b 243 975 223 1017 231 994 b 5 767 87 925 9 774 b 27 700 -7 742 3 712 b 50 694 34 696 42 694 b 94 722 67 694 85 705 b 347 893 95 723 183 893 l 372 893 l 372 807 b 198 570 271 776 198 681 l 198 -50 b 248 -99 198 -77 221 -99 l 645 -99 b 694 -50 672 -99 694 -77 l 694 570 b 496 814 694 691 609 791 l 496 893 l 694 893 b 714 869 694 881 703 871 l 1061 794 b 1066 794 1063 794 1065 794 b 1082 799 1072 794 1077 795 b 1091 818 1088 804 1091 811 z "},"":{"ha":1290,"x_min":0,"x_max":0,"o":"m 1116 843 b 1042 769 1116 802 1083 769 b 967 843 1001 769 967 802 b 1042 918 967 884 1001 918 b 1116 843 1083 918 1116 884 z m 1290 1066 b 1263 1091 1290 1080 1277 1091 b 652 836 994 1091 846 1029 b 515 685 608 791 562 740 l 222 670 b 202 657 214 669 206 664 l 28 360 b 32 329 22 350 24 338 l 81 280 b 99 273 86 275 93 273 b 106 274 102 273 104 273 l 320 339 l 538 122 l 472 -92 b 478 -117 470 -101 472 -110 l 528 -167 b 546 -174 533 -171 539 -174 b 558 -171 550 -174 554 -173 l 856 3 b 868 23 863 8 867 16 l 884 317 b 1035 453 939 363 990 409 b 1290 1066 1218 638 1290 809 z "},"":{"ha":1389,"x_min":0,"x_max":0,"o":"m 1352 591 b 1290 873 1374 694 1352 797 b 1028 992 1228 949 1133 992 l 40 992 l 158 739 l 0 0 l 259 0 l 417 739 l 639 739 l 481 0 l 739 0 l 898 739 l 1028 739 b 1093 713 1056 739 1080 729 b 1104 645 1107 697 1111 672 l 966 0 l 1225 0 l 1352 591 z "},"":{"ha":1190,"x_min":0,"x_max":0,"o":"m 705 109 b 635 109 685 90 654 90 l 283 461 b 283 531 264 481 264 512 l 635 883 b 705 883 654 902 685 902 l 784 804 b 784 734 803 784 803 753 l 546 496 l 784 258 b 784 188 803 239 803 208 z m 1190 496 b 595 1091 1190 825 924 1091 b 0 496 267 1091 0 825 b 595 -99 0 167 267 -99 b 1190 496 924 -99 1190 167 z "},"":{"ha":1190,"x_min":0,"x_max":0,"o":"m 556 109 b 486 109 536 90 505 90 l 407 188 b 407 258 388 208 388 239 l 645 496 l 407 734 b 407 804 388 753 388 784 l 486 883 b 556 883 505 902 536 902 l 908 531 b 908 461 927 512 927 481 z m 1190 496 b 595 1091 1190 825 924 1091 b 0 496 267 1091 0 825 b 595 -99 0 167 267 -99 b 1190 496 924 -99 1190 167 z "},"":{"ha":1190,"x_min":0,"x_max":0,"o":"m 903 308 b 833 308 884 288 853 288 l 595 546 l 357 308 b 288 308 338 288 307 288 l 208 387 b 208 457 189 406 189 437 l 560 808 b 630 808 580 828 611 828 l 982 457 b 982 387 1001 437 1001 406 z m 1190 496 b 595 1091 1190 825 924 1091 b 0 496 267 1091 0 825 b 595 -99 0 167 267 -99 b 1190 496 924 -99 1190 167 z "},"":{"ha":1190,"x_min":0,"x_max":0,"o":"m 630 184 b 560 184 611 164 580 164 l 208 536 b 208 605 189 555 189 586 l 288 684 b 357 684 307 704 338 704 l 595 446 l 833 684 b 903 684 853 704 884 704 l 982 605 b 982 536 1001 586 1001 555 z m 1190 496 b 595 1091 1190 825 924 1091 b 0 496 267 1091 0 825 b 595 -99 0 167 267 -99 b 1190 496 924 -99 1190 167 z "},"":{"ha":1091,"x_min":0,"x_max":0,"o":"m 876 728 l 353 728 l 365 587 l 864 587 l 825 166 l 547 89 l 547 88 l 544 88 l 264 166 l 246 381 l 382 381 l 392 273 l 544 232 l 697 273 l 714 450 l 239 450 l 203 863 l 888 863 z m 0 1091 l 99 -23 l 544 -149 l 992 -23 l 1091 1091 z "},"":{"ha":1389,"x_min":0,"x_max":0,"o":"m 213 1091 l 167 861 l 1104 861 l 1074 713 l 137 713 l 92 483 l 1028 483 l 976 220 l 599 95 l 272 220 l 295 334 l 64 334 l 9 58 l 550 -149 l 1173 58 l 1380 1091 z "},"":{"ha":1389,"x_min":0,"x_max":0,"o":"m 744 992 b 694 942 744 965 722 942 b 645 992 667 942 645 965 b 694 1042 645 1019 667 1042 b 744 992 722 1042 744 1019 z m 1389 273 b 1364 298 1389 287 1378 298 l 1091 298 b 1068 282 1081 298 1072 291 b 1073 255 1064 273 1066 263 l 1151 177 b 794 -5 1081 84 947 16 l 794 496 l 942 496 b 992 546 970 496 992 519 l 992 645 b 942 694 992 672 970 694 l 794 694 l 794 821 b 893 992 853 855 893 918 b 694 1190 893 1101 804 1190 b 496 992 585 1190 496 1101 b 595 821 496 918 536 855 l 595 694 l 446 694 b 397 645 419 694 397 672 l 397 546 b 446 496 397 519 419 496 l 595 496 l 595 -5 b 238 177 442 16 308 84 l 315 255 b 321 282 322 263 325 273 b 298 298 317 291 308 298 l 25 298 b 0 273 11 298 0 287 l 0 0 b 16 -23 0 -10 6 -19 b 25 -25 19 -24 22 -25 b 43 -18 31 -25 38 -22 l 115 54 b 694 -186 236 -92 455 -186 b 1274 54 934 -186 1152 -92 l 1346 -18 b 1364 -25 1352 -22 1358 -25 b 1373 -23 1367 -25 1370 -24 b 1389 0 1383 -19 1389 -10 z "},"":{"ha":893,"x_min":0,"x_max":0,"o":"m 818 595 l 248 595 l 248 843 b 446 1042 248 953 337 1042 b 645 843 556 1042 645 953 b 694 794 645 816 667 794 l 744 794 b 794 843 771 794 794 816 b 446 1190 794 1035 638 1190 b 99 843 255 1190 99 1035 l 99 595 l 74 595 b 0 521 33 595 0 562 l 0 74 b 74 0 0 33 33 0 l 818 0 b 893 74 860 0 893 33 l 893 521 b 818 595 893 562 860 595 z "},"":{"ha":1190,"x_min":0,"x_max":0,"o":"m 794 496 b 595 694 794 605 705 694 b 397 496 486 694 397 605 b 595 298 397 387 486 298 b 794 496 705 298 794 387 z m 893 496 b 595 198 893 332 760 198 b 298 496 431 198 298 332 b 595 794 298 660 431 794 b 893 496 760 794 893 660 z m 992 496 b 595 893 992 715 815 893 b 198 496 376 893 198 715 b 595 99 198 277 376 99 b 992 496 815 99 992 277 z m 1091 496 b 595 0 1091 222 869 0 b 99 496 322 0 99 222 b 595 992 99 770 322 992 b 1091 496 869 992 1091 770 z m 1190 496 b 595 1091 1190 825 924 1091 b 0 496 267 1091 0 825 b 595 -99 0 167 267 -99 b 1190 496 924 -99 1190 167 z "},"":{"ha":1091,"x_min":0,"x_max":0,"o":"m 298 620 b 223 694 298 661 264 694 l 74 694 b 0 620 33 694 0 661 l 0 471 b 74 397 0 430 33 397 l 223 397 b 298 471 264 397 298 430 z m 694 620 b 620 694 694 661 661 694 l 471 694 b 397 620 430 694 397 661 l 397 471 b 471 397 397 430 430 397 l 620 397 b 694 471 661 397 694 430 z m 1091 620 b 1017 694 1091 661 1058 694 l 868 694 b 794 620 827 694 794 661 l 794 471 b 868 397 794 430 827 397 l 1017 397 b 1091 471 1058 397 1091 430 z "},"":{"ha":298,"x_min":0,"x_max":0,"o":"m 298 223 b 223 298 298 264 264 298 l 74 298 b 0 223 33 298 0 264 l 0 74 b 74 0 0 33 33 0 l 223 0 b 298 74 264 0 298 33 z m 298 620 b 223 694 298 661 264 694 l 74 694 b 0 620 33 694 0 661 l 0 471 b 74 397 0 430 33 397 l 223 397 b 298 471 264 397 298 430 z m 298 1017 b 223 1091 298 1058 264 1091 l 74 1091 b 0 1017 33 1091 0 1058 l 0 868 b 74 794 0 827 33 794 l 223 794 b 298 868 264 794 298 827 z "},"":{"ha":1190,"x_min":0,"x_max":0,"o":"m 397 198 b 298 99 397 143 353 99 b 198 198 243 99 198 143 b 298 298 198 253 243 298 b 397 198 353 298 397 253 z m 669 126 b 662 107 670 119 667 112 b 644 99 657 102 651 99 l 545 99 b 520 122 532 99 521 109 b 222 421 508 281 381 409 b 198 446 208 422 198 432 l 198 545 b 206 563 198 552 202 558 b 225 570 211 567 218 570 b 669 126 465 556 656 366 z m 966 125 b 960 107 967 118 965 112 b 942 99 955 102 949 99 l 842 99 b 818 123 829 99 818 110 b 222 718 806 445 544 707 b 198 743 209 719 198 730 l 198 842 b 206 860 198 849 202 856 b 224 867 211 866 216 868 b 966 125 627 854 953 528 z m 1190 868 b 967 1091 1190 991 1090 1091 l 223 1091 b 0 868 100 1091 0 991 l 0 124 b 223 -99 0 1 100 -99 l 967 -99 b 1190 124 1090 -99 1190 1 z "},"":{"ha":1190,"x_min":0,"x_max":0,"o":"m 595 1091 b 0 496 267 1091 0 825 b 595 -99 0 167 267 -99 b 1190 496 924 -99 1190 167 b 595 1091 1190 825 924 1091 z m 893 453 l 471 205 b 446 198 463 201 455 198 b 422 205 438 198 429 201 b 397 248 406 214 397 230 l 397 744 b 422 787 397 762 406 778 b 471 787 437 796 457 796 l 893 539 b 918 496 908 530 918 514 b 893 453 918 478 908 462 z "},"":{"ha":1389,"x_min":0,"x_max":0,"o":"m 794 840 l 350 397 l 595 152 l 1039 595 z m 630 81 b 595 67 621 72 608 67 b 560 81 582 67 570 72 l 280 362 b 280 432 260 381 260 412 l 759 911 b 829 911 777 929 810 929 l 1109 630 b 1109 560 1128 611 1128 580 z m 1319 575 b 1319 715 1357 613 1357 677 l 1221 812 b 1011 812 1163 754 1069 754 b 1011 1023 953 870 953 965 l 914 1120 b 773 1120 875 1159 811 1159 l 71 418 b 71 277 32 379 32 315 l 167 180 b 378 180 226 238 320 238 b 378 -31 436 122 436 27 l 476 -129 b 616 -129 514 -167 577 -167 l 1319 575 z "},"":{"ha":1190,"x_min":0,"x_max":0,"o":"m 992 446 b 942 397 992 419 970 397 l 248 397 b 198 446 221 397 198 419 l 198 546 b 248 595 198 573 221 595 l 942 595 b 992 546 970 595 992 573 l 992 446 z m 1190 868 b 967 1091 1190 991 1090 1091 l 223 1091 b 0 868 100 1091 0 991 l 0 124 b 223 -99 0 1 100 -99 l 967 -99 b 1190 124 1090 -99 1190 1 z "},"":{"ha":1091,"x_min":0,"x_max":0,"o":"m 893 570 b 868 595 893 584 882 595 l 223 595 b 198 570 209 595 198 584 l 198 521 b 223 496 198 507 209 496 l 868 496 b 893 521 882 496 893 507 z m 992 223 b 868 99 992 155 936 99 l 223 99 b 99 223 155 99 99 155 l 99 868 b 223 992 99 936 155 992 l 868 992 b 992 868 936 992 992 936 l 992 223 z m 1091 868 b 868 1091 1091 991 991 1091 l 223 1091 b 0 868 100 1091 0 991 l 0 223 b 223 0 0 100 100 0 l 868 0 b 1091 223 991 0 1091 100 z "}}}
